<svg id="Layer_1" data-name="Layer 1" xmlns="http://www.w3.org/2000/svg" xmlns:xlink="http://www.w3.org/1999/xlink" viewBox="0 0 1390.38 232.22"><defs><style>.cls-1{fill:#00579f;}.cls-2{fill:#faa61a;}.cls-3{fill:none;}.cls-4{fill:#ff5f00;}.cls-5{fill:#eb001b;}.cls-6{fill:#f79e1b;}.cls-13,.cls-7{fill:#fff;}.cls-8{fill:url(#linear-gradient);}.cls-9{fill:url(#linear-gradient-2);}.cls-10{fill:url(#linear-gradient-3);}.cls-11{fill:url(#linear-gradient-4);}.cls-12{fill:url(#linear-gradient-5);}.cls-13,.cls-14{fill-rule:evenodd;}.cls-14{fill:#0077a6;}.cls-15{fill:#004a97;}.cls-16{fill:#231f20;}</style><linearGradient id="linear-gradient" x1="121.36" y1="-509.99" x2="125.74" y2="-509.99" gradientTransform="translate(-631.44 6514.84) scale(12.53)" gradientUnits="userSpaceOnUse"><stop offset="0" stop-color="#007940"/><stop offset="0.23" stop-color="#00873f"/><stop offset="0.74" stop-color="#40a737"/><stop offset="1" stop-color="#5cb531"/></linearGradient><linearGradient id="linear-gradient-2" x1="121.36" y1="-510.67" x2="125.74" y2="-510.67" xlink:href="#linear-gradient"/><linearGradient id="linear-gradient-3" x1="121.36" y1="-511.41" x2="125.74" y2="-511.41" xlink:href="#linear-gradient"/><linearGradient id="linear-gradient-4" x1="111.54" y1="-510.67" x2="115.99" y2="-510.67" gradientTransform="translate(-631.44 6514.84) scale(12.53)" gradientUnits="userSpaceOnUse"><stop offset="0" stop-color="#1f286f"/><stop offset="0.47" stop-color="#004e94"/><stop offset="0.83" stop-color="#0066b1"/><stop offset="1" stop-color="#006fbc"/></linearGradient><linearGradient id="linear-gradient-5" x1="116.42" y1="-510.66" x2="120.75" y2="-510.66" gradientTransform="translate(-631.44 6514.84) scale(12.53)" gradientUnits="userSpaceOnUse"><stop offset="0" stop-color="#6c2c2f"/><stop offset="0.17" stop-color="#882730"/><stop offset="0.57" stop-color="#be1833"/><stop offset="0.86" stop-color="#dc0436"/><stop offset="1" stop-color="#e60039"/></linearGradient></defs><g id="g4158"><polygon id="polygon9" class="cls-1" points="171.43 178.28 139.39 178.28 159.43 54.34 191.48 54.34 171.43 178.28"/><path id="path11" class="cls-1" d="M287.61,57.37a78.89,78.89,0,0,0-28.74-5.26c-31.65,0-53.94,16.88-54.07,41-.27,17.8,16,27.69,28.08,33.62,12.4,6.07,16.62,10,16.62,15.43-.13,8.31-10,12.13-19.25,12.13-12.79,0-19.65-2-30.07-6.59l-4.22-2-4.48,27.82c7.51,3.43,21.36,6.47,35.74,6.6,33.63,0,55.52-16.62,55.78-42.33.13-14.11-8.44-24.92-26.9-33.75C244.89,98.36,238,94.54,238,88.74c.14-5.28,5.81-10.68,18.46-10.68a54.51,54.51,0,0,1,23.88,4.75l2.89,1.31,4.36-26.76Z"/><path id="path13" class="cls-1" d="M330.21,134.37C332.85,127.25,343,99.69,343,99.69c-.13.27,2.64-7.25,4.22-11.86l2.24,10.68s6.07,29.67,7.39,35.86Zm39.56-80H345c-7.65,0-13.45,2.24-16.75,10.28L280.62,178.28h33.63L321,159.69h41.11c.92,4.35,3.83,18.59,3.83,18.59h29.67L369.77,54.34Z"/><path id="path15" class="cls-1" d="M112.62,54.34,81.24,138.86l-3.43-17.15c-5.81-19.77-24-41.26-44.31-52l28.75,108.4H96.14L146.51,54.3Z"/><path id="path17" class="cls-2" d="M52.09,54.34H.53L0,56.84c40.22,10.29,66.86,35.08,77.81,64.88l-11.21-57C64.75,56.8,59.08,54.56,52.09,54.3Z"/></g><rect class="cls-3" x="411.28" width="327.7" height="232.22"/><rect class="cls-4" x="541.17" y="55.25" width="67.73" height="121.71"/><path class="cls-5" d="M545.48,116.11A77.3,77.3,0,0,1,575,55.25,77.41,77.41,0,1,0,575,177,77.3,77.3,0,0,1,545.48,116.11Z"/><path class="cls-6" d="M700.28,116.11A77.4,77.4,0,0,1,575,177a77.45,77.45,0,0,0,0-121.72,77.41,77.41,0,0,1,125.24,60.86Z"/><path class="cls-6" d="M692.89,164.11v-2.5h1v-.5h-2.56v.5h1v2.5Zm5,0v-3h-.76l-1,2-.9-2.07h-.78v3H695v-2.23l.85,1.95h.57l.85-2v2.35Z"/><path class="cls-7" d="M954.63,162.11a31.09,31.09,0,0,1-31,31h-169v-123a31.09,31.09,0,0,1,31-31H954.58Z"/><path class="cls-8" d="M899.63,130.53h12.83c.37,0,1.22-.12,1.59-.12a5.73,5.73,0,0,0,4.52-5.74,5.92,5.92,0,0,0-4.52-5.75,7.06,7.06,0,0,0-1.59-.12H899.63Z"/><path class="cls-9" d="M911,49.5a22.24,22.24,0,0,0-22.24,22.24v23.1h31.41a11.56,11.56,0,0,1,2.2.13c7.09.36,12.35,4,12.35,10.38,0,5-3.55,9.29-10.15,10.15v.24c7.21.49,12.71,4.53,12.71,10.76,0,6.72-6.11,11.12-14.18,11.12H888.63v45.22h32.63a22.26,22.26,0,0,0,22.25-22.24V49.5Z"/><path class="cls-10" d="M917,106.82a5.18,5.18,0,0,0-4.52-5.25c-.24,0-.85-.13-1.22-.13H899.63V112.2h11.61a3.6,3.6,0,0,0,1.22-.12A5.2,5.2,0,0,0,917,106.82Z"/><path class="cls-11" d="M788.05,49.5A22.26,22.26,0,0,0,765.8,71.74v54.88c6.24,3.06,12.72,5,19.19,5,7.7,0,11.86-4.64,11.86-11V94.72h19.07v25.79c0,10-6.24,18.21-27.38,18.21a93.72,93.72,0,0,1-22.86-2.81v46.81h32.64a22.24,22.24,0,0,0,22.24-22.24v-111Z"/><path class="cls-12" d="M849.52,49.5a22.26,22.26,0,0,0-22.25,22.24v29.09c5.62-4.76,15.4-7.82,31.17-7.09a100.37,100.37,0,0,1,17.48,2.69v9.41A42.33,42.33,0,0,0,859.05,101c-12-.85-19.19,5-19.19,15.28s7.19,16.26,19.19,15.28a44.35,44.35,0,0,0,16.87-4.89V136a96.44,96.44,0,0,1-17.48,2.69c-15.77.73-25.55-2.32-31.17-7.09V183h32.64a22.26,22.26,0,0,0,22.24-22.25V49.5Z"/><path class="cls-13" d="M1000.48,46.11l143-.23.22,143-143,.23Z"/><path class="cls-14" d="M1007,177.94h-.42c0-.21-.11-.51-.11-.62s0-.3-.3-.3h-.62v.92h-.3v-2.15h.92c.41,0,.72.1.72.51a.59.59,0,0,1-.2.51.51.51,0,0,1,.2.41v.41c0,.1,0,.1.11.1v.21Zm-.43-1.54c0-.3-.19-.3-.3-.3h-.72v.61h.62c.21,0,.41-.1.4-.31Zm1.75.41a2.29,2.29,0,0,0-2.34-2.25h0a2.31,2.31,0,1,0,2.36,2.33A.11.11,0,0,0,1008.3,176.81Zm-.31,0a2,2,0,0,1-2,1.95,1.89,1.89,0,0,1-1.94-1.82v-.12a1.94,1.94,0,0,1,1.86-2h.08a2,2,0,0,1,2,2Zm126.06-41.56c0,3.07-1.94,4.5-5.42,4.51H1122v-3.07h6.66a2.19,2.19,0,0,0,1.33-.31,1.28,1.28,0,0,0,.4-.92,1.5,1.5,0,0,0-.41-1,1.78,1.78,0,0,0-1.23-.3c-3.17-.1-7.16.11-7.17-4.39,0-2,1.32-4.3,4.91-4.31h6.86v3.07H1127a2.36,2.36,0,0,0-1.33.21,1.49,1.49,0,0,0-.51,1.12,1.15,1.15,0,0,0,.72,1,5.49,5.49,0,0,0,1.33.2H1129a5.72,5.72,0,0,1,4,1.12,4.36,4.36,0,0,1,1,3.07Zm-14.44-3a5.82,5.82,0,0,0-4-1.12h-1.84a5.49,5.49,0,0,1-1.33-.2,1.11,1.11,0,0,1-.71-1,1.18,1.18,0,0,1,.51-1.13,2.31,2.31,0,0,1,1.32-.21h6.35v-3.07h-6.86c-3.68,0-4.91,2.26-4.91,4.31,0,4.5,4,4.29,7.17,4.39a1.72,1.72,0,0,1,1.23.31,1.45,1.45,0,0,1,.41,1,1.25,1.25,0,0,1-.41.92,2.19,2.19,0,0,1-1.32.31h-6.66v3.07h6.67c3.47,0,5.42-1.44,5.42-4.51a4.49,4.49,0,0,0-1-3.07Zm-13.1,4.63h-8V134h7.88v-2.9h-7.88v-2.66h8.08v-3h-11.45v14.33h11.46v-3Zm-15.17-10.62a8.48,8.48,0,0,0-4.19-.72h-7.89v14.33h3.48v-5.26h3.74c1.22,0,2,.1,2.45.61a4.48,4.48,0,0,1,.62,2.86v1.74h3.38v-2.77a4.72,4.72,0,0,0-.52-2.66,3.84,3.84,0,0,0-1.74-1.22,4,4,0,0,0,2.45-3.8,3.19,3.19,0,0,0-1.77-3.16Zm-19.45-.69h-11l-4.4,4.71-4.2-4.7h-13.81v14.34h13.62l4.39-4.71,4.2,4.7h6.66V135.1h4.3c3,0,5.93-.83,5.93-4.82s-3.08-4.71-5.74-4.7Zm16.7,5.91a4.12,4.12,0,0,1-1.64.21l-4.2.11v-3.28h4.2a2.7,2.7,0,0,1,1.63.31,1.28,1.28,0,0,1,.72,1.23,1.77,1.77,0,0,1-.7,1.37Zm-16.69.74h-4.5v-3.69h4.51c1.23,0,2,.51,2,1.74a1.86,1.86,0,0,1-1.81,1.91h-.19Zm-13.2.54,5.32-5.64v11.57Zm-8.29,4.21h-8.5v-2.86h7.57v-2.86h-7.58v-2.66h8.6l3.79,4.19-3.88,4.21Zm74.07-21.86h-4.93l-6.47-10.74v10.75h-7l-1.33-3.17h-7.17l-1.32,3.18h-4a7.47,7.47,0,0,1-5-1.63c-1.13-1.23-1.74-2.87-1.75-5.43,0-2.15.3-4.09,1.82-5.63,1-1.13,2.87-1.64,5.22-1.65h3.28v3.07h-3.27a3.63,3.63,0,0,0-2.66.83A4.65,4.65,0,0,0,1089,108a5.07,5.07,0,0,0,.93,3.37,3.45,3.45,0,0,0,2.35.72h1.54l4.9-11.27h5.11l5.76,13.5V100.78h5.32l6.06,9.92v-9.93h3.53V115.1Zm-40.68-14.26h-3.48v14.34h3.48V100.86Zm-7.27.62a8.16,8.16,0,0,0-4.09-.6h-7.89V115.2h3.37V110h3.69a3.49,3.49,0,0,1,2.56.61c.62.71.52,1.94.52,2.76v1.84h3.48v-2.87a4,4,0,0,0-.62-2.56,4.28,4.28,0,0,0-1.64-1.22,4.08,4.08,0,0,0,2.45-3.79,3.56,3.56,0,0,0-1.85-3.28Zm-14.42,10.78h-8v-2.87H1062v-3h-7.88v-2.56h8v-3h-11.47v14.33h11.47v-2.9Zm-14-11.35h-5.63l-4.19,9.74-4.52-9.72h-5.53v13.51l-5.86-13.5h-5.11l-6.12,14.35h3.68l1.33-3.18h7.16l1.34,3.18h7V104l5,11.26h3l5-11.27v11.26h3.48V100.93Zm55.5,8-2.36-5.62-2.35,5.63Zm-29.69-2.2a3.07,3.07,0,0,1-1.74.31H1068v-3.18h4.18a4.09,4.09,0,0,1,1.74.2,1.49,1.49,0,0,1,.62,1.33,1.39,1.39,0,0,1-.62,1.32ZM1017.41,109l2.35-5.63,2.36,5.62Zm115.7-53.22L1011,56l.08,51.6,4.18-9.53h8.91l1.23,2.35V98.11h10.44l2.36,5.11,2.25-5.12h33.27a6,6,0,0,1,3.89,1.12V98.09h9.11v1a12.2,12.2,0,0,1,5.73-1.13h13.21l1.23,2.35V98h9.72l1.44,2.35V97.91h9.52V118h-9.62l-1.85-3.07V118h-12l-1.34-3.27h-3l-1.32,3.27h-6.25a12.07,12.07,0,0,1-5.53-1.22V118H1071.8v-4.61c0-.62-.1-.72-.51-.72h-.51V118h-28.67v-2.56l-1,2.56h-6l-1-2.45v2.57h-11.57l-1.23-3.27h-3l-1.32,3.27h-5.94l.09,60.51,122.14-.2-.06-36.75a12.73,12.73,0,0,1-5,.93h-8.91v-1.19a7.9,7.9,0,0,1-4.61,1.24h-28v-4.54c0-.62-.1-.62-.61-.62h-.51v5.22h-9.22v-5.42a11.26,11.26,0,0,1-4.81.72h-1v4.71h-11.27l-2.66-3.07-3,3.08H1035.5V122.66h18.43l2.66,3.07,2.87-3.08h12.38c1.44,0,3.79.2,4.82,1.22v-1.22h11a8.73,8.73,0,0,1,4.71,1.22v-1.23h16.69v1.23a6.86,6.86,0,0,1,4.2-1.23h9.31v1.23a7.48,7.48,0,0,1,4.3-1.23h6.35l-.11-66.75Z"/><g id="Card_Shape" data-name="Card Shape"><path class="cls-7" d="M1199.91,176.35a5.11,5.11,0,0,1-5.1-5.1V60a5.11,5.11,0,0,1,5.1-5.11H1383.7a5.11,5.11,0,0,1,5.11,5.11V171.25a5.11,5.11,0,0,1-5.11,5.1Z"/><path class="cls-15" d="M1383.7,56.5a3.55,3.55,0,0,1,3.54,3.54V171.25a3.54,3.54,0,0,1-3.54,3.53H1199.91a3.54,3.54,0,0,1-3.53-3.53V60a3.54,3.54,0,0,1,3.53-3.54H1383.7m0-3.14H1199.91a6.7,6.7,0,0,0-6.67,6.68V171.25a6.69,6.69,0,0,0,6.67,6.67H1383.7a6.7,6.7,0,0,0,6.68-6.67V60a6.7,6.7,0,0,0-6.68-6.68Z"/></g><path class="cls-16" d="M1226.24,142.87c0,2.36,1.68,2.63,3.18,2.63,6.61,0,8.78-5,8.78-9.54,0-5.72-3.67-9.84-9.57-9.84-1.26,0-1.84.09-2.39.12Zm-3-14.34c0-2.75-1.44-2.57-2.81-2.6v-.79c1.19.06,2.41.06,3.61.06s3-.06,5.29-.06c7.92,0,12.23,5.29,12.23,10.7,0,3-1.77,10.65-12.6,10.65-1.56,0-3-.07-4.43-.07s-2.73,0-4.1.07v-.8c1.83-.19,2.72-.25,2.81-2.32V128.53Z"/><path class="cls-16" d="M1245.9,127.8a1.5,1.5,0,0,1,0-3,1.49,1.49,0,0,1,1.5,1.47,1.52,1.52,0,0,1-1.5,1.53m-3.27,17.89h.58c.86,0,1.47,0,1.47-1v-8.29c0-1.34-.46-1.53-1.59-2.14v-.49c1.44-.43,3.15-1,3.27-1.1a1.11,1.11,0,0,1,.55-.15c.15,0,.22.18.22.43v11.74c0,1,.67,1,1.53,1h.52v.8c-1,0-2.12-.07-3.21-.07s-2.21,0-3.34.07Z"/><path class="cls-16" d="M1252.08,136.58c0-1.14-.34-1.44-1.77-2V134c1.31-.43,2.56-.83,4-1.47.1,0,.19.06.19.3v2c1.74-1.25,3.24-2.29,5.29-2.29,2.6,0,3.52,1.89,3.52,4.28v7.89c0,1,.67,1,1.52,1h.56v.79c-1.08,0-2.15-.06-3.25-.06s-2.2,0-3.3.06v-.79h.55c.86,0,1.47,0,1.47-1v-7.92c0-1.75-1.07-2.6-2.81-2.6a8.07,8.07,0,0,0-3.55,1.47v9.05c0,1,.67,1,1.53,1h.55v.79c-1.07,0-2.14-.06-3.25-.06s-2.2,0-3.3.06v-.79h.55c.86,0,1.47,0,1.47-1v-8.1Z"/><path class="cls-16" d="M1273.16,137.07c.76,0,.85-.4.85-.77a2.59,2.59,0,0,0-2.66-2.81c-1.87,0-3.15,1.37-3.52,3.58Zm-5.42,1a7.8,7.8,0,0,0,0,1.77c.18,2.9,2,5.29,4.49,5.29a5.84,5.84,0,0,0,4.13-2.05l.43.43c-1.41,1.86-3.15,3.45-5.65,3.45-4.87,0-5.85-4.71-5.85-6.66,0-6,4-7.77,6.18-7.77,2.48,0,5.14,1.56,5.17,4.8a3.38,3.38,0,0,1,0,.55l-.28.18h-8.59Z"/><path class="cls-16" d="M1277.34,145.69h.83c.85,0,1.47,0,1.47-1v-8.59c0-1-1.13-1.14-1.59-1.38v-.46c2.23-.95,3.45-1.74,3.73-1.74s.27.09.27.4v2.75h.07c.76-1.19,2.05-3.15,3.91-3.15a1.66,1.66,0,0,1,1.74,1.62,1.48,1.48,0,0,1-1.43,1.56c-.95,0-.95-.74-2-.74a2.6,2.6,0,0,0-2.24,2.55v7.18c0,1,.62,1,1.47,1h1.71v.8c-1.68,0-3-.07-4.28-.07s-2.53,0-3.64.07v-.8Z"/><path class="cls-16" d="M1289.12,142.23c.4,2,1.62,3.74,3.85,3.74a2.17,2.17,0,0,0,2.48-2.18c0-3.61-6.67-2.44-6.67-7.37,0-1.71,1.38-3.91,4.74-3.91a7.94,7.94,0,0,1,3.49.89l.21,3.11h-.7c-.31-1.92-1.38-3-3.34-3a2.14,2.14,0,0,0-2.38,2c0,3.58,7.09,2.48,7.09,7.28,0,2-1.62,4.16-5.26,4.16a8,8,0,0,1-3.73-1l-.33-3.51Z"/><path class="cls-16" d="M1325.51,130.67h-.76c-.59-3.57-3.12-5-6.55-5s-8.62,2.35-8.62,9.69c0,6.18,4.4,10.62,9.11,10.62a6.23,6.23,0,0,0,6.15-5.3l.7.19-.7,4.46a17.12,17.12,0,0,1-6.77,1.63c-7.15,0-11.67-4.62-11.67-11.5,0-6.27,5.59-10.77,11.59-10.77a22.18,22.18,0,0,1,7.21,1.62Z"/><path class="cls-16" d="M1326.61,145.69h.58c.86,0,1.47,0,1.47-1v-17c0-2-.46-2.05-1.62-2.39v-.49a19.64,19.64,0,0,0,3.15-1.31,2.83,2.83,0,0,1,.67-.34c.19,0,.25.18.25.43v21.13c0,1,.67,1,1.53,1h.51v.8c-1,0-2.1-.07-3.21-.07s-2.2,0-3.33.07v-.8Z"/><path class="cls-16" d="M1346.25,144.8c0,.55.33.58.85.58l1.23,0V146a29.87,29.87,0,0,0-4.41.95l-.15-.1v-2.47c-1.83,1.49-3.24,2.57-5.42,2.57a3.3,3.3,0,0,1-3.36-3.64v-7.83c0-.8-.12-1.56-1.83-1.72v-.58c1.1,0,3.54-.21,3.94-.21s.34.21.34.89v7.88c0,.92,0,3.55,2.66,3.55a6.8,6.8,0,0,0,3.7-1.86V135.2c0-.61-1.47-.95-2.57-1.25v-.55c2.75-.19,4.47-.43,4.77-.43s.25.21.25.55V144.8Z"/><path class="cls-16" d="M1352.33,143a3.29,3.29,0,0,0,3.15,3.12c3.27,0,4.65-3.21,4.65-5.94,0-3.3-2.51-6.05-4.89-6.05a4.69,4.69,0,0,0-2.91,1.44Zm0-8.32c1.22-1,2.88-2.2,4.56-2.2,3.55,0,5.69,3.09,5.69,6.42,0,4-2.94,8-7.31,8a9,9,0,0,1-4.26-1.08l-.91.71-.64-.34a36.29,36.29,0,0,0,.43-5.44V127.65c0-2-.46-2.05-1.63-2.39v-.49a19.26,19.26,0,0,0,3.15-1.31,2.82,2.82,0,0,1,.68-.34c.18,0,.24.18.24.43v11.16Z"/><path class="cls-16" d="M1220.4,164.27h.23c.6,0,1.23-.08,1.23-1V154.6c0-.87-.63-.95-1.23-.95h-.23v-.5c.64,0,1.64.07,2.46.07s1.83-.07,2.61-.07v.5h-.23c-.6,0-1.23.08-1.23.95v8.72c0,.87.63,1,1.23,1h.23v.5c-.8,0-1.8-.07-2.63-.07s-1.8.07-2.44.07Z"/><path class="cls-16" d="M1225.4,164.7v-.36h-.16c-.6,0-1.3-.1-1.31-1V154.6c0-.92.71-1,1.31-1h.16v-.36c-.77,0-1.73.07-2.54.07s-1.75-.06-2.39-.07v.36h.16c.59,0,1.3.1,1.3,1v8.72c0,.92-.71,1-1.3,1h-.16v.36c.64,0,1.58-.07,2.37-.07s1.77.06,2.56.07m.07.14c-.8,0-1.8-.07-2.63-.07s-1.79.07-2.45.07h-.07v-.64h.31c.6,0,1.15-.07,1.16-.88V154.6c0-.81-.56-.87-1.16-.88h-.31v-.64h.08c.65,0,1.65.06,2.46.06s1.82-.06,2.61-.06h.08v.64h-.31c-.6,0-1.16.07-1.16.88v8.72c0,.81.56.86,1.16.88h.31v.64Z"/><path class="cls-16" d="M1236.9,161.49l0,0v-6.23a1.38,1.38,0,0,0-1.45-1.57h-.37v-.5c.78,0,1.55.07,2.33.07s1.37-.07,2-.07v.5h-.25c-.7,0-1.48.13-1.48,2.12v7.57a10.12,10.12,0,0,0,.1,1.68h-.64l-8.57-9.56v6.86c0,1.45.29,2,1.57,2h.28v.5c-.72,0-1.43-.07-2.15-.07s-1.51.07-2.26.07v-.5h.23c1.15,0,1.5-.78,1.5-2.11v-7a1.5,1.5,0,0,0-1.51-1.5h-.22v-.5c.63,0,1.28.07,1.91.07s1-.07,1.49-.07Z"/><path class="cls-16" d="M1236.86,161.45Zm0,0,.06-.05Zm.33,3.45h.55a11.82,11.82,0,0,1-.08-1.6v-7.58c0-2,.83-2.18,1.55-2.18h.18v-.36c-.66,0-1.32.07-2,.07s-1.5-.06-2.25-.07v.36h.3a1.46,1.46,0,0,1,1.52,1.64l0,6.29,0,0,0,.05-7.4-8.37c-.5,0-1,.07-1.49.07s-1.23-.06-1.84-.07v.36h.15a1.56,1.56,0,0,1,1.58,1.57v7c0,1.33-.37,2.18-1.56,2.18h-.17v.36c.73,0,1.47-.07,2.19-.07s1.39.06,2.08.07v-.36h-.21c-1.31,0-1.64-.57-1.64-2v-7Zm.64.15-.69,0-8.44-9.41v6.67c0,1.45.24,1.86,1.49,1.88h.35v.64h-.07c-.72,0-1.44-.07-2.15-.07s-1.5.07-2.26.07H1226v-.64h.31c1.1,0,1.41-.72,1.42-2v-7a1.42,1.42,0,0,0-1.44-1.43H1226v-.64h.07c.64,0,1.29.06,1.91.06s1-.06,1.54,0l7.31,8.24v-6.12c0-1.32-.89-1.49-1.37-1.5h-.44v-.64h.07c.79,0,1.55.06,2.33.06s1.36-.06,2-.06h.07v.64h-.32c-.69,0-1.39.08-1.41,2.05v7.57a10.89,10.89,0,0,0,.1,1.66v.09Z"/><path class="cls-16" d="M1242,154c-1.25,0-1.3.3-1.55,1.52h-.5c.07-.47.15-.93.2-1.42a9.36,9.36,0,0,0,.1-1.41h.4c.14.5.55.48,1,.48h8.59c.45,0,.86,0,.9-.51l.4.06c-.07.45-.14.9-.19,1.35s0,.9,0,1.35l-.5.18c0-.61-.11-1.6-1.23-1.6h-2.73v8.86c0,1.28.59,1.43,1.38,1.43h.32v.5c-.65,0-1.82-.07-2.71-.07s-2.17.07-2.82.07v-.5h.32c.92,0,1.38-.08,1.38-1.4V154Z"/><path class="cls-16" d="M1248.55,164.84c-.65,0-1.82-.07-2.71-.07s-2.16.07-2.82.07H1243v-.64h.39c.92,0,1.29,0,1.31-1.33v-8.81H1242v-.15h2.8v9c0,1.34-.54,1.47-1.45,1.47h-.25v.35c.66,0,1.78-.06,2.75-.06s2,.06,2.63.06v-.35h-.24c-.8,0-1.45-.2-1.45-1.5v-8.93h2.8c1.12,0,1.26,1,1.3,1.57l.36-.13c0-.44,0-.87,0-1.31s.11-.85.17-1.28l-.25,0c-.08.48-.55.51-1,.5h-8.67c-.39,0-.82,0-1-.48h-.28a10,10,0,0,1-.09,1.35c0,.46-.13.9-.19,1.34h.36c.22-1.16.36-1.54,1.6-1.52v.15c-1.23,0-1.2.23-1.48,1.46v0h-.64v-.08c.07-.47.15-.94.2-1.42a9.23,9.23,0,0,0,.1-1.4v-.07h.53v.05c.12.42.42.42.85.43h8.67c.46,0,.8,0,.83-.45v-.08l.08,0,.47.07v.08c-.07.44-.13.89-.18,1.34s0,.89,0,1.34v0l0,0-.59.21v-.09c0-.63-.11-1.53-1.16-1.53h-2.66v8.78c0,1.25.52,1.34,1.31,1.36h.39v.64Z"/><path class="cls-16" d="M1252.06,164.27h.23c.6,0,1.23-.08,1.23-1V154.6c0-.87-.63-.95-1.23-.95h-.23v-.5c1,0,2.74.07,4.14.07s3.13-.07,4.26-.07c0,.72,0,1.82,0,2.55l-.5.13c-.08-1.08-.28-1.94-2-1.94h-2.31v4.35h2c1,0,1.22-.56,1.32-1.46h.5c0,.65,0,1.3,0,1.95s0,1.26,0,1.89l-.5.1c-.1-1-.15-1.64-1.3-1.64h-2V163c0,1.09,1,1.09,2,1.09,2,0,2.88-.14,3.38-2l.46.11c-.21.89-.41,1.76-.56,2.65-1.07,0-3-.07-4.47-.07s-3.48.07-4.43.07v-.5Z"/><path class="cls-16" d="M1260.9,164.69c.14-.84.33-1.68.54-2.52l-.33-.08c-.5,1.86-1.46,2-3.43,2-1,0-2.09,0-2.1-1.16V159h2.07c1.16,0,1.28.69,1.36,1.64l.36-.07c0-.62,0-1.23,0-1.84s0-1.25,0-1.88H1259c-.09.87-.37,1.48-1.38,1.47h-2.05v-4.51H1258c1.73,0,2,.88,2.09,1.93l.36-.1c0-.47-.05-1.07-.05-1.63,0-.28,0-.55,0-.79-1.13,0-2.82.07-4.19.07s-3-.06-4.07-.07v.36h.16c.59,0,1.3.1,1.31,1v8.72c0,.92-.72,1-1.31,1h-.16v.36c1,0,2.89-.07,4.35-.07s3.35.06,4.42.06m.06.15c-1.07,0-3-.07-4.48-.07s-3.47.07-4.42.07H1252v-.64h.3c.6,0,1.15-.07,1.16-.88V154.6c0-.81-.56-.87-1.16-.88h-.3v-.64h.07c1,0,2.75.06,4.14.06s3.13-.06,4.26-.06h.07v.08c0,.24,0,.54,0,.85,0,.58,0,1.21,0,1.68v.06l-.06,0-.58.15v-.08c-.09-1.08-.24-1.87-2-1.89h-2.25v4.22h1.91c1,0,1.13-.5,1.25-1.4v-.06h.64v.07c0,.65,0,1.3,0,1.95s0,1.26,0,1.89v.06h-.06l-.58.12v-.08c-.12-1-.13-1.57-1.23-1.58h-1.93V163c0,1,.88,1,2,1,2,0,2.81-.11,3.31-2l0-.07h.07l.53.14v.07c-.22.88-.42,1.76-.57,2.64v.06Z"/><path class="cls-16" d="M1265.9,158.77h.82c1.66,0,2.56-.63,2.56-2.59a2.27,2.27,0,0,0-2.43-2.43,7.43,7.43,0,0,0-.95.07Zm-2.13-3.86c0-1.21-.66-1.26-1.18-1.26h-.3v-.5c.53,0,1.56.07,2.58.07s1.8-.07,2.68-.07c2.09,0,4,.57,4,2.93a3.14,3.14,0,0,1-2.31,2.93l2.84,4.26a1.87,1.87,0,0,0,1.61,1v.5c-.55,0-1.08-.07-1.63-.07s-1,.07-1.56.07a46.08,46.08,0,0,1-3.46-5.4h-1.1v3.57c0,1.28.6,1.33,1.36,1.33h.3v.5c-1,0-1.91-.07-2.86-.07-.8,0-1.58.07-2.41.07v-.5h.3c.61,0,1.18-.28,1.18-.9v-8.46Z"/><path class="cls-16" d="M1266.72,158.7c1.64,0,2.47-.58,2.49-2.52a2.21,2.21,0,0,0-2.36-2.36,7,7,0,0,0-.88.06v4.82Zm-.82.15h-.07v-5.1h.06a7.31,7.31,0,0,1,1-.07,2.35,2.35,0,0,1,2.5,2.5c0,2-1,2.67-2.64,2.67Zm0,.45H1267l0,0a52.19,52.19,0,0,0,3.4,5.36c.51,0,1-.07,1.56-.07s1,.06,1.56.07v-.37a1.9,1.9,0,0,1-1.6-1l-2.9-4.33.09,0a3.08,3.08,0,0,0,2.27-2.87c0-2.31-1.8-2.84-3.89-2.86-.88,0-1.68.07-2.68.07s-2-.06-2.51-.07v.36h.23c.52,0,1.25.09,1.25,1.34v8.45c0,.67-.63,1-1.25,1h-.23v.35c.8,0,1.56-.07,2.34-.07.93,0,1.87.06,2.79.07v-.35h-.23c-.76,0-1.43-.1-1.43-1.41v-3.63h.07Zm7.75,5.54c-.55,0-1.08-.07-1.63-.07s-1,.07-1.62,0a45.8,45.8,0,0,1-3.44-5.36h-1v3.48c0,1.26.52,1.25,1.29,1.26h.38v.65h-.08c-1,0-1.92-.07-2.86-.07-.79,0-1.58.07-2.41.07h-.07v-.65h.37c.6,0,1.1-.26,1.11-.82v-8.46c0-1.18-.59-1.17-1.11-1.19h-.37v-.64h.07c.54,0,1.56.06,2.58.06s1.79-.06,2.68-.06c2.09,0,4,.58,4,3a3.18,3.18,0,0,1-2.28,3l2.8,4.19a1.79,1.79,0,0,0,1.56,1h.06v.64Z"/><path class="cls-16" d="M1285,161.49l0,0v-6.23a1.37,1.37,0,0,0-1.44-1.57h-.37v-.5c.78,0,1.55.07,2.33.07s1.36-.07,2-.07v.5h-.25c-.7,0-1.48.13-1.48,2.12v7.57a10.12,10.12,0,0,0,.1,1.68h-.63l-8.57-9.56v6.86c0,1.45.28,2,1.56,2h.28v.5c-.71,0-1.43-.07-2.14-.07s-1.52.07-2.27.07v-.5h.23c1.15,0,1.5-.78,1.5-2.11v-7a1.49,1.49,0,0,0-1.51-1.5h-.22v-.5c.63,0,1.29.07,1.92.07s1-.07,1.48-.07Z"/><path class="cls-16" d="M1284.91,161.45Zm0,0,0-.05Zm.34,3.45h.54a11.78,11.78,0,0,1-.09-1.6v-7.58c0-2,.85-2.18,1.56-2.18h.17v-.36c-.65,0-1.31.07-2,.07s-1.51-.06-2.26-.07v.36h.3a1.46,1.46,0,0,1,1.52,1.64l0,6.29,0,0,0,.05-7.4-8.37c-.5,0-1,.07-1.48.07s-1.24-.06-1.85-.07v.36h.15a1.56,1.56,0,0,1,1.58,1.57v7c0,1.34-.38,2.19-1.57,2.19h-.16v.36c.72,0,1.46-.07,2.19-.07s1.39.06,2.08.07v-.36h-.21c-1.31,0-1.64-.57-1.64-2v-7Zm.63.15-.69,0-8.44-9.41v6.67c0,1.45.23,1.86,1.49,1.88h.35v.64h-.07c-.72,0-1.43-.07-2.15-.07s-1.51.07-2.26.07h-.07v-.64h.3c1.1,0,1.42-.72,1.43-2v-7a1.42,1.42,0,0,0-1.44-1.43h-.29v-.64h.07c.64,0,1.29.06,1.92.06s1-.06,1.53,0l7.31,8.24v-6.12c0-1.33-.89-1.49-1.37-1.5h-.44v-.64h.07c.79,0,1.55.06,2.33.06s1.36-.06,2-.06h.07v.64h-.32c-.69,0-1.4.08-1.41,2v7.57a9.87,9.87,0,0,0,.1,1.67v.09Z"/><path class="cls-16" d="M1292.65,155h0l-1.55,4.71h3.11Zm-2.43,7.37a7.14,7.14,0,0,0-.36,1.29c0,.51.7.59,1.24.59h.19v.5c-.67,0-1.35-.07-2-.07s-1.19,0-1.79.07v-.5h.1a1.52,1.52,0,0,0,1.45-1.09l2.66-7.63a14.79,14.79,0,0,0,.62-2.07,8.6,8.6,0,0,0,1.51-.71.31.31,0,0,1,.13,0,.12.12,0,0,1,.12,0l.15.41,3.06,8.71c.2.58.4,1.19.61,1.69a1.07,1.07,0,0,0,1.11.67h.1v.5c-.75,0-1.5-.07-2.3-.07s-1.65,0-2.5.07v-.5h.18c.38,0,1-.07,1-.48a5.06,5.06,0,0,0-.34-1.2l-.65-1.93h-3.77Z"/><path class="cls-16" d="M1292.58,155l0,0Zm-1.41,4.61h2.91l-1.44-4.46Zm-.2.15,1.59-4.86h.09V155h0v-.08h0l1.59,4.86Zm3.4,4.89c.83,0,1.63-.06,2.43-.06s1.5,0,2.22.06v-.35h0a1.12,1.12,0,0,1-1.17-.71c-.22-.5-.42-1.12-.62-1.7l-3.06-8.71c-.05-.13-.1-.28-.14-.4H1294l-.1,0a5.82,5.82,0,0,1-1.48.66,14.11,14.11,0,0,1-.61,2.08l-2.67,7.64a1.58,1.58,0,0,1-1.51,1.13h0v.35c.57,0,1.15-.06,1.73-.06s1.3,0,1.93.06v-.35h-.1c-.55,0-1.3-.06-1.32-.65a6.53,6.53,0,0,1,.36-1.32l.08,0-.08,0,.55-1.78h3.88l.67,2a5,5,0,0,1,.34,1.23c0,.51-.73.54-1.1.55h-.11v.35Zm4.72.15c-.75,0-1.5-.07-2.29-.07s-1.65,0-2.49.07h-.08v-.65h.26c.38,0,1-.08,1-.41a5,5,0,0,0-.32-1.17l-.64-1.88h-3.67l-.52,1.68a6.66,6.66,0,0,0-.36,1.27c0,.41.62.51,1.18.51h.25v.65h-.07c-.67,0-1.35-.07-2-.07s-1.2,0-1.8.07h-.07v-.65h.17a1.42,1.42,0,0,0,1.38-1l2.66-7.64a17.3,17.3,0,0,0,.66-2.11,8.24,8.24,0,0,0,1.51-.71.42.42,0,0,1,.16,0,.22.22,0,0,1,.19.1c0,.13.1.28.15.42l3.06,8.7c.2.58.4,1.2.61,1.69a1,1,0,0,0,1,.62h.17v.65Z"/><path class="cls-16" d="M1299.83,154c-1.25,0-1.3.3-1.55,1.52h-.5c.06-.47.15-.93.2-1.42a10.88,10.88,0,0,0,.1-1.41h.4c.13.5.55.48,1,.48h8.58c.45,0,.87,0,.9-.51l.4.06c-.06.45-.13.9-.18,1.35s0,.9,0,1.35l-.5.18c0-.61-.11-1.6-1.23-1.6h-2.73v8.86c0,1.28.59,1.43,1.38,1.43h.32v.5c-.65,0-1.81-.07-2.71-.07s-2.17.07-2.81.07v-.5h.31c.92,0,1.38-.08,1.38-1.4V154Z"/><path class="cls-16" d="M1306.38,164.84c-.65,0-1.82-.07-2.71-.07s-2.16.07-2.81.07h-.08v-.64h.39c.92,0,1.29,0,1.31-1.33v-8.81h-2.65v-.15h2.8v9c0,1.34-.54,1.47-1.46,1.47h-.24v.36c.66,0,1.77-.07,2.74-.07s2,.06,2.64.07v-.36h-.25c-.8,0-1.45-.19-1.45-1.5v-8.93h2.8c1.12,0,1.27,1,1.3,1.57l.36-.13c0-.44,0-.87,0-1.31s.11-.85.17-1.28l-.25,0c-.07.48-.54.51-1,.5h-8.67c-.39,0-.82,0-1-.48h-.27a10,10,0,0,1-.1,1.35c0,.46-.13.9-.19,1.34h.36c.22-1.16.36-1.54,1.61-1.52v.14c-1.24,0-1.21.23-1.48,1.46v.06h-.65v-.08c.07-.47.16-.94.2-1.42a9.23,9.23,0,0,0,.1-1.4v-.07h.53l0,.05c.11.42.42.42.84.43h8.67c.46,0,.8,0,.83-.45v-.08l.08,0,.47.07v.08c-.07.44-.13.89-.18,1.34s0,.89,0,1.34v0l0,0-.59.21v-.09c0-.63-.1-1.53-1.16-1.53h-2.65v8.78c0,1.25.51,1.34,1.3,1.36h.39v.64Z"/><path class="cls-16" d="M1310,164.27h.24c.6,0,1.23-.08,1.23-1V154.6c0-.87-.63-.95-1.23-.95H1310v-.5c.65,0,1.65.07,2.46.07s1.84-.07,2.62-.07v.5h-.23c-.6,0-1.24.08-1.24.95v8.72c0,.87.64,1,1.24,1h.23v.5c-.8,0-1.8-.07-2.63-.07s-1.8.07-2.45.07v-.5Z"/><path class="cls-16" d="M1315,164.69v-.35h-.15c-.6,0-1.31-.1-1.31-1V154.6c0-.92.71-1,1.31-1h.15v-.36c-.76,0-1.73.07-2.54.07s-1.74-.06-2.38-.07v.36h.16c.59,0,1.3.1,1.3,1v8.72c0,.92-.71,1-1.3,1h-.16v.35c.64,0,1.58-.06,2.37-.06s1.77.06,2.55.06m.08.15c-.8,0-1.8-.07-2.63-.07s-1.8.07-2.45.07h-.07v-.64h.31c.6,0,1.15-.07,1.15-.88V154.6c0-.81-.55-.87-1.15-.88h-.31v-.64h.07c.65,0,1.65.06,2.46.06s1.83-.06,2.62-.06h.07v.64h-.3c-.61,0-1.16.07-1.16.88v8.72c0,.81.55.87,1.16.88h.3v.64Z"/><path class="cls-16" d="M1321.94,164.28c3.23,0,3.79-2.84,3.79-5.27s-1.31-5.38-4.08-5.38-3.77,2.6-3.77,4.83c0,3,1.36,5.82,4.06,5.82m-.26-11.38c3.55,0,6.38,2.2,6.38,5.75a6.11,6.11,0,0,1-6.29,6.37,5.88,5.88,0,0,1-6.22-6,6.05,6.05,0,0,1,6.13-6.14"/><path class="cls-16" d="M1317.8,158.46c0-2.24.88-4.9,3.85-4.9s4.15,3,4.15,5.45-.57,5.34-3.86,5.34v-.14c3.16,0,3.71-2.77,3.72-5.2s-1.3-5.3-4-5.3-3.69,2.53-3.7,4.75c0,3,1.35,5.75,4,5.75v.14c-2.76,0-4.13-2.9-4.14-5.89m-2.33.58a6.13,6.13,0,0,1,6.21-6.21V153a6,6,0,0,0-6.07,6.07,5.82,5.82,0,0,0,6.16,5.9,6,6,0,0,0,6.22-6.3c0-3.5-2.79-5.66-6.31-5.66v-.15c3.58,0,6.45,2.22,6.45,5.81a6.19,6.19,0,0,1-6.36,6.45,6,6,0,0,1-6.3-6.05"/><path class="cls-16" d="M1339.27,161.49l0,0v-6.23a1.38,1.38,0,0,0-1.45-1.57h-.36v-.5c.78,0,1.54.07,2.32.07s1.37-.07,2-.07v.5h-.25c-.7,0-1.48.13-1.48,2.12v7.57a11.33,11.33,0,0,0,.1,1.68h-.63l-8.57-9.56v6.86c0,1.45.28,2,1.56,2h.28v.5c-.71,0-1.43-.07-2.14-.07s-1.52.07-2.27.07v-.5h.24c1.15,0,1.49-.78,1.49-2.11v-7a1.49,1.49,0,0,0-1.51-1.5h-.22v-.5c.64,0,1.28.07,1.92.07s1-.07,1.48-.07Z"/><path class="cls-16" d="M1339.23,161.45Zm0,0,.06-.05Zm.34,3.45h.54a11.82,11.82,0,0,1-.08-1.6v-7.58c0-2,.84-2.18,1.55-2.18h.18v-.36c-.66,0-1.31.07-2,.07s-1.5-.06-2.25-.07v.36h.29a1.46,1.46,0,0,1,1.52,1.64l0,6.29,0,0-.06.05-7.4-8.37c-.49,0-1,.07-1.48.07s-1.24-.06-1.85-.07v.36h.15a1.57,1.57,0,0,1,1.59,1.57v7c0,1.33-.37,2.18-1.57,2.18h-.17v.36c.73,0,1.47-.07,2.2-.07s1.38.06,2.07.07v-.36h-.21c-1.31,0-1.64-.57-1.64-2v-7Zm.63.15-.69,0-8.44-9.41v6.67c0,1.45.24,1.86,1.49,1.87h.36v.65h-.08c-.72,0-1.43-.07-2.14-.07s-1.51.07-2.27.07h-.07v-.65h.31c1.09,0,1.41-.71,1.42-2v-7a1.42,1.42,0,0,0-1.44-1.42h-.29v-.64h.07c.64,0,1.29.06,1.92.06s1-.06,1.53,0l7.31,8.24v-6.12c0-1.33-.89-1.49-1.37-1.5h-.44v-.64h.07c.79,0,1.55.06,2.33.06s1.36-.06,2-.06h.07v.64h-.32c-.69,0-1.39.08-1.41,2v7.57a9.8,9.8,0,0,0,.1,1.67v.09Z"/><path class="cls-16" d="M1347,155h0l-1.55,4.71h3.12Zm-2.44,7.37a7.14,7.14,0,0,0-.36,1.29c0,.51.7.59,1.25.59h.18v.5c-.66,0-1.35-.07-2-.07s-1.2,0-1.8.07v-.5h.1a1.5,1.5,0,0,0,1.44-1.09l2.67-7.63a13.56,13.56,0,0,0,.62-2.07,8.6,8.6,0,0,0,1.51-.71.32.32,0,0,1,.14,0,.11.11,0,0,1,.11,0l.15.41,3.06,8.71c.2.58.4,1.19.62,1.69a1.06,1.06,0,0,0,1.1.67h.1v.5c-.75,0-1.5-.07-2.3-.07s-1.65,0-2.5.07v-.5h.19c.38,0,1-.07,1-.48a5.42,5.42,0,0,0-.33-1.2l-.65-1.93h-3.78Z"/><path class="cls-16" d="M1346.91,155l0,0Zm-1.42,4.61h2.92L1347,155.2Zm-.2.15,1.6-4.86h.09V155h0v-.08h0l1.57,4.86Zm3.4,4.89c.83,0,1.64-.06,2.43-.06s1.5,0,2.22.06v-.35h0a1.14,1.14,0,0,1-1.16-.71c-.22-.5-.42-1.12-.62-1.7l-3.06-8.71-.14-.39,0,0h0l-.09,0a6.34,6.34,0,0,1-1.48.66,15.93,15.93,0,0,1-.62,2.08l-2.67,7.64a1.58,1.58,0,0,1-1.51,1.13h0v.35c.58,0,1.15-.06,1.73-.06s1.3,0,1.94.06v-.35h-.11c-.54,0-1.3-.06-1.32-.66a6.82,6.82,0,0,1,.37-1.31l.07,0-.07,0,.55-1.78h3.87l.67,2a5,5,0,0,1,.34,1.22c0,.52-.73.55-1.1.56h-.12v.35Zm4.72.15c-.75,0-1.5-.07-2.29-.07s-1.65,0-2.49.07h-.08v-.65h.26c.38,0,1-.08,1-.41a5.36,5.36,0,0,0-.34-1.17l-.63-1.88h-3.67l-.52,1.68a7.78,7.78,0,0,0-.36,1.27c0,.41.63.51,1.18.51h.25v.65h-.07c-.67,0-1.35-.07-2-.07s-1.2,0-1.8.07h-.07v-.65h.17a1.42,1.42,0,0,0,1.38-1l2.66-7.64a17.7,17.7,0,0,0,.66-2.1,9.06,9.06,0,0,0,1.52-.72.34.34,0,0,1,.16,0,.21.21,0,0,1,.18.1c0,.13.1.28.15.42l3.06,8.7c.2.58.4,1.2.61,1.7a1,1,0,0,0,1,.62h.18v.64Z"/><path class="cls-16" d="M1357.61,163.13c0,.67.46.87,1,.94a12.42,12.42,0,0,0,2.19,0,2.41,2.41,0,0,0,1.6-.91,4.11,4.11,0,0,0,.52-1.19h.48c-.18.95-.42,1.88-.62,2.83-1.46,0-2.93-.07-4.39-.07s-2.93.07-4.39.07v-.5h.23c.6,0,1.25-.08,1.25-1.12V154.6c0-.87-.65-.95-1.25-.95H1354v-.5c.88,0,1.75.07,2.63.07s1.68-.07,2.53-.07v.5h-.42c-.63,0-1.13,0-1.13.9v8.58Z"/><path class="cls-16" d="M1362.72,164.69c.19-.9.41-1.78.59-2.68H1363a3.72,3.72,0,0,1-.51,1.17,2.48,2.48,0,0,1-1.65.93c-.44,0-.87.06-1.28.06s-.63,0-.93,0c-.55-.06-1.07-.29-1.07-1v-8.58c0-.93.59-1,1.21-1h.34v-.36c-.82,0-1.63.07-2.46.07s-1.7-.06-2.55-.07v.36h.16c.59,0,1.32.1,1.32,1v8.55c0,1.08-.73,1.19-1.32,1.19h-.16v.35c1.44,0,2.87-.06,4.32-.06s2.89.06,4.33.06m.06.15c-1.47,0-2.93-.07-4.39-.07s-2.93.07-4.4.07h-.07v-.64h.31c.6,0,1.17-.06,1.18-1V154.6c0-.81-.58-.87-1.18-.88h-.31v-.64h.07c.89,0,1.76.06,2.63.06s1.68-.06,2.54-.06h.06v.64h-.48c-.65,0-1,0-1.06.83v8.59c0,.62.41.78.93.86.29,0,.6,0,.92,0s.83,0,1.26-.06a2.4,2.4,0,0,0,1.55-.87,3.74,3.74,0,0,0,.5-1.18l0,0h.62V162c-.19,1-.42,1.88-.62,2.83v.06Z"/><path class="cls-16" d="M1362.91,154.44h.21c.23,0,.33-.18.33-.45s-.16-.38-.34-.38h-.2Zm-.59.92v-.09c.22,0,.26,0,.26-.15v-1.3c0-.18,0-.25-.25-.24v-.09h.9c.31,0,.59.15.59.47a.56.56,0,0,1-.41.53l.29.4a2,2,0,0,0,.38.42v.05h-.34c-.16,0-.31-.34-.63-.8h-.19v.58c0,.11,0,.11.25.14v.08Zm.87.5a1.43,1.43,0,1,0-1.38-1.42,1.41,1.41,0,0,0,1.38,1.42m0-3.18a1.75,1.75,0,1,1-1.75,1.76,1.73,1.73,0,0,1,1.75-1.76"/><circle class="cls-7" cx="1287.44" cy="94.4" r="28.18"/><path class="cls-15" d="M1287.48,123.09A29.25,29.25,0,0,1,1258,94.15c0-17.4,13.29-29.44,29.44-29.44h7.57c16,0,30.53,12,30.53,29.44,0,15.93-14.57,28.94-30.53,28.94Zm.07-56a26.73,26.73,0,1,0,26.72,26.73A26.73,26.73,0,0,0,1287.55,67.12Zm-6.07,42.53V78a16.93,16.93,0,0,0,0,31.61Zm23-15.8A17,17,0,0,0,1293.61,78v31.62A17,17,0,0,0,1304.49,93.85Z"/></svg>