<svg id="Layer_1" data-name="Layer 1" xmlns="http://www.w3.org/2000/svg" viewBox="0 0 158.87 7.9"><defs><style>.cls-1{fill:#dee220;}.cls-2{fill:#f3b5d1;}.cls-3{fill:#f1b193;}.cls-4{fill:#eb91ba;}.cls-5{fill:#f1b293;}.cls-6{fill:#bcd301;}.cls-7{fill:#f1b294;}.cls-8{fill:#7acbe0;}.cls-9{fill:#77cadf;}.cls-10{fill:#ec92bb;}.cls-11{fill:#78cae0;}</style></defs><path class="cls-1" d="M344.1,403.93c-1.08-1.66-4.23-1.87-3.71-4.48.24-1.21.82-3,2.52-3.35a4.93,4.93,0,0,1,4.69,2.06,2.92,2.92,0,0,1-.33,4,26.45,26.45,0,0,1-2.17,1.76Z" transform="translate(-264.13 -396.04)"/><path class="cls-2" d="M299.12,403.93c-1-1.45-3.74-1.88-2.72-4.53.54-1.41,1.31-2.78,3-2.88s3,1,4.05,2.32c1.83,2.25-.63,3.45-1.3,5.09Z" transform="translate(-264.13 -396.04)"/><path class="cls-3" d="M288.12,403.93c-.75-1.84-3.88-3.57-.52-5.62a2.88,2.88,0,0,1,4,.76c1.4,2.09.09,3.56-1.46,4.86Z" transform="translate(-264.13 -396.04)"/><path class="cls-4" d="M264.13,398c1.89-1.3,3.59-1.33,5.11.64.78,1,1.32,2.08.26,3a4,4,0,0,1-5.37.33Z" transform="translate(-264.13 -396.04)"/><path class="cls-5" d="M326.05,398.82c.21,2.36-1.46,3.45-3.25,3.6a3.27,3.27,0,0,1-3.44-3.39c0-2.12,2.34-2.58,4-2.91C325.19,395.76,325.93,397.16,326.05,398.82Z" transform="translate(-264.13 -396.04)"/><path class="cls-6" d="M282.14,399.46c-.4,1.78-1.47,3.3-3.43,3.37a3.34,3.34,0,0,1-3.48-3.32c-.16-2.14,1.48-2.54,3.3-2.56S281.78,397.23,282.14,399.46Z" transform="translate(-264.13 -396.04)"/><path class="cls-7" d="M366.71,397a2.63,2.63,0,0,1,3,3,2.94,2.94,0,0,1-3.31,2.87c-1.8-.2-3.55-1-3.28-3.4C363.39,397.32,364.93,397,366.71,397Z" transform="translate(-264.13 -396.04)"/><path class="cls-7" d="M396.3,403c-1.7-.75-3.3-1.77-3.07-3.85s2.11-2.14,3.8-2.1,3.05.69,2.89,2.53A3.7,3.7,0,0,1,396.3,403Z" transform="translate(-264.13 -396.04)"/><path class="cls-6" d="M419.58,397c2.05,0,3.64.53,3.39,2.64a3.32,3.32,0,0,1-3.58,3.21,3.36,3.36,0,0,1-3.21-3.6C416.3,397.09,418,396.88,419.58,397Z" transform="translate(-264.13 -396.04)"/><path class="cls-4" d="M332.86,397c1.37.6,3.28.7,3.2,3a2.59,2.59,0,0,1-2.75,2.83c-2,.07-3.14-.86-3.19-2.91A2.57,2.57,0,0,1,332.86,397Z" transform="translate(-264.13 -396.04)"/><path class="cls-4" d="M411,400.27c-.31,1.92-1.87,2.34-3.27,2.49-1.87.2-2.61-1.11-2.64-2.83s.71-3,2.59-2.85S410.52,398.61,411,400.27Z" transform="translate(-264.13 -396.04)"/><path class="cls-8" d="M358.1,399.79c-.16,1.81-.65,3.19-2.6,3a3.18,3.18,0,0,1-3.05-2.71,2.94,2.94,0,0,1,3.1-3.06C357.4,397,358,398.36,358.1,399.79Z" transform="translate(-264.13 -396.04)"/><path class="cls-9" d="M389.16,400.88c.09.95-1.51,1.61-2.8,1.77a2.76,2.76,0,0,1-2.94-2.63c-.08-1.25.36-3.18,2.33-3C387.27,397.23,389,397.76,389.16,400.88Z" transform="translate(-264.13 -396.04)"/><path class="cls-10" d="M376.07,397c2.19.22,3.59,1.25,3.73,2.95s-1.83,2.37-3.09,2.51a2.83,2.83,0,0,1-3-2.59C373.46,398,375.3,397.79,376.07,397Z" transform="translate(-264.13 -396.04)"/><path class="cls-11" d="M310.93,396.94c1.69.11,3.07.62,3.11,2.52s-1.53,2.58-3,2.81c-1.75.27-2.63-1.16-2.84-2.64C308,397.75,309.25,397,310.93,396.94Z" transform="translate(-264.13 -396.04)"/></svg>