<?xml version="1.0" encoding="utf-8"?>
<!-- Generator: Adobe Illustrator 26.0.3, SVG Export Plug-In . SVG Version: 6.00 Build 0)  -->
<svg version="1.1" id="Layer_1" xmlns="http://www.w3.org/2000/svg" xmlns:xlink="http://www.w3.org/1999/xlink" x="0px" y="0px"
	 viewBox="0 0 800 800" style="enable-background:new 0 0 800 800;" xml:space="preserve">
<style type="text/css">
	.st0{fill:#F6AD3B;}
	.st1{fill:#DBDBDB;}
	.st2{fill:#010101;}
	.st3{fill:#DADADA;}
	.st4{fill:#040404;}
	.st5{fill:#050505;}
	.st6{fill:#030303;}
	.st7{fill:#020202;}
	.st8{fill:#080808;}
	.st9{fill:#FBFCFC;}
	.st10{fill:#FCFCFC;}
</style>
<path d="M385.2,423.7c-1.4,2.8-3.3,2.3-5.2,0.8c-3.3-2.7-5.9-6.1-6.6-10.3c-0.4-2.5-1.3-3.2-3.7-3.2c-33.3,0.1-66.7,0.1-100,0
	c-2.3,0-3.2,0.5-3.1,3c0.1,8.7-0.5,17.3-1.6,25.9c-0.3,2.6,0.2,4.4,2.5,5.8c2.8,1.8,5.1,4.4,6.4,7.5c1.1,1.9,0.4,4.2-1.5,5.3
	c0,0,0,0,0,0c-0.1,0.1-0.3,0.2-0.4,0.2c-2.2,1.1-3.3-0.3-4.3-2.1c-4.2-7.2-11.1-10.1-18.8-11.9c-2.7-0.6-5.6-0.5-7.2,2.2
	c-1.8,2.9-0.2,5.6,1.7,7.7c1.8,1.7,3.7,3.3,5.7,4.8c1.4,1.1,2.2,2.5,1.6,4.4c-0.4,1.6-2,2.7-3.7,2.3h-0.1c-2-0.3-3.7,0.2-4.6,2.1
	c-1,2-0.7,4.4,0.8,6.1c3,3.9,7.1,5.4,11.9,4.8c8.1-0.9,10.1-2.9,11-10.8c0.2-1.9,0.8-3.2,2.9-3.2c2-0.2,3.8,1.2,4,3.2c0,0,0,0,0,0
	c0,0.1,0,0.2,0,0.3c0.6,5-0.8,10-3.9,14c-7,9.8-23.9,15.6-35.3,12.3c-4.6-1.2-8.4-4.5-10.1-8.9c-0.9-2.3-0.1-4.1,2.1-4.7
	s5.4-1.1,5.8,2c0.6,5.8,4.8,5.6,8.6,5.8s7.5-1.1,11.8-2.5c-8.6-2-15.7-5.1-17.1-14.5c-1.5-2.8-0.8-5.5,0.6-8s1.3-4.5-0.1-6.9
	c-2.1-3.5-3.1-7.2-1.9-11.4c2.6-9,13.5-11.6,20.6-6.9c1.3,0.1,2.3,1.4,3.8,0.9c1.3-8,1.3-16.2,1.8-24.3c0.2-3.4-0.6-4.7-4.2-4.5
	c-5.3,0.3-10.6,0-16,0.1c-2.5,0-4.4-0.7-4.3-3.5s1.9-3.5,4.4-3.5c5.5,0.1,11-0.1,16.5,0.1c2.8,0.1,3.5-0.7,3.3-3.6
	c-0.4-7.9-0.3-8.1-7.9-7.4c-8.4,0.7-16.9,1.9-25.3,3c-4.9,0.6-7,3.6-7.1,8.5c-0.2,19.5-0.6,38.9-1,58.4c0,1,0.1,2,0,3
	c-0.2,2.2-1.5,3.2-3.7,3.1s-3.7-1.3-3.2-3.4c2.1-9.4-4.5-12.4-10.9-15.7c-7.9-4-16.3-6.5-24.5-9.6c-1.5-0.6-2.4-0.6-3.1,1
	c-5.1,11.9-15.8,14.6-27,15.4c-19.6,1.3-37.9-3.7-55.1-13c-2.3-1.2-4.8-2.6-3.1-5.7c1.8-3.4,4.3-1.8,6.8-0.5c16,8.7,33,13,51.2,12.2
	c3.8-0.1,7.6-0.9,11.2-2.2c5.6-2.1,9.6-5.8,10.2-12.3c0.3-3.8,2.2-5.5,6.1-3.8c12.6,5.5,26.1,8.8,39.1,17v-23.4c0-7.4,0-15,0.4-22.5
	s3.4-11.1,10.8-12.9c12.5-2.9,25.3-4,38.1-4.6c3.1-0.1,4.3,1.3,4.5,4c0.3,3.8,0.5,7.6,0.6,11.5c0.1,2.1,0.8,3.2,3.3,3.2
	c34-0.1,68-0.1,101.9,0c2.1,0,2.8-1.1,3.7-2.5c5.2-8,13-10,21.8-8.4c8,1.5,12.8,6.6,14.3,14.7c1.5,4.8-0.5,12-4.1,15
	c-1.5,1.2-3.1,2.1-5,0.8c-1.8-1.1-2.5-3.3-1.7-5.3c0.5-1.2,1-2.4,1.7-3.6c2.2-4.5,1.1-8.9-2.9-11.9c-4.6-3.4-11-3-15.1,1
	c-3.5,3.1-4,8.5-1.2,12.2C384.4,418.4,386.5,420.5,385.2,423.7z"/>
<path class="st0" d="M100.9,392c-2,1.8-3.2,4.4-3.2,7c-0.4,6.4-3.3,11.8-7.3,17c-3.7-4.9-6.2-10.3-8.8-15.7
	c-9-19.2-15.4-38.9-13.6-60.6c2.5-31.5,37.2-56,66.6-46.7c5.1,1.5,9.8,4.2,13.8,7.8c2.5,2.3,4.9,3.1,7.3,0.4
	c1.5-1.7,2.3-1.3,3.3,0.3c3.1,4.9,6.2,9.8,8.2,15.4c1,2.7,1,5.6,0.1,8.3c-0.4,1.2-2.1,2.5-0.4,4c-3.4,3-16.7,0.4-18.3-3.8
	c-2.1-5.3-4.7-10.3-7.3-15.3c-0.9-1.7-1.6-4.2-4-3.8c-2.1,0.3-2,2.8-2.4,4.5c-3.6,16.3-13.1,27.3-29.1,32.5
	c-2.3,0.8-4.8,1.6-7.1-0.4c-1.6-11.1-2-22.1,2-32.8c1.5-4.1,0.9-5-3.5-4.5c-5.1,0.5-8.6,3.7-9.8,9.8c-1.8,9.4-0.9,18.8,0.6,28.2
	c0,0.3,0.1,0.6,0.2,1c0.8,3,0.4,6.6,2.4,9c2.2,2.6,5.7,0.4,8.5,1c0.7,0.1,1.3,0.4,1.7,1c0.6,1,0.8,2.2,0.6,3.4
	c-1.6,9.6-0.5,19,0.8,28.5C102.3,389,102.4,390.7,100.9,392z"/>
<path d="M414.8,406.3c1.3-2.8,3.2-2.5,5.2-1c3.5,2.6,5.9,6.4,6.7,10.8c0.4,2.5,1.5,2.8,3.6,2.8c34.6-0.1,69.3-0.1,103.9,0
	c2.8,0,3.3-1.1,3.3-3.5c0.1-7.8,0.5-15.6,0.6-23.5c0.1-4.7,1.8-6.9,7-6.5c11.9,0.9,23.9,1.8,35.6,4.5c8,1.9,11,5.4,11.2,13.6
	c0.5,20.3,0.7,40.6,1.1,60.9c0,2.5,0.1,4.8-3.4,4.7c-3.3-0.1-3.5-2.4-3.6-4.9c-0.3-19.5-0.7-38.9-1-58.4c-0.1-7.3-1.5-9-8.8-10
	c-9.2-1.3-18.4-2.7-27.8-3.1c-2.7-0.1-3.5,0.5-3.5,3.1c0,6.5-0.2,13-0.5,19.5c-0.2,3,1.1,3.9,3.8,3.5c0.7-0.2,1.3-0.2,2,0
	c4.8,1.7,13.9-3.9,14,3.6c0.1,6.8-9,1.9-13.8,3.4c-0.8,0.2-1.7,0.2-2.5,0c-2.5-0.3-3.3,0.7-2.9,3.1c0.5,2.4,0.7,4.9,0.7,7.4
	c-0.2,4.1,1.8,3.8,4.4,2.5c4.6-3.2,11.9-3,16.2,0.4c4.6,3.7,6.4,9.6,3.5,15.2c-2.2,4.2-2.8,7.7-0.4,11.9c1.4,2.4,1.3,5.4-0.4,7.5
	c-2.7,7.6-8.6,11-17.1,12.4c5,1.8,9.1,3.2,13.5,2.6c3.2-0.4,6.5-0.6,6.9-5.4c0.3-3.5,3.7-3,6-2.2s3,2.6,1.8,5.2
	c-3.2,6.9-9.1,9.2-15.9,9.2c-9.7,0-18.7-2.8-26.1-9.6c-4.9-4.5-7.5-10.1-7.2-16.9c0.1-2.5,1.1-4.2,3.8-4.3c3.2-0.2,3.1,2.1,3.2,4.4
	c0.3,7.1,1.7,8.3,10.7,9.6c5.8,0.8,11.5-2.1,13.2-6.7c1.3-3.5-0.2-6.1-3.9-6.2c-2.1-0.1-4.1,0.2-4.8-2.3s1.1-3.9,2.8-5.2
	c1.9-1.4,3.6-2.9,5.2-4.7c1.6-2,2.6-4.5,1.1-6.9c-1.4-2.3-3.8-2.7-6.2-2.2c-7.7,1.4-14.7,4.3-19.3,11.1c-1.3,1.9-2.2,4.6-5.2,2.7
	c-2.8-1.7-2.3-4.2-0.8-6.5c1-1.5,1.9-3.5,3.4-4.2c5.7-2.9,5.1-7.6,4.4-12.7c-1.2-9.1-1.1-9.1-10.1-9.1c-32.7,0-65.3,0-98,0
	c-2.8,0-4.7,0.4-6.4,3.2c-4,6.5-13.1,9.7-21.2,7.8c-7.8-1.9-13-6.5-14.2-14.8c-1.8-5.3,0.1-12,4.3-15.2c1.6-1.2,3.2-1.8,5-0.6
	s2,2.9,1.6,4.9c-0.4,1.3-1,2.5-1.7,3.6c-2.3,4.5-1.4,9.2,2.4,12c4.5,3.6,10.9,3.3,15.1-0.7c4-3.8,4.5-7.9,1.2-12.5
	C415.2,411.2,413.4,409.2,414.8,406.3z"/>
<path class="st0" d="M707.1,351.4c-0.1-12.4-11.4-22.1-24.4-20.8c-4.5,0.4-8.9,1.2-13.3,1.8c-11.2,1.7-16.3-0.9-18.6-9.1
	c-3.1-11.2,1-20.3,10.8-24.2c26.7-10.6,57.6,5.5,65.2,34.4c4.6,17.2,0.3,33.6-6.4,49.5c-0.9,2.4-2.8,4.3-5.2,5.1
	c-1.3-0.7-1-2-0.9-3.1c1.1-10.6-0.4-20.7-6.3-29.8C707.1,354,706.8,352.7,707.1,351.4z"/>
<path class="st1" d="M680.9,508.8c5.3,1,9.5-2.1,14-3.9c7.9-3.2,15.2-7.6,20.8-14.2c2-2.6,5.4-3.6,8.5-2.4c3.2,1.1,3.9,4,3.9,7.3
	c0.1,10.3-0.5,20.5-3.9,30.4c-5.8,16.6-19.1,21.9-34.7,19.4c-19.8-3.1-35-14.3-48.5-28.4c4.2-2.1,8.6-3.7,13.2-4.8
	c4.2,0.5,8.2-0.8,12.2-1.2c2-0.2,3.9-0.7,5.8,0c2.3,1.8,0.7,3.7-0.2,5.2c-2.2,3.6-5.3,6.5-9,8.5c-1.4,0.8-3.5,1.7-2.4,3.7
	s3,0.7,4.5,0c6.9-3.2,11.1-8.8,13.5-15.9C678.9,511.2,678.5,509.1,680.9,508.8z"/>
<path class="st1" d="M144.9,530.8c-13.7,11.1-28.8,17.5-46.8,14.1c-8.4-1.5-14.3-6.5-18.1-14.2c-6-12-6.3-24.9-5.8-38
	c0.1-2.3,1.8-4.2,4-4.6c2.5-0.6,5.2-0.8,7.3,1.7c7.4,8.6,17.1,13.6,27.5,17.4c3.2,1.2,6.4,3.5,10.2,1.5c1.2,0,1.7,0.9,2,1.9
	C127.8,521.2,134.6,527.8,144.9,530.8z"/>
<path d="M90,422.4c4.8-7.5,9.5-14.3,15.3-20.3c1.7-1.8,3.5-3.6,5.9-1.6s1.5,4.6-0.7,6.4c-5,4-6.3,8.8-4.5,15
	c1.1,3.6,1.3,7.5,1.9,11.3c0.4,2.4-0.2,4.4-2.9,5c-2.9,0.6-3.7-1.1-4.1-3.7c-0.5-3.9-1.3-7.8-2.1-12.6c-1.8,3-3.1,5.2-4.5,7.4
	c-2.3,3.9-4,4-7.1,0.8c-17.2-17.9-25.5-40.2-31.1-63.6c-3.6-15.1-1.9-30.1,3.8-44.6c13.3-34.1,50.5-51.6,82.9-38.9
	c2.5,1,4.9,2.2,7.2,3.4s4.5,2.8,3,5.8c-1.7,3.4-4.1,1.7-6.3,0.5c-20.4-10.9-44.2-8.7-61.6,5.9c-13.7,11.4-20.8,26.4-23,43.9
	c-1.7,12.8,0.3,25.2,4.9,37.2c4.1,11.2,9.2,22.1,15.2,32.5C84.2,415.9,86.9,419.4,90,422.4z"/>
<path d="M99.2,343c13.8-0.5,29.8-12.7,33.8-30.5c0.4-1.6,0.7-3.2,0.9-4.9c0.2-1.8,0.3-3.4,2.5-3.7s3.4,0.9,4.3,2.6
	c3.1,5.7,6.3,11.3,8.4,17.5c0.9,2.8,2.2,4.4,5.6,4.1c4-0.4,7.9,2,12.1,1.1c6-0.7,5.1-5,4-8.6c-2.2-7.1-5-14-7.5-21.1
	c-0.8-2.2-2.9-4.6-0.1-6.8s4.9,0.1,7,1.7c11.8,9,21.7,20.3,28.9,33.2c1.3,2.2,2.6,4.6-0.4,6.5c-3.2,2-4.4-0.5-5.7-2.8
	c-5.1-9.2-11.6-17.5-19.3-24.6c1.5,4.9,2.7,8.6,3.7,12.4c3.3,12.1-2.3,18.5-14.7,16.7c-4.4-0.6-8.8-1.4-13.3-0.1
	c-2.7,0.8-3.7-1.3-4.5-3.5c-1.7-4.8-3.7-9.5-6-15.5c-5.5,15.4-14.8,25.5-28.9,31c-2.6,1-2.3,3.1-2.6,4.9c-2.2,12-2.2,24.2,0,36.2
	c0.2,1.1,0.4,2.3,0.7,3.4c0.5,2.2,0.3,4.1-2.1,4.9c-2.6,0.8-4.1-0.6-4.7-3c-0.2-0.6-0.3-1.3-0.4-2c-0.6-8.5-2.2-16.9-2-25.5
	c0.1-3.8,1.8-7.4,1-11.3c-1.2-2-2.2-3.9-5.1-4.1c-3-0.3-4.4-2.8-5.2-5.5c-3-10.1-2.6-20.4-1.2-30.6c0.4-3,2-6.2,5.8-5.5
	s4.2,3.9,3.7,7.1c-1.1,7.7-1.1,15.6,0.1,23.3C98.2,341,98.2,342.2,99.2,343z"/>
<path d="M664.1,428.3c-20.9-0.6-38.3-16.2-43.1-38.3c-0.7-2.9-1.2-5.9-1.5-8.8c-0.4-7.2-0.6-13.4-8-18.6c-7-4.9-6.9-14.4-5.6-22.7
	c3.5-22.4,15.8-37.9,36.6-46.7c2.2-0.9,5-2.3,6.3,1.2c1.2,3.1-0.9,4.4-3.5,5.4c-19.2,7.7-29.6,22.3-32.9,42.3
	c-1,6,0.1,11.6,4.2,16.4c0.6,0.7,1.2,1.9,2.3,1.3c0.5-0.3,0.7-1.4,0.8-2.2c0.4-2.3,0.8-4.6,1-6.9c0.3-2.5,1.2-4.3,4.1-3.7
	c2.7,0.5,3.3,2.5,2.8,5c-1.6,7.5-2.2,15.2-1.8,22.8c0.6,12.6,3.5,24.5,12.2,34c9.8,10.9,22,15.1,36.5,10.7c2.1-0.6,4.4-1.6,5.3,1.4
	c0.8,2.6-0.4,4.3-3.1,5.3C672.7,427.6,668.4,428.3,664.1,428.3z"/>
<path d="M745.4,501c0.3,10.2-0.4,20.3-3.9,30c-9.5,26.6-35.9,39.5-64.3,31.5c-18.8-5.3-33-17.5-45.8-31.5c-1.5-1.7-1.9-3.7-0.1-5.3
	c2-2,3.9-1.1,5.5,0.8c7.2,7.9,14.9,15.3,24,21c11.1,7,23.1,11.3,36.3,10.2c22.7-2,38.1-18,40.9-41.2c2.1-17.2-1.2-33.8-4.5-50.4
	c-0.6-2.8-1.2-5.5,2.3-6.4s3.9,2.1,4.4,4.5C742.9,476.2,745,488.5,745.4,501z"/>
<path d="M58.6,504.6c0.2-14.2,2.3-27.2,5.1-40c0.6-2.5,0.5-5.9,4.5-5c3.7,0.8,3,3.7,2.3,6.4c-2.6,11.3-4.4,22.9-5.2,34.5
	c-0.6,9,0.4,18,3.1,26.6c7.9,24.5,31.4,36,57.7,28.2c16.1-4.7,28.2-15.3,39.4-27.1c0.5-0.5,0.9-1,1.3-1.5c1.7-1.9,3.6-3.3,5.9-1
	c2,2,1.2,3.8-0.5,5.6c-10,11.1-21,20.9-34.7,27.2c-12.4,5.7-25.4,8-38.9,5C78.6,559.2,64,543.3,60.1,522
	C59.1,516.2,58.6,510.4,58.6,504.6z"/>
<path d="M741,353c0.1,12.1-3.9,26.5-10.6,40.3c-1.7,3.4-3.2,6.9-4.5,10.5c-1.5,4.2-1.9,8.5,0.3,12.6c1.3,2.4,0.7,4.3-1.6,5.3
	s-3.8-0.3-4.8-2.3c-3.2-6.2-2.6-12.6-0.3-18.9c1.8-5,4.2-9.7,6.4-14.6c10.4-23.7,12.3-47.6-0.2-71.1c-11.3-21.1-35.9-34.3-60.7-27.2
	c-2.2,0.6-4.4,1-5.3-1.9s0.8-4.1,3.4-4.9c22.6-7.3,50.3,2.9,64.8,24.1C737.2,318.4,741.1,333.4,741,353z"/>
<path d="M144.9,530.8c-6.7,1-10.7-3.5-14.8-7.5s-5.5-9.3-6.9-14.5c0.2-3.6,1.8-8.1,0.2-10.6c-1.2-2-6.4-1.4-9.7-2.4
	c-2.7-0.9-5.2-2.1-7.7-3.4c-1.8-0.6-2.7-2.6-2.1-4.4c0.1-0.2,0.2-0.4,0.3-0.6c1.1-2.3,3.2-2.4,5.1-1.2c9.6,5.5,18.9,4.7,29.1,1.1
	c4.1-1.5,5.6-3.6,7.3-6.6c0.5-0.9,1.1-1.7,1.7-2.4c5.2-5.5,10.8-10.8,15.6-16.8c4.1-5.1,11.8-4.8,15.9-0.3s3.4,12-1.3,16.1
	c-1.6,1.4-3.3,2.5-5.2,0.6c-1.6-1.7-1.7-3.7,0-5.3c2.3-2.1,3.6-4.3,0.8-6.6c-3.2-2.6-5.5-0.2-6.9,2.2c-3.1,5.1-7.3,9-11.6,12.9
	c-6.6,6-8,15.3-3.6,22.2c4.5,7.1,12.5,8.8,19.4,4.1c2.3-1.6,4.6-3.5,6.7-0.3s-0.9,4.8-2.9,6.3c-3.9,2.9-8.4,3.7-13.2,3.8
	c-4.5,1.2-8-1.1-11.4-3.4c-4.6-4.1-8-8.8-8.9-15.1c-0.4-2.8-2-2.9-4.3-2c-4,1.5-4.9,4.6-5,8.3c-0.1,2.2,0.3,4.3,1,6.4
	c1.8,5.5,5.8,9,10.6,11.8C147.1,525.6,147.4,527,144.9,530.8L144.9,530.8z"/>
<path d="M680.9,508.8c-2.2,9.5-6.8,17.1-16,21.2c-2.1,1-4.4,2.5-6-0.4s0.4-4.5,2.9-5.7c5.4-2.4,9.2-6.3,10.9-12.1
	c-1.1-2.1,0.1-4.2,0-6.4c-0.1-2.3-0.2-4.7-1.7-6.6c-1.3-1.8-3.4-2.8-5.6-2.6c-2.1,0.3-1.7,2.5-2.3,4c-2.1,4.9-2.9,10.7-9.1,12.7
	c-3.9,2.5-8.4,3.9-13,4.2c-4.9-0.2-9.5-2.1-13.2-5.3c-1.5-1.3-2.3-2.9-0.8-4.8s3.1-2,5.2-0.8c9.1,5.3,14.5,4.9,19.8-1.5
	s4.8-15.9-1.3-22.3c-4.7-4.9-10-9.2-13.7-15.1c-1.4-2.2-3.9-3.6-6.3-1.2c-2.1,2-1.6,4.1,0.5,6s2.4,4.1,0.2,6s-4,0.1-5.5-1.4
	c-4.3-4.3-4.5-11.6-0.4-15.8s11.9-4.6,15.5,0.5c6,8.6,15.9,13.8,20,24c1,2.5,4.2,0.5,6.4,1.8c5.1,3.1,10.9,3.6,16.9,2.7
	c3.4-0.5,6.8-1.7,9.8-3.4c2.3-1.3,4.5-1.9,5.9,0.9s-0.6,4.3-2.8,5.5c-4.3,2.5-9.2,3.9-14.2,4.2c-2.3,0.1-3.2,0.7-2.7,3.3
	C680.6,503.2,680.8,506,680.9,508.8z"/>
<path class="st0" d="M254,438.8c-2.4-0.3-4.9-0.7-7.3-0.9c-4.7-0.4-8.4,1.2-10.9,5.4c-2.7,4.6-2.1,9.1,0.7,13.1c2.1,2.9,3.1,5,0.2,8
	c-1.9,1.9-1.6,5-1.8,7.6c-2.4-1.2-4.8-2.2-7.1-3.5c-2.3-1.4-3.8-3.9-3.7-6.6c-1.1-18.1-1.2-36.2-1.1-54.4c0-4.9,2-8,6.8-8.9
	c6.7-1.2,13.4-2.5,20.2-2.5c2.1,0,4.2-0.1,4.3,2.8c0.1,3.2-2.5,2-4,2c-4.6,0.1-9.3,0-14,0.1c-5.3,0-6.2,1.1-6.2,7.2
	c0,5.8,1.2,7.2,6.4,7.1c5-0.1,9.9-0.5,14.9-0.9c2-0.1,3.6-0.2,3.5,2.6C254.5,424.2,254.2,431.5,254,438.8z"/>
<path class="st0" d="M569.1,473.9c0-4.3-0.1-8.6-3.4-12.1c-1.9-2,0.6-3.2,1.5-4.6c4.8-7.3,2.9-16.3-4.3-18.8
	c-4.1-1.4-8.5-0.7-12.7,0.4c0-1.7-0.1-3.3-0.2-5c-0.1-2.7,1.2-4,3.9-4c3.2,0,6.3,0,9.5,0c3.8,0,7.6,0.1,8-5.1
	c0.5-5.5-2.6-10.3-7.2-11c-3.1-0.4-6.3-0.6-9.4-0.5c-3.7,0.1-5.2-1.5-4.7-5.2c0.2-1.5,0.4-3,0.4-4.5c0-3.8,1.9-5,5.4-4.5
	c4.9,0.7,9.9,1.1,14.8,1.8c6.4,0.9,8,2.5,8.2,9c0.3,9.1,0.2,18.3,0.2,27.4s0,18.3,0,27.4C579.1,474.2,578.4,474.8,569.1,473.9z"/>
<path class="st2" d="M676.3,459.1c-10.4,0-17.1-1.2-23.3-4.2c-5.1-2.5-9.4-6-10.3-12c-0.5-3.4-1.7-3.2-4-1.8
	c-9.9,5.8-19.8,11.6-29.6,17.4c-2.3,1.3-4.8,3.5-6.8,0.1c-1.8-3.1,0.7-4.7,3.1-6.2c12.8-8,26-15.5,39.4-22.4
	c2.1-1.1,4.2-2.4,6.3-0.1c1.9,2.1,0.5,3.5-0.6,5.6c-1.8,3.4-1.2,7.1,1.7,10.1c4.2,4.4,9.5,6,15.2,6.5c18.7,1.3,34.1-5.4,46.6-19.2
	c1.6-1.8,3.1-4.7,6-2.3c2.7,2.2,1.3,4.6-0.6,6.9C707,451.4,691.5,458.5,676.3,459.1z"/>
<path class="st2" d="M707.1,351.4c8.3,11,10.4,23.3,8.2,36.6c-0.1,0.8-0.3,1.6-0.5,2.4c-0.8,2.4-1.7,5.1-5,4.1s-2.5-3.6-1.8-6.1
	c6.6-23.1-10.2-46.1-34.5-44.7c-6.6,0.4-13.3,1-19.9-0.7c-5.5-1.4-10.2-3.9-13.1-9.1c-4.3-5-4.8-9.1-1.7-14.7
	c0.7-2.8,2.6-3.9,5.2-2.9s1.9,2.9,1.5,5c-1.7,7.3,1.5,12.5,9,14.6s15.2,0.5,22.8,1C689.2,337.7,699.4,341.8,707.1,351.4z"/>
<path class="st2" d="M188.9,378.2c0,24.9-21.9,46.7-48.1,47c-2.4,0-5,0.1-5.1-3.2s2.5-3.7,5.1-3.8c18.8-1.3,34.3-13.4,39.5-30.7
	c2.3-7.7,2-15.9-0.8-23.5c-0.8-2.2-2.1-4.8,1.1-5.9c2.9-1,4.6,0.7,5.6,3.5C188.1,366.9,189,372.6,188.9,378.2z"/>
<path class="st0" d="M414.8,406.3c-0.2,2.3,0.9,4,2.5,5.6c4.3,4.6,4.1,10.2-0.1,14.5c-4.8,5-12.6,5.4-17.9,1
	c-4.3-3.4-5.1-9.3-2-14.2c0.7-0.9,1.3-1.9,1.7-3c0.5-1.5-0.2-3.1-1.6-3.8c-1.5-0.9-2.5-0.1-3.5,0.9c-4.2,4-5,9.1-5.1,14.5
	c-2.3-1.6-2.8,0.4-3.7,1.8c0.1-2-0.6-3.9-2-5.3c-4.6-4.8-4.7-10.5-0.6-15c4.3-4.8,12.2-5.5,17.6-1.5c5,3.7,5.9,9.4,2.5,14.9
	c-0.4,0.5-0.8,1-1.2,1.6c-0.8,1.6-0.7,3.2,0.8,4.5c1.7,1.5,3.1,0.5,4.3-0.8c3.8-4,4.6-9,4.8-14.2
	C412.7,408.2,414.1,407.5,414.8,406.3z"/>
<path class="st0" d="M638.8,319.3c-1.7,5.2-0.4,10,1.7,14.7c-9.5,2.6-18.8,5.5-24.7,15.1c-1.7-4-0.8-7.3,0.2-10.5
	c3.3-10.4,8.8-18.2,21-18.5C637.6,320.1,638.2,319.6,638.8,319.3z"/>
<path class="st3" d="M144.9,530.8c1.6-3.3,0.6-5.4-2.8-6.9c-5.3-2.1-9.2-6.5-10.7-12c1.2-1.2,2.7-1,4.1-0.8
	c4.8,0.9,9.7,1.3,14.6,1.8c3.4,2,7.1,3.4,11,4.2C156.5,522.6,151,527.2,144.9,530.8z"/>
<path class="st4" d="M396.8,485.6v-10.5c0-2.3,0.5-4,3.2-4.1s3.8,1.3,3.8,3.6c0.1,7.5,0.1,15,0,22.5c0.2,1.8-1.2,3.5-3,3.7
	c-0.3,0-0.5,0-0.8,0c-2.1-0.1-3.2-1.4-3.2-3.7C396.9,493.3,396.8,489.4,396.8,485.6z"/>
<path class="st5" d="M647.4,363.2c0,2.5,0.1,5,0,7.4c0.1,1.8-1.2,3.3-3,3.4c-0.2,0-0.3,0-0.5,0c-2.3,0-3.7-1.3-3.4-3.4
	c0.5-3.8-1.4-5.8-4.2-7.6c-1.7-1.1-2.5-2.7-1.6-4.7c0.4-1.4,2-2.3,3.4-1.8l0.2,0.1c2.3,0.8,2.3-0.5,2.6-2.1c0.5-2.2,2.2-2.8,4.2-2.4
	s2.6,1.8,2.6,3.7v7.5L647.4,363.2z"/>
<path class="st4" d="M403.2,342.9v11c0,2.2-1.1,3.5-3.2,3.6c-2.3,0-3.7-1.2-3.8-3.6v-22.4c0-2.4,1.4-3.6,3.8-3.5s3.2,1.5,3.2,3.6
	C403.2,335.3,403.2,339.1,403.2,342.9z"/>
<path class="st6" d="M687,367.1v7.4c0,2.4-1.4,3.6-3.8,3.5c-2.2-0.1-3.6-1.4-3.2-3.5c0.7-3.6-1-5.5-3.8-7.1c-1.6-1-2.8-2.5-2.1-4.6
	c0.4-1.6,2-2.6,3.6-2.2c0,0,0,0,0,0l0.3,0.1c1.7,0.4,2.3-0.2,2.6-1.9c0.3-2.2,2-3,4-2.7c2.3,0.3,2.8,2,2.8,4c0,2.3-0.2,4.6-0.3,6.9
	L687,367.1z"/>
<path class="st6" d="M364.4,365.1c0,1.4-0.8,2.7-2.1,3.2c-1.3,0.8-3.1,0.5-4.1-0.7c-4.3-5.3-9.2-10.1-14.5-14.4
	c-1.6-1.3-1.4-3.4-0.3-5c0.8-1.3,2.5-1.8,3.8-1c0,0,0,0,0,0c0.2,0.1,0.4,0.2,0.5,0.4c6,4.5,11.4,9.8,15.9,15.7
	C364,364,364.2,364.5,364.4,365.1z"/>
<path class="st7" d="M457.4,477.6c-0.6,3.2-2.3,5-4.9,3.2c-6.3-4.3-11.8-9.7-16.2-15.9c-1-1.1-1-2.8,0.1-3.8c0,0,0,0,0,0l0.2-0.2
	c1.6-1.4,3.7-1.8,5-0.3c4.5,5.3,9.5,10.2,14.9,14.6C457,475.8,457.1,477,457.4,477.6z"/>
<path class="st6" d="M127.6,366.9c-2.4-0.6-4-1.9-3-4.6c1.2-3.5,1.3-7.2,0.3-10.8c-0.5-1.8-0.2-3.4,1.7-4.2c1.8-0.7,3.8-0.5,4.6,1.5
	c0.9,2.4,2.1,2.4,4.1,1.4s3.6,0.3,4.4,2.2c0.8,1.5,0.2,3.3-1.3,4c0,0-0.1,0-0.1,0c-0.2,0.1-0.5,0.2-0.8,0.3c-3.7,0.9-5.5,3-6,6.8
	C131.3,365.6,129.7,366.7,127.6,366.9z"/>
<path class="st6" d="M439.4,368.9c-1.3-0.4-2.7-0.7-3.4-2c-0.6-1.2-0.4-2.7,0.5-3.7c4.4-5.8,9.7-11,15.5-15.3c1.3-1,2.7-1.3,4,0
	c1.5,1.5,2,3.7,0.6,4.9c-5.5,4.8-10.7,9.9-15.5,15.3C440.7,368.5,439.9,368.6,439.4,368.9z"/>
<path class="st7" d="M346,481.4c-1.3,0-2.5-0.7-3-1.9c-0.7-1.6-0.7-3.4,0.8-4.5c5.2-4.1,10-8.8,14.2-13.9c1.3-1.7,3.2-1.6,5-0.6
	c1.4,0.7,2,2.3,1.3,3.7c-0.1,0.2-0.2,0.4-0.4,0.6c-4.6,6.1-10,11.5-16.2,16C347.2,481.2,346.6,481.4,346,481.4z"/>
<path class="st6" d="M665.8,408c-4.8,0.3-9.6-0.4-14.2-1.8c-2.5-0.8-3.6-2.3-2.9-4.8s2.6-2.7,4.7-2c5.6,1.7,11.4,2.3,17.2,1.6
	c2.9-0.3,5.1,0.5,5.2,3.7s-2.5,3.1-4.6,3.2C669.5,408.1,667.6,408,665.8,408z"/>
<path class="st2" d="M163,360.9c1.5-3.6,1.2-7.6,0.1-11.7c-0.4-1.6,0.4-2.9,2.1-3.4s3.3-0.5,3.9,1.1c1,2.5,2.3,2.9,4.7,2.1
	c2-0.7,3.6,0.3,4.2,2.4c0.6,1.7-0.3,3.5-2,4c0,0,0,0,0,0c-0.2,0.1-0.4,0.1-0.5,0.1c-3.6,0.8-5,3-5.6,6.4c-0.4,2.5-2.2,3.5-4.8,3.1
	C163.1,364.7,162.8,363.2,163,360.9z"/>
<path class="st6" d="M185.1,479.8c-0.4-2.4-0.2-5.1,3.5-5.2s3.3,2.9,3.5,5.4c0.6,6.2-1.9,12.4-6.6,16.4c-1.9,1.7-4,3.1-6,0.9
	c-1.8-2-1.1-4.3,1.1-6C184,488.6,185.8,484.2,185.1,479.8z"/>
<path class="st7" d="M611.9,480.8c0-1.2,0.1-2.3,0.2-3.5c0.3-1.8,1.4-3,3.4-2.8s3.8,1.3,3.4,3.4c-0.9,6,1,10.6,5.6,14.5
	c1.3,1.3,1.3,3.5,0,4.9l-0.1,0.1c-1.4,1.5-3.3,1-4.9-0.2C614.4,493.3,611.6,487.2,611.9,480.8z"/>
<path class="st6" d="M140.3,403.2c-5.6,0.2-11.1-2.1-15-6.1c-1.7-1.7-2.3-3.8-0.6-5.7c1.8-2.1,3.7-1.5,5.5,0.4
	c2.5,2.9,6.3,4.6,10.1,4.4c3-0.1,6.1,0.1,5.9,4.1C146,404.4,142.3,402.6,140.3,403.2z"/>
<path class="st6" d="M650.9,386.8c-0.1-4.2,1.2-8.3,3.7-11.7c1.1-1.5,2.7-2.5,4.7-1.3c1.7,0.9,2.4,2.9,1.5,4.6
	c-0.1,0.2-0.2,0.3-0.3,0.5c-1.4,2.3-2.6,4.6-2.5,7.3s-0.1,5.2-3.8,4.9S650.9,388.1,650.9,386.8z"/>
<path class="st8" d="M163.1,382.5c-2.5,0.1-3.9-1.2-3.8-3.2c0.1-2.6,2-4,4.5-4.4c2.1-0.3,3.7,0.7,3.7,2.9
	C167.6,380.8,165.4,382,163.1,382.5z"/>
<path class="st9" d="M99.2,343c-2,0.2-1.9-1.3-2.2-2.6c-1.8-7.8-1.9-15.9-0.4-23.7c0.6-2.9,0.9-5.6-2.6-6.3s-3.8,2.4-4.2,4.8
	c-1.6,8.8-1.5,17.9,0.4,26.7c1.7,8.5,1.9,8.6,10.4,8.4c-0.2,1.6-0.4,3.2-0.6,4.8c-11.1,2.3-11,2.3-12.9-8.8c-1.5-9-2.6-18.1-2-27.3
	c0.8-10.6,6.9-16.3,15.8-15.1c3,0.4,4,1.1,2.2,4.2c-3.2,5.2-3.9,11.3-4,17.3C98.9,331.4,99.1,337.2,99.2,343z"/>
<path class="st10" d="M653.9,513c5.9-5,8.6-11.6,8.6-19.3c11.3,3.5,13.4,7.3,10.2,18.3l-13.2,1.7C657.6,513.9,655.6,514.7,653.9,513
	z"/>
<path class="st10" d="M150.1,513c-5,2.7-9.9-0.2-14.8-0.4c-1.3-0.1-2.6-0.3-3.9-0.6c-0.4-1.1-0.7-2.2-1-3.3
	c-1.5-8.5,0.9-11.8,11.1-14.9C141.3,501.1,144.4,508.2,150.1,513z"/>
</svg>
