<?xml version="1.0" encoding="utf-8"?>
<!-- Generator: Adobe Illustrator 26.0.3, SVG Export Plug-In . SVG Version: 6.00 Build 0)  -->
<svg version="1.1" id="Layer_1" xmlns="http://www.w3.org/2000/svg" xmlns:xlink="http://www.w3.org/1999/xlink" x="0px" y="0px"
	 viewBox="0 0 817.2 817.2" style="enable-background:new 0 0 817.2 817.2;" xml:space="preserve">
<style type="text/css">
	.st0{fill:#DBDBDB;}
	.st1{fill:#F6AD3B;}
	.st2{fill:#010101;}
	.st3{fill:#020202;}
	.st4{fill:#D9D9D9;}
	.st5{fill:#030303;}
	.st6{fill:#040404;}
	.st7{fill:#070707;}
	.st8{fill:#080808;}
	.st9{fill:#090909;}
	.st10{fill:#B3C2BA;}
	.st11{fill:#030202;}
</style>
<path class="st0" d="M532.4,680.5c-9.4,5.7-19.5,4.5-29.7,3.2c-2.3-0.3-4.7-0.2-7-0.3c-2.6-5.7,0.2-11.3,0.3-16.9
	c0-3.2,0.5-6.4,0.6-9.6c0-1.1,0.2-2.7-1.4-2.8s-1.7,1.5-1.9,2.6c-1,7-1.7,14.1-2.2,21.2c-0.1,2,0.3,4.1-1.5,5.7
	c-6.6-2.2-13.6-2-20.4-2.9c-22.3-3.2-44.5-6.7-66.4-11.9c-2.9-0.7-6-1-8.9-1.5c-2.7-1.8-2.5-4.7-2.6-7.3c-1-26.9-2.5-53.8-3.9-80.8
	c-0.5-8.8-0.9-17.6-1.2-26.4c0-1.2-0.1-2.4-0.2-3.5c-0.2-1-0.4-2.3-1.6-2.3c-1.5,0-1.7,1.5-1.6,2.7c0.7,6.3-0.1,12.6,0.7,18.8
	c1.3,9.3,1,18.6,1.5,27.9c0.9,17.4,2.3,34.8,2.4,52.3c0,5.3,1.2,10.5,1.1,15.7c-0.1,2.7,2.1,4.1,3.4,6c-1.5,1.3-2.5,2.6-1.7,4.8
	c0.5,1.6,0.7,3.3,0.6,5c-0.2,3.8-1.1,6.1-6.2,4.7c-12-3.2-24.2-5.7-36.3-8.4c-1.3-2.2-0.7-4.6-0.5-7c1.4-16.6,2.5-33.1,3-49.7
	c0.4-11.5,1-23,0-34.5c-0.6-7.2-3-13.9-3.5-21c-0.9-12.4-0.9-24.8-0.1-37.1c0.6-9.3,1.2-18.6,1.7-27.9c0.1-1.1,0.4-2.7-1.2-2.9
	s-1.9,1.3-2,2.4c-0.4,5.5-3.8,6.6-8.6,7.1c-22.6,2.3-45.2,4.5-67.8,6.7c-3.2,0.4-6.3,1.3-9.1,2.8c-5.3-1.7-11-1.7-16.2,0.1
	c-1.1,0.1-1.9-0.6-2.8-1c-8.2-3.6-9-5.4-6.4-13.9c6.4-20.6,13.2-41,19.9-61.6c5.6-17.1,10.9-34.3,16.7-51.4
	c2.5-7.4,3.4-7.9,10.6-5.3c5.8,2.1,11.5,4.2,17.1,6.5c7.1,2.8,7.2,3.3,6.1,11c-1.6,10.6-3.4,21.1-4.9,31.7c-0.7,5.3-0.4,5.6,4.9,4.8
	c2,2.3,4.9,2.9,7.4,4.3c3.5,0.9,6.5-0.1,9.6-1.6c15-7.4,30.2-14.2,45.4-21.2c1.2-0.6,2.4-1.2,3.9-0.9c2.9,1.2,4.5-0.8,6.2-2.6
	c4.1,0.5,5.4,3.5,6.2,6.9c-1.3,3.3-2.3,6.7-1,10.3c-5.5,23.6-6.1,47.6-5.8,71.8c0,3.8,0.6,7.1,4.6,8.7c0.3,2.2-0.8,4.7,1.9,6.2
	c1.4,2.7-0.6,4.9-1.1,7.2c-0.4,1.6-1.7,3.6,0.6,4.4s2.6-1.7,3.2-3.2c7.4-19,16.1-37.4,25.3-55.6c14.8-29,31-57.3,46.6-85.9
	c0.4-1.1,1.2-2.1,2.3-2.6c7.9,0.6,15,3.6,21.7,7.4c3.2,1.8,6.2,3.7,9.8,4.6c-3.1,2.4-2.8,4.4-0.1,7.2c10.2,10.9,19.9,22.3,27.4,35.3
	c1.6,3,3.8,5.6,6.4,7.8c1.3,3.3,2.7,6.7,4.1,10c-2.5,2.4-3.1,5.3-2.7,8.8c4.3,33.5,7.3,67,10.9,100.6c1.7,15.3,3.4,30.7,5.2,46
	c0.4,3.3,1.3,6.3,3.7,8.7c0.1,2.5,0.1,4.9,0.2,7.4c-2.7,3-3.9,6.6-4.7,10.5c-2.1,10.3-5,20.5-7.3,30.7
	C533.8,671.8,533.4,676.2,532.4,680.5z"/>
<path class="st1" d="M503.1,335.8c-7.6,9.8-18.3,16.7-30.4,19.6c0.2-5.6-0.8-10.5-4.4-14.6c-1.4-1.6-0.5-3.2-0.1-4.8
	c0.5-2,1.4-3.8,1.9-5.8c1.6-7.2,4.4-11.6,13.4-11.8c10.7-0.2,18-9.5,18.8-20.6c0.7-10.2-6.5-20-16.4-23c-3.5-1-7.5-0.1-10.7-2.6
	c-2.5-3.5-1.7-5.9,2.3-7.8c3.2-1.6,6-3.8,8.4-6.5c-4.1,1.8-8.3,3.4-12.4,5.3c-2.4,1.3-5.2,1.4-7.8,0.4c-5.9-2.2-11.9-3.8-18.1-4.9
	c-21.1-4.1-37.4-16-50.6-32.6c-6.4-8.1-11.9-17-16.2-26.4c-1.3-2.8-1.5-4.1,2.2-5.2c16.5-4.8,33.1-8.7,50.5-7
	c5.9,0.5,11.6,2.6,16.5,6c13.8,9.6,26.7,20.4,37.6,33.2c0.7,0.9,1.2,2.4,2.9,2c2.5-0.3,3,1.9,3.9,3.3c12.4,19.7,20.7,40.9,21.5,64.3
	c0.4,10.3-0.8,20.7-5.7,30.1C507.7,329.4,506.9,333.8,503.1,335.8z"/>
<path d="M341.7,281.3l1,0.4c2.4,3,0.9,5.4-1.4,7.4c-11.8,10.5-22.8,21.8-34.7,32.2c-1.3,1.1-3.1,2.5-1.7,4.2
	c4.1,5.2,8.2,10.5,13.4,14.7c-2.1-4.1-5.6-7-8.2-10.6c-3.3-4.4-3.5-5.8,0.4-9.6c8.9-8.6,17.8-17.2,27.3-25.2c3.5-3,5.4-2.6,7.2,1.1
	c0.4,2.8-1.6,4.3-3.4,5.9c-7.6,7.1-15.1,14.1-22.7,21.2c-0.9,0.8-2.9,1.5-1.3,3.1c5.7,5.6,9.3,13.4,16.9,17.2
	c1.7,0.9,2.9,1.9,4.8,0.1c1.2-1.2,3.2-1.1,4.3,0.1c0.1,0.1,0.1,0.1,0.2,0.2c1.3,1.2,1.3,3.3,0.1,4.5c-0.2,0.2-0.3,0.3-0.5,0.5
	c-2.4,2-3.1,4.5-3.5,7.5c-1.1,10.4-6.1,16.1-16.4,18.8c-2.6,0.6-5.3,1.1-8,1.5c-2.4,0.4-4-0.8-4.3-3.2s1.4-3.4,3.4-3.6
	c3-0.3,6-0.9,8.9-1.9c6.4-2.4,9.7-6.8,9.8-13.4c0-2.3-0.7-4.2-3.1-5.2c-4.6-1.7-11.9-0.3-16.4,3.6c2.4,2,5,1.7,7.5,1s4,0.4,4.6,2.6
	s-0.9,3.4-2.9,4.1c-4.5,1.7-9.7,1-13.5-2c-3.6-2.6-4.3-6.7-1.3-10.2c2-2.3,1.9-3.5-0.1-5.7c-7.5-8.5-7.9-8.5-14.3,1.2
	c-5.8,8.7-5,13.2,3.1,19.8c4.3,3.5,8.5,7.2,12.6,11c2.2,2,5.6,4.4,2.7,7.5c-3.1,3.3-5.4-0.3-7.5-2.4c-7.6-7.8-16.6-13.8-24.8-21.3
	c-1,2.6-1.9,4.6-2.7,6.6c-0.5,1.8-2.3,2.8-4.1,2.3c-0.1,0-0.3-0.1-0.4-0.1c-2-0.8-2.6-2.6-1.8-4.6c1.4-3.8,2.6-7.7,4.4-11.4
	c2.1-4.5,5-2.5,7.8-0.1c1.6-7.8,6-13.8,11.5-18.9c1.9-1.8,2.5-2.8,0.4-4.8c-2.5-2.4-1.7-4.7,0.7-6.9c12.9-12,25.8-24,38.7-36.1
	C336.6,282.2,337.9,278.8,341.7,281.3z"/>
<path d="M260,515.2c0.2-3.5,2.8-3.9,5.4-4.1c24.5-2.4,49-4.9,73.5-7.1c3.8-0.3,5.3-1.5,4.9-5.1c0-0.3,0-0.7,0-1
	c0.1-2.6,0.8-4.9,4-4.6c3,0.3,2.9,2.8,2.7,5.1c-0.8,12-1.9,24-2.3,36c-0.5,14.4-0.5,28.7,2.8,43c3.1,13.3,1.7,27,1.3,40.6
	c-0.5,18.3-1.9,36.6-3.4,54.9c-0.2,1.2-0.5,2.3-0.9,3.4c-4.9,1.6-6.2,0.5-5.8-4.9c1.9-25.7,4-51.4,3.6-77.2
	c-0.1-7.1-1-14.2-2.6-21.1c-3-12.5-2.1-25.3-1.8-38c0.2-8.1,0.7-16.2,1.1-24.7l-63.8,6.3c-4.5,0.5-9.1,0.9-13.6,1.4
	C262.6,518.4,260.8,517.8,260,515.2z"/>
<path d="M305,436.4c-1.3,1.9-2.8,3.7-5.4,2.3c-2.3-1.2-1.6-3.4-1.3-5.4c1.9-12.2,3.7-24.5,5.8-36.6c0.5-3.1-0.1-4.5-3.1-5.6
	c-7.7-2.7-15.2-5.5-22.7-8.6c-2.6-1.1-3.7-0.9-4.6,2c-12.8,39.6-25.6,79.2-38.6,118.8c-2,6.1-1.2,7.5,5.2,8.9c2.1,0.4,2.5,2,3.5,3.3
	c-0.9,2-1.7,4.2-4.6,3.7c-4.4-0.7-8.8-1.6-10.8-6.4c-1.7-4-1-8,0.3-11.9c10.7-32.8,21.3-65.6,32-98.4c2.2-6.8,4.3-13.6,6.7-20.2
	c1-2.7,0.6-4.1-2.3-4.6c-0.8-0.2-1.6-0.5-2.4-0.9c-2.2-0.9-4.1-2-2.9-4.9c1.1-2.6,3.1-2.5,5.5-1.5c13.2,5.2,26.5,10.2,39.7,15.3
	c7.2,2.8,7.2,2.8,6.1,10.3C309.1,409.3,307,422.9,305,436.4z"/>
<path d="M412.2,383c1,3.9,1.9,7.7,2.8,11.4c0.6,2.5-0.1,4.6-2.6,5.3c-2.7,0.8-4.1-0.9-4.7-3.3c-0.9-3.6-1.9-7.1-2.5-10.8
	c-0.3-1.9-0.8-2.6-2.8-2.6c-31.5-0.3-50.5-20.6-56.1-46.5c-0.2-0.5-0.5-1.1-0.8-1.5c-2.1,1.9-4,3.8-6,5.5c-1.6,1.4-3.5,1.6-5,0
	s-1.5-3.9,0.2-4.9c10.4-5.8,10.5-15.8,11.1-25.7c0.2-2.7,1.1-5.3,1.7-7.9c0.6-2.4,1.8-4.3,4.6-3.5s2.8,3.1,2.1,5.4
	c-2.7,9-3.3,18.5-1.5,27.7c3.7,20.1,13.2,36.2,34.1,42.2c21.8,6.3,41.6,1.7,58.7-13.5c0.3-0.2,0.5-0.5,0.7-0.7
	c1.6-2,3.6-3.7,5.9-1.5c2.5,2.4,0.7,4.5-1.1,6.5c-7.6,7.9-16.9,13-27.3,16C419.9,381.5,416.2,382.1,412.2,383z"/>
<path d="M460.3,382.6c-6.4,14.2-14.6,27.5-22,41.1c-18.7,34.1-37.3,68.3-51.3,104.7c-0.9,2.2-1.9,4.3-4.7,3.3
	c-3.2-1.1-2.4-3.6-1.6-5.9c0.9-2.5,1.8-5.1,2.8-7.6c10.3-24.8,22.2-48.9,35.2-72.9c-6.8-0.9-13-1.7-19.1-2.4c-2.5-0.3-4.6-1-4.4-3.8
	c0.3-3.1,2.6-3.4,5.3-3c5.9,0.8,11.8,1.2,17.7,2.3c3.4,0.6,4.8-0.6,6.2-3.3c9.4-17.4,19-34.8,28.5-52.1
	C455.4,378.2,457.4,378.2,460.3,382.6z"/>
<path d="M509.5,326.5c4.3-11.1,5.6-22.5,4.9-34.5c-1.5-23-11-42.9-22.5-62.1c-0.3-0.4-0.7-0.7-1.1-1c-0.8-1.3-1.5-2.6-2.4-3.9
	c-1.5-2.2-2.1-4.6,0.5-6.1c2.4-1.4,4.1,0.2,5.4,2.3c5.4,8.4,10.2,17.1,14.5,26.2c10.4,22.7,16.2,46.3,10.2,71.1
	c-6,24.7-20.2,42.6-45.4,50.2c-0.3,0.1-0.7,0.2-1,0.3c-2.7,0.2-6.3,2.2-7.4-1.7c-1.3-4.6,3.1-4.3,5.8-5.1c14.4-4,25.3-12.6,33-25.4
	C505.2,333,507.8,329.9,509.5,326.5z"/>
<path d="M546.7,618.9c-4.3,0.6-4.6-2.5-4.9-5.4c-2.4-21.2-4.8-42.4-7.1-63.6c-3.2-29.8-6.3-59.6-9.7-89.4c-0.4-4,0.3-6,4.6-5.6
	c3.1,2.9,2.4,7,2.8,10.5c4.6,42,9.1,84,13.6,126c0.8,7.1,1.8,14.2,2.7,21.2C548.9,615.1,549.4,617.5,546.7,618.9z"/>
<path class="st1" d="M341.7,281.3c-3.3-1.5-4.6,2.1-7,2.9c-1.5-11.5-2.2-22.9,1-34.3c5.8-20.6,18.5-36.2,34.5-49.7
	c1.5-1.3,2.5-1.4,3.4,0.7c2.1,4.8,5.4,9,6.9,14c-1.8,1.5-3.6,2.9-4.4,5.2c-8.1,5.2-15.7,11.1-25.1,14c-2.9,0.9-3.6,3.8-4.4,6.4
	c-3.6,11.9-3.8,24.3-4.8,36.6C341.9,278.6,341.8,280,341.7,281.3z"/>
<path class="st2" d="M420.4,174c24.6,0.7,46,10.3,62.7,30c0.7,0.8,1.3,1.6,1.9,2.4c1.5,1.8,1.8,4,0,5.5c-2,1.7-4.1,0.8-5.6-1.3
	c-5.9-7.9-13.4-14.5-22-19.4c-28.8-16.5-64.8-12.8-92.1,9.3c-1.5,1.2-2.8,2.4-4.3,3.6c-1.3,1.2-3.3,1.1-4.4-0.2c0,0,0,0,0,0
	l-0.1-0.1c-1.5-1.6-1.4-3.4,0.1-5c0.5-0.5,1-0.9,1.5-1.3C375.8,182.4,396.1,174.3,420.4,174z"/>
<path class="st2" d="M376.2,220.3c-2-4.6,0.9-5.2,4.4-5.2c6.5,10.3,13.3,20.4,22.7,28.5c13.2,11.4,28.1,19.3,45.3,22.8l1.5,0.3
	c2.5,0.5,4.8,1.5,4,4.6s-3.3,2.6-5.4,2.1c-4.6-0.9-9.2-2.2-13.7-3.6c-22.3-7.7-40.2-21.4-53.9-41.2c-5.4,6.2-11.1,11.9-18.4,15.6
	c-2,1-3.9,1.9-5.9,2.8s-3.8,0.7-4.8-1.4s-0.1-3.9,2.2-4.9c5.4-2,10.3-5.2,14.5-9.2C371.7,228.3,376.3,225.8,376.2,220.3z"/>
<path class="st2" d="M475.3,272.3c10.3-0.1,19.5,2.2,25.1,12c4.8,8.3,4.6,16.8-0.1,25c-4.4,7.7-11.4,11.5-20.2,11
	c-4.2-0.2-5.9,1.2-7,5.1c-1.3,5.2-3.8,10-4.8,15.4c-1.3,1.9-3.1,2.8-5.2,1.5s-2.1-3.1-1.2-5.3c1.8-4.7,3.2-9.6,4.9-14.3
	c1-2.6,1.5-4.5-1.7-6.1c-2.4-1.2-5.1-3.3-2.7-6.4c2.1-2.7,4.4-0.8,6.6,0.7c7.6,5.2,18,4.1,23.7-2.4s5.8-17.1,0.3-23.4
	c-5.9-6.8-16.1-8-24-2.6c-2.2,1.5-4.5,3.5-6.5,0.5s0.6-4.9,2.9-6.5C468.5,274.3,471.9,273.4,475.3,272.3z"/>
<path d="M391.8,670.3c-3.8,0.5-5-1.4-5.2-5c-1.8-38.7-3.7-77.3-5.6-115.9c-0.1-2.5-0.7-5.7,3.2-5.7c3.7-0.1,3.5,3,3.6,5.5
	c1.8,37.6,3.6,75.3,5.4,112.9c0.1,1.7,0.5,3.3,0.7,5L391.8,670.3z"/>
<path class="st2" d="M321.3,273c0.2-18.9,6.4-34.5,15.1-49.3c2.7-4.5,5.6-8.9,8.4-13.3c1.4-2.1,3.2-3.4,5.5-1.8s1.5,3.8,0.1,5.8
	c-6.2,8.7-11.4,18.1-15.7,27.8c-5.2,12.2-7.6,24.9-6,38.2c0.3,2.3,0.5,4.7-2.5,5.2c-3.2,0.5-4-1.8-4.2-4.4
	C321.8,278.1,321.5,274.9,321.3,273z"/>
<path class="st3" d="M381.5,512c-5.1,2-5.9-1.3-6.1-5.1c-0.6-19.3-0.3-38.6,2.5-57.8c0.6-3.9,1-7.7,1.6-11.6c0.4-2.3,0.6-4.8,3.1-6
	c4.7,0.3,4.3,3.5,3.8,6.6c-3.6,20.1-4.7,40.4-4.4,60.9C382.1,503.4,383.7,507.8,381.5,512z"/>
<path class="st2" d="M288.7,211.1c-0.9-0.3-2-0.6-3.1-1.1c-19.9-8.5-39.8-17-59.7-25.6c-2.6-1.1-4.9-2.4-3.4-5.6
	c1.4-3,4-1.7,6.2-0.8c20.1,8.6,40.2,17.2,60.3,25.8c2.1,0.9,3.6,1.9,3.2,4.4C291.9,210.1,290.6,210.8,288.7,211.1z"/>
<path class="st2" d="M409.2,350c-3.9,10.9-8.3,14.5-16.6,14.3c-2.7-0.1-5.5-0.4-5.2-4c0.2-3.3,2.8-3.3,5.3-3.1
	c2.6,0.4,5.2-0.5,6.9-2.4c1.4-1.6,2.5-3.8,1.9-5.5s-3-0.6-4.5-0.8c-4.2-0.3-8.5-0.4-12.4-2.4c-2.2-1.2-4.3-2.8-3-5.6
	c1.4-3,3.7-2,6-0.8c2.5,1.4,5.4,2,8.3,1.9c2.4-0.2,8.3,2.2,4.4-4.5c-0.7-1.2,0.3-2.6,1.5-3.4c1.3-1,3.1-0.8,4.2,0.5
	c3.3,4.1,6.4,8.3,9.6,12.5c1.1,1.2,0.9,3.1-0.2,4.2C413,353.2,411.1,351.1,409.2,350z"/>
<path class="st2" d="M371.2,417c-17.4,9.1-35.5,16.8-53.2,25.4c-2.4,1.2-4.2,0.5-5.6-1.6c-0.2-2.3,0.8-3.7,3-4.7
	c16.6-7.7,33.2-15.6,49.9-23.3C369.5,410.7,371.1,411.9,371.2,417z"/>
<path class="st2" d="M525.4,445c-2.3,0.2-3.7-0.8-4.9-2.8c-8.5-15.1-19.1-28.9-31.5-40.9c-1.2-1.2-2.5-2.4-1.8-4.4
	c0.8-2.2,2.6-2.4,4.6-2.3c14,12.7,25.2,27.5,34.7,43.8C528,441,528.1,443.2,525.4,445z"/>
<path class="st2" d="M284,140.7c1.8-0.1,2.8,1,3.7,2.2l30.3,40.9c1.4,1.9,1.7,3.8-0.3,5.3s-3.9,0.7-5.2-1.1
	c-10.3-13.9-20.6-27.8-30.8-41.7C279.8,143.8,281.2,140.9,284,140.7z"/>
<path class="st4" d="M345,295.9c-2.2-2.6-4.3-2.7-6.9-0.3c-9,8.5-18.1,16.9-27.2,25.3c-2.9,2.6-3,4.9-0.4,7.8
	c3.8,4.1,7.4,8.4,11.1,12.6c-2.3,1.3-4.1,1.7-5.9-0.6c-3.8-4.8-7.8-9.4-11.9-13.9c-2.1-2.2-1.1-3.2,0.6-4.7
	c12-11.2,23.9-22.6,36-33.7c2.1-1.9,3.3-3.8,2.3-6.6c2.9-0.1,3-2.2,3.3-4.3c3.5,4.1,4.9,9,5.3,14.2
	C348.8,292.5,347.9,295.7,345,295.9z"/>
<path class="st2" d="M532.4,680.5c-1.8-2.1-1.2-4.5-0.6-6.8c3.3-13.8,6.7-27.7,10-41.5c0.7-2.8,1.1-5.9,5-5.9c2.6,1.4,2.6,3.7,2,6.1
	c-3.6,14.8-7.2,29.6-10.7,44.4C537.4,680,535.8,681.6,532.4,680.5z"/>
<path class="st2" d="M265.4,251l-20.8,1c-2.3,0.1-4.7,0.1-4.9-3c-0.2-3.3,2.1-3.9,4.7-4c14.2-0.7,28.4-1.4,42.6-2.1
	c2.7-0.1,5.6,0.1,5.5,3.5c-0.1,3-2.7,3.4-5.2,3.5C280,250.2,272.7,250.6,265.4,251L265.4,251z"/>
<path class="st2" d="M383.7,421.3l-6.2-6.9c-0.5-1.3-0.9-2.8,0-3.9c4.3-5.5,8.6-10.9,13.1-16.1c1.2-1.4,3.1-1.3,4.6,0.1
	c1.6,1.6,1.3,3.4,0,5c-2.6,3.3-5.2,6.7-8.1,9.8c-1.9,2.1-1.9,3.6,0.2,5.5c1.5,1.4,2.9,2.9,4.1,4.5c1.5,1.7,2.3,3.6,0.5,5.4
	c-2,2-4,1.1-5.7-0.8C385.4,422.9,384.5,422.1,383.7,421.3z"/>
<path class="st5" d="M351.2,291.6c-2.8-4.4-3.6-9.5-5.3-14.2c-0.1-6.1-0.8-12.1,0.8-18.2c0.6-2.4,1.4-4.5,4.2-3.9s3.2,2.8,2.6,5.5
	c-2,8.3-1.2,17,2.3,24.8C357.9,290.5,356.7,291.9,351.2,291.6z"/>
<path d="M489.6,683.5c-0.3-9.7,1.6-19.2,2.2-28.8c0.1-2.1,1.4-3.6,3.6-3.4c2.5,0.2,3.3,2,3.1,4.3c-0.9,9.2-1.8,18.5-2.7,27.7
	C493.6,685.2,491.6,685.5,489.6,683.5z"/>
<path class="st6" d="M374.2,296.6c-0.2,1.7-0.5,3.3-0.7,5c-0.1,1.2-1.1,2.2-2.3,2.4c-1.5,0.3-3.2-0.1-3.5-1.4
	c-0.9-3.8-3.5-6.5-5.7-9.4c-1.1-1.5-0.5-3,0.6-4.1c0.9-0.9,2.5-1.8,3.6-0.6C369,291.2,375.4,290.2,374.2,296.6z"/>
<path class="st6" d="M415.2,300.9v3.1c0,1.6-1.2,3-2.8,3.1c-1.6,0.2-3.2-0.4-3.5-2.2c-0.5-3.6-2.8-6-4.9-8.6
	c-1.1-1.1-1.2-2.9-0.3-4.2c0.8-1.2,2.2-1.7,3.5-1.4C412,291.5,415.2,295.8,415.2,300.9z"/>
<path class="st7" d="M369.9,280.6c-0.9,0-2.6-0.1-4.2,0c-2.5,0.1-4.1-1.3-4.1-3.4c0-2.6,2-3.7,4.5-3.5c2.9,0.2,5.7,0.5,8.5,0.6
	c2.6,0.1,4.3,1,4,3.9c-0.3,2.7-2.4,3-4.5,3C372.8,281,371.3,280.8,369.9,280.6z"/>
<path class="st8" d="M414.7,283.7c-4.2-0.9-7.2-1.5-10.1-2.3c-1.8-0.3-3-1.9-2.8-3.7c0-0.2,0.1-0.3,0.1-0.5c0.5-2.3,2.2-2.9,4.2-2.6
	c3,0.5,5.9,1.2,8.9,1.9c2.1,0.5,3.4,1.9,3,4C417.6,283,415.8,283.9,414.7,283.7z"/>
<path class="st9" d="M378.6,320.5c-0.2-2.2,0.6-3.7,2.8-4.2s3.3,0.7,3.8,2.5c0.4,1.5,1.3,2.7,2.5,3.5c1.5,0.8,2,2.6,1.2,4.1
	c0,0,0,0,0,0c-0.1,0.1-0.1,0.2-0.2,0.3c-1.1,1.9-2.9,2.1-4.9,1.2C380.7,326.5,379.1,323.9,378.6,320.5z"/>
<path class="st10" d="M509.5,326.5c-1.4,3.7-2.8,7.4-5.4,10.4l-1-1.1C505.2,332.7,506.5,328.9,509.5,326.5z"/>
<path d="M463.8,425.8c6.9,10,6.9,10-0.9,19.4c-17,20.4-31.8,42.3-48.4,63c-3.6,4.5-7.4,8.9-11.1,13.3c-1.6,2-3.5,2.9-5.6,1
	s-1.1-3.6,0.4-5.3c22.1-25.4,40.3-53.8,62.1-79.4c1.7-2,1.7-3.2,0-5c-2.3-2.5-4.4-5.1-6.4-7.9c-2.1-3-1-5.1,2.6-5.5
	c2.9-0.3,5.8-0.2,8.6-0.7c6.5-1.1,8.6-4.9,5.9-11c-2.2-4.6-4.7-9-7.3-13.4c-1.3-2.3-2.4-4.5,0.4-6.1c2.5-1.5,4.1,0.4,5.3,2.4
	c2.1,3.7,4.4,7.3,6.3,11C482.5,415,478.7,422.8,463.8,425.8z"/>
<path d="M470.2,540.6c-0.1-2.1,0.3-3.7,2.4-4.2c2.9-0.6,3.9,1.3,4.5,3.7c2.8,12.9,5.7,25.8,8.5,38.8c3.7,17.1,7.4,34.1,11,51.2
	c0.4,1.8,1.2,3.6,0.2,5.5c-0.6,1.1-1.8,1.7-3,1.5c-2.3-0.2-3-1.7-3.4-3.8c-2.9-13.4-6.2-26.8-8.9-40.2c-3.5-17-6.9-33.9-10.9-50.7
	L470.2,540.6z"/>
<path class="st2" d="M467.3,522.2c1.5-22.7,11.5-42.3,30.5-57.3c2-1.6,4.2-2.9,6.1-0.2c1.7,2.4-0.1,4-1.9,5.5
	c-17.6,14-27.1,32.2-27.9,54.8c-0.1,2.4-0.4,4.5-3.5,4.6C467.9,529.7,467.2,528.3,467.3,522.2z"/>
<path class="st2" d="M306.3,447.3c0,1.5-1.1,2.4-2,3.4l-34.4,34.6c-1.7,1.8-3.7,3.6-6,1.2c-2.2-2.2-0.7-4.2,1.1-6.1
	c11.5-11.5,22.9-23.1,34.4-34.6c1.3-1.4,2.7-2.8,4.8-1.8C305.5,444.6,306.4,445.9,306.3,447.3z"/>
<path class="st3" d="M492.2,645.8c-2.3,0.2-4.2-0.3-4.5-2.8s1.6-3.5,3.8-3.7l16.6-2c2-0.2,3.3,0.5,3.7,2.5c0.4,2.2-0.8,3.6-2.9,3.9
	C503.2,644.5,497.7,645.1,492.2,645.8z"/>
<path class="st7" d="M374.1,545.8c-1,3.4-1,6.4,1,9.4c1.1,1.6,0.2,3.3-1.5,4.3s-2.9,0.3-4.1-0.8c-3.2-2.8-4-12-1.4-15.3
	c0.9-1.3,2.6-1.8,4.1-1.1C374,542.9,374.1,544.4,374.1,545.8z"/>
<path class="st11" d="M369.3,615.1c0,0,0.2-1.5,0.6-3c0.5-2.2,1.8-3.7,4.3-3.2c2.8,0.6,2.9,2.6,2.2,4.7c-1,2.6-0.6,5.4,1,7.7
	c1.2,1.9,0.9,3.8-1,4.8s-3.6,0.3-4.9-1.5C369.8,622.3,369.1,619.5,369.3,615.1z"/>
</svg>
