<?xml version="1.0" encoding="utf-8"?>
<!-- Generator: Adobe Illustrator 26.0.3, SVG Export Plug-In . SVG Version: 6.00 Build 0)  -->
<svg version="1.1" id="Layer_1" xmlns="http://www.w3.org/2000/svg" xmlns:xlink="http://www.w3.org/1999/xlink" x="0px" y="0px"
	 viewBox="0 0 817.2 817.2" style="enable-background:new 0 0 817.2 817.2;" xml:space="preserve">
<style type="text/css">
	.st0{fill:#DBDBDB;}
	.st1{fill:#F6AD3B;}
	.st2{fill:#010101;}
	.st3{fill:#020202;}
	.st4{fill:#030303;}
	.st5{fill:#040404;}
	.st6{fill:#FAFAFA;}
	.st7{fill:#050505;}
	.st8{fill:#0C0C0C;}
	.st9{fill:#060606;}
	.st10{fill:#0A0A0A;}
</style>
<path class="st0" d="M236.9,403c1.7-1.9,0.4-4.4,1.1-6.5c3.3,0.7,6,5.2,10,1.4c5.8,3.3,10.2,8.5,16.4,11.2c-0.3,3.4,1.2,5.3,4.5,6.7
	c16.5,7,33.1,13.7,49.6,20.7c0.5,0.2,0.9,0.4,1.4,0.5c1.7,0.5,3.6,1.9,5.2,0.2s-1-3-0.8-4.6c2.1-1.2,4-2.6,4.3-5.2
	c3.5,0.4,5.8-1,7.8-4.1c6.1-9.6,12.5-19,18.8-28.4c3.1-4.5,3.5-4.5,8-1.7c2.2,1.2,4.6,2.3,7,3.1c3.6,1.6,6.5,1.2,8.5-2.6l4,11.1
	c-3.3,2.8-5.4,6.4-7.1,10.3c-5.2,12-11.5,23.5-16.7,35.5c-2.2,5.2-5.6,6.8-11.1,6.7c-15.1-0.3-30.2,0-45.4-0.1
	c-3.9-0.1-7.7,1.4-10.5,4.1c-15.7,13.5-31,27.5-46.8,40.9c-2.8,2.3-5.3,4.8-5.3,8.8c-3.2,2.3-5.9,5.2-8.2,8.4
	c-1.4,1-3.9,0.8-4.2,3.2c-0.5,4.1-3.1,3.8-6,3.1c-9.6-2.3-19.4-3.4-29.2-3.2c-12.4,0.2-24.7,2.6-36.3,7c-1,0.3-1.9,0.7-2.8,1.3
	c-0.8,0.6-1.8,1.2-1.1,2.5c0.5,0.8,1.4,0.8,2.3,0.7c1.5-0.4,2.9-0.9,4.3-1.5c22-7.5,44-8.9,66.4-1.5c4.3,1.4,7.1,3.6,8.2,8.1
	c1,3.9,2.9,7.6,4,11.5s3.1,6.7,6.7,8.4c-0.1,0.9,0.4,1.8,1.2,2.2c-0.5,2.3-2.4,2.2-4,2.3c-23.7,2.4-47.1,6.9-70.7,9.8
	c-5.1,0.6-10.1,1.4-15.2,1.6c-7.4,0.4-14.7-1.8-20.6-6.1c-2.4-1.6-5.1-2.8-7.9-3.4c-2.3-3.6-5.3-6.9-5.2-11.6
	c1.3-8-0.6-15.9-1.7-23.7c-3-21-0.7-41.2,7.8-60.7c3.7-8.5,6.6-17.5,9.9-26.2c1.2-3.3,1.6-6.9,1.1-10.4l5.5-7.5c2.8-1,4,1.2,5.5,2.7
	c9.2,9,18.6,17.9,26.2,28.4c0.4,0.6,0.8,1.1,1.2,1.6c1.1,1.2,2.2,3.2,4.1,1.6c1.6-1.3,0-2.8-0.8-4c-3.3-4.5-6.5-9.2-10.4-13.1
	c-5.3-5.2-9.6-11.4-15.7-15.9c-1.9-1.4-4.3-3-4.2-6l5.3-6.6c3-0.3,5.7-1.9,7.6-4.3c3.9-4.5,7.6-9.1,11.8-13.3
	c2.1-2.2,3.8-2.8,5.6,0.1c0.1,0.3,0.3,0.6,0.6,0.8c5,3.2,6.2,7.4,4.9,13.3c-0.9,4,1.6,7.8,4.5,10.9c10.1,10.8,21.5,20.2,31.8,30.8
	c0.5,0.5,1,0.9,1.6,1.3c1.1,0.6,2.2,1.2,3.2,0c0.8-1,0-1.9-0.7-2.7c-0.9-1-1.9-1.9-2.8-2.9c-8.6-9.4-18.6-17.3-27.4-26.4
	c-2-1.9-3.6-4-4.9-6.5c-2-4.5-1.4-7.5,2.4-10.8c1-0.9,2.6-1.4,2.1-3.1c-0.4-1.5-2-1.7-3.2-2.1c-10-3.5-11.6-8.8-4.5-16.4
	c2.6-2.8,2.2-5.2,1-8.1c1.1-0.4,2.5,0.2,3.2-1.1c2.7,0,3,2.4,3.9,4.1c11.8,21.4,23.1,43.1,34.8,64.6c1.7,3.2,3.6,5.2,7.4,4.6
	c2.1,2,3.8,4.5,4.9,7.1c0.6,2.3,0.2,4.7,0.7,7c0.1,0.6,0.3,1.4,1.1,1.5c1.1,0.1,1.5-0.7,1.6-1.6c0.6-3.7,0.9-7.4,1.1-11.1
	c0-10.3,1.7-20.6,1.3-30.9c-0.1-1.5,1-4-1.5-4c-1.8,0-1.5,2.3-1.6,3.8c-0.8,6.7-1.1,13.5-1.2,20.2c0,1.9,0.8,4.7-2.6,4.9
	c-2.1-6.1-1.2-12.7-2.3-19c-0.9-5.3-0.4-10.8-2.3-15.9C236.6,406.9,235.7,405,236.9,403z"/>
<path class="st0" d="M614.8,574.4c-2,0-3.7,0.4-4.9,2.2c-6.6-2.6-10.2-8.6-14.8-13.4c-1.2-1.3-0.3-2.4,1.1-3.2
	c11.3-6.3,21.3-14.4,31.9-21.7c0.6-0.4,1.1-0.8,1.7-1.2c1.3-1.1,3.2-2.2,1.7-4.1c-1.2-1.6-2.8-0.3-4,0.6c-3.9,2.9-8.1,5.6-12.1,8.4
	c-2.5,1.7-4.6,4.7-8.4,3.9c-2.4-3.1-4.5-6.4-8.6-7.6c-0.3-3.4-2-5.9-4.5-8.2c-21-20.5-40.9-42.1-60.7-63.8
	c-5.8-6.3-11.9-9.2-20.7-9.2c-47.7,0.4-95.4,0.2-143.1,0.1c-2.5,0-5.5,1-7.2-2c0.1-0.1,0.2-0.2,0.3-0.2c0.2-0.1,0.3-0.1,0.5-0.2
	h133.6c6.2,0,6,0.1,4.3-5.6c-1.1-3.5-2.4-6.4-6.1-7.7c3.4-2,3.8-4.7,2.4-8.2c-3.8-9.7-4.6-20-5.8-30.3c-0.7-6.4,1-11.8,7-15
	c4.2-2.3,7.2-6.9,12.7-6.5c-0.3,2.6,1.2,4.3,3.1,5.8c-3.3,2.1-3.3,4.6-1.5,8c7.9,14.8,14.5,30.3,22.1,45.2c1.5,3,3.4,4.9,6.8,5.1
	c4.6,5.8,10.3,10.5,15.8,16.5c1.4-8.3-0.8-16,1.5-23.5c2.2,2,1.6,4.7,1.7,7.2c0.4,11.5-0.8,23.1,0.9,34.6c0.3,1.7-0.2,3.8,2.4,5.3
	c2.4-10.4-0.4-20.4-0.3-30.4s1.8-19.9,0.7-29.9c1.2-5.2,3.6-10.1,7-14.3c2.8,4.6,2.5,9.8,2.6,14.7c0.2,8.5,0.3,16.9,1.2,25.3
	c0.2,1.6-0.2,3.4,1.5,4.6c1.9-0.8,1.4-2.5,1.5-3.9c0.6-13.2-1.6-26.3-1-39.5c0.1-3.3-2.5-4.5-4.5-6.2c1.7-3.4,2.5-7.3,5-10.3
	c2.2-2.3,3.3-5.8,7.2-5.9c-0.1,3.7,0.2,7.4,0.7,11.1c0.2,2.1,1.5,4,3.3,4.9c-3.7,2-3.7,5.2-3.5,9c0.6,7.2,2.4,14.4,0.5,21.6
	c-0.3,1.2-0.5,2.5,1,3c1.4,0.4,2.2-0.6,2.8-1.7c1.8-3.5,3.9-6.8,5.8-10.2c10.4-18.8,20.7-37.7,31.2-56.5c0.9-1.6,1.3-4,4-4
	c0,3,3.2,1.1,4.2,2.8c-3.1,2.2-3.4,4.6-0.7,7.4c0.8,0.9,1.5,1.8,2.1,2.9c3.6,5.8,1.9,10.5-4.5,12.9c-1.1,0.4-2.3,0.5-3.4,1
	c-2.6,0.9-3.3,2.3-1,4.4c5.9,5.5,6,8.9,0.4,14.8c-9.8,10.2-20.3,19.6-30.8,29c-0.7,0.5-1.3,1.1-1.8,1.8c-0.7,1-1.5,2-0.5,3.2
	s2.2,0.6,3.2,0c0.9-0.5,1.7-1.2,2.4-1.9c9.1-9.1,18.8-17.6,28.3-26.4c5.3-4.9,8.9-10.8,6.7-18.6c-0.9-3.2,1.3-4.6,3.5-6
	s4.5-1.6,6.4,0.6c3.5,4,7.1,7.8,10.2,12.1c2.1,2.9,0.4,4.7-1.4,6.6c-6.3,6.4-12.9,12.6-18.6,19.6c-1.8,2.2-3.7,4.5-5.3,6.8
	c-0.9,1.3-2.5,3-0.5,4.4c1.6,1.1,2.8-0.6,3.7-1.8c3.1-4.3,6.6-8.2,10-12.2c5.4-6.6,11.9-12.1,18.4-17.6c0.7-0.6,1.6-1.3,2.7-0.6
	c0.6,3.5,2.9,6.4,6.1,7.9c-2.8,2.6-2.8,5.6-1.8,9.2c7.8,26.7,12.9,54.2,15.2,81.9c0.5,6.7,0.9,13.5,1.9,20.2
	c-0.8,3.9-3.8,6.6-5.1,10.2c-3.2,1.2-5.8,3.2-8.5,5.3c-14.7,11.8-32.3,19.6-50.9,22.4C617.6,569.9,616.1,571.7,614.8,574.4z"/>
<path d="M363.1,455c1.3,0.8,2.9,1.2,4.5,1c34-0.1,67.9-0.2,101.8-0.3c17,0,33.9,0.3,50.9,0.3c2.9-0.1,5.6,1.1,7.5,3.3
	c19.3,20.3,38.7,40.5,58.1,60.6c3.9,4,7.8,8,12,11.7c2.6,2.3,2.7,4.4,0.5,6.9c-3.6,1-5.2-1.8-7.2-3.7c-17-16.1-32.8-33.4-48.9-50.5
	c-6-6.4-12.3-12.7-18.3-19.1c-1.2-1.4-3-2.1-4.9-2.1c-42.5-1.1-85-0.6-127.4-0.6c-29.7,0-59.5,0.5-89.2,0.6c-2.9-0.1-5.6,1-7.7,2.9
	c-16.2,14.4-32.6,28.7-48.8,43.1c-1.8,1.6-3.6,3.2-6.3,2.2c-2.4-2.4-1.7-4.4,0.6-6.4c17.7-15.6,35.4-31.2,53.1-46.8
	c2-1.7,4.1-2,6.6-2c16.8,0,33.6-0.1,50.5,0c3.2,0,4.7-1,6.1-3.9c6.6-14.3,13.5-28.5,20.2-42.7c1.2-2.5,2.3-5.1,5.8-4.5
	c2.9,1.9,2,4.2,0.9,6.6c-6.4,13.2-12.7,26.5-19,39.7C363.9,452.5,363.5,453.7,363.1,455z"/>
<path class="st1" d="M591.2,288.6c-4.7-2.9-8.7-6.7-11.6-11.4c-4-6.6-2.8-11.8,4.1-15.1c8.6-4.2,18-5.1,26.5-0.7
	c10.9,5.4,19.4,14.8,23.5,26.2c1.7,4.5,3.1,10.3-0.3,13.5c-3.1,2.9-8.7,1.2-13.1-0.1c-4.5-1.5-8.5-4.4-11.2-8.3
	c-3.3-4.4-5.5-9.3-8.1-14.1c-1.4-2.9-3.2-5.6-5.4-8c-2.5-2.5-4-2.4-5,1.3C589.1,277.4,589.3,283.2,591.2,288.6z"/>
<path class="st2" d="M562.8,278.8c3.2-3,5.4-1.4,7.5,1.5c7.6,10.1,17.9,17.8,29.8,22.2c0.8,0.3,1.5,0.5,2.9,0.9
	c-1.7-3.1-3.1-5.7-4.4-8.3c-1-1.9-0.6-3.7,1.4-4.8s3.8-0.1,4.7,1.7c1.8,3.5,4.1,6.7,6.8,9.4c5.6,5.8,12.8,6.7,19.9,5.9
	c10.5-1.3,17.7,2.9,19.3,12.4c1.4,9.5-5.1,18.3-14.5,19.8c0,0,0,0,0,0h-0.3c-5.1,0.8-10.3-0.4-14.6-3.3c-1.9-1.3-3.8-2.7-2.2-5.3
	s3.6-2,5.7-0.7c3,2.1,6.6,2.9,10.2,2.4c5.6-0.7,9.6-5.8,8.9-11.5c0-0.1,0-0.1,0-0.2c-0.5-3.4-2-6.1-5.7-6.9s-6.9,0-9,3.2
	c-1.2,1.8-2.2,3.6-4.7,3s-2.8-2.6-2.2-4.9c0.4-1.5-0.7-1.6-1.8-1.7c-7.3-0.2-14.3-2-22.8-4.3c4.4,3.9,4.1,7.7,3.8,11.5
	c-0.2,2-1.1,3.7-3.5,3.5s-3.2-1.8-3.1-3.9c0.3-2.3-0.7-4.6-2.6-6c-3.5-2.8-1.5-5.1,1.8-7c-11.2-5.1-21.1-12.8-28.7-22.5
	c-1.5-1.9-2.9-3.8-2.2-6.4L562.8,278.8z"/>
<path d="M664.1,412.3c-11.4,9.2-21.5,19.7-30.4,31.3c-1,1.3-1.9,2.9-3.8,3.2c-1.6,0.3-2.6-0.7-3.3-1.9c-1-1.8,0.1-3.2,1.2-4.6
	c7.3-9.9,15.5-18.9,24.7-27c2.9-2.5,3.5-4.2,0.5-7c-2.8-2.7-5.4-5.7-7.6-8.9c-2.5-3.6-4.8-4.4-8.2-1c-1.2,1.3-1.8,1.7-1.1,3.6
	c2.4,6.4,0.4,12.2-4.3,16.7c-11.1,10.8-22.5,21.2-33.8,31.7c-1.7,1.6-3.5,2.4-5.3,0.3c-1.9-2.2-0.5-4.1,1.2-5.7
	c8.7-8.1,17.4-16.1,26.1-24.3c2.9-2.6,5.6-5.4,8.1-8.4c3.6-4.7,2.8-7.9-2.3-10.9c-1.5-0.9-2.4-1.9-2.2-3.6c0.1-1.6,1.5-2.9,3.1-2.9
	c11.7-1,13.3-7.8,4.8-16.3c-1.2-1.2-2.4-2.5-1.7-4.4c0.8-2.3,2.7-2.3,4.6-2.2c4.4,3.9,8,8.2,9.1,14.2c0.3,1.1,0.9,2.1,1.8,2.9
	c5.7,6.5,11.2,13.2,17,19.6C664,408.1,664.7,410.3,664.1,412.3z"/>
<path class="st1" d="M196.3,294h-0.5c-8.8,0.4-9.4-0.4-7.3-9.5c3.3-13.8,17-24.2,31-23.5c7.2,0.4,10.1,3.3,10.1,10.4
	c0,8.8-5.2,16.2-13.9,19.2C209.4,292.8,202.9,293.9,196.3,294z"/>
<path d="M188.6,374.5c3.9,1.9,4.6,4.2,1.2,7.3c-1,0.9-1.9,2-2.6,3.1c-4.8,6.4-3.4,10.5,4.3,12.7c1.1,0.3,2.3,0.6,3.5,0.8
	c1.6,0.2,2.8,1.5,2.8,3.1c0.1,1.7-0.9,2.7-2.4,3.5c-4.9,2.4-5.8,5.8-2.6,10.5c3,4.6,7.4,8,11.2,11.7c7.6,7.3,15.3,14.5,22.9,21.7
	c1.7,1.6,3.9,3.5,1.6,6s-4.5,0.8-6.5-1.1c-9.3-8.9-18.6-17.8-28-26.7c-6.5-6.3-12.7-12.7-8.3-22.9c0.6-1.3-0.4-1.8-1.4-2.3
	c-2.9-1.5-4.8-4-6.5-7.3c-5.3,6.1-10.5,11.8-15.5,17.8c-2,2.4-4.1,3.5-6.9,1.5c-0.8-2.5,0.2-4.5,1.9-6.4c4.9-5.4,9.6-10.9,14.4-16.4
	c1.2-1.4,2.2-3.1,4.5-2.7c2,0.4,1.9-1.3,2.5-2.5C181,381.4,183.5,376.8,188.6,374.5z"/>
<path d="M630.4,367.2L591.7,437c-0.7,1.4-1.4,2.7-2.3,4c-1.1,1.4-2.7,1.4-4.2,0.7s-2.3-2-1.7-3.4c3.8-8.3,0.1-16.6,0.2-24.9
	c0.1-3.7-1.6-8.1,4.8-7.4c2.8,2.5,1.7,6,2.1,9.1c0.3,2.1,0.4,4.3,0.8,7.9c4.9-8.9,9.2-16.5,14.1-25.4c-3.5,2-5.9,3.2-8.1,4.6
	s-4.5,2.2-6.1-0.5c-1.7-2.9,0.7-4.2,2.7-5.6c0.1-0.1,0.3-0.2,0.4-0.2c14.1-5.4,22.7-16.1,28.4-29.6c0.7-1.6,1.3-3.8,3.5-3.9
	C630,362.1,630.8,364.2,630.4,367.2z"/>
<path class="st2" d="M651.1,295.9c-0.1,2.1-0.2,3.6-0.2,5.2c-0.1,2.5-0.9,4.3-3.9,4.1c-2.8-0.2-3.2-2.2-3-4.4
	c1.3-11.5-3.1-21.3-9.3-30.4c-16-23.6-46-26-65.5-5.3c-1.9,2-3.9,4.1-6.4,1.8s-0.4-4.6,1.3-6.6c17.2-20.9,51.4-21.6,70.5-1.2
	C644.4,269.6,650.3,281.9,651.1,295.9z"/>
<path class="st2" d="M276.2,536.6c-4.4,0.4-7.7,0.9-11.1,1c-4,0.2-5.3-1.7-3.7-5.4c0.7-1.5,1.4-2.8,0-4s-3.2-1-4.8-0.3
	c-3.4,1.5-5.1,4.5-6.4,7.6c-1.1,2.7-2.8,4.1-5.4,2.9s-2-3.5-1-5.7c2.6-5.6,5.9-10.3,12.3-11.9c5.8-1.4,10.7,0.9,12.6,6.5
	c0.9,2.8,2.1,3,4.7,2.9c7.6-0.5,14.9,0.4,21.3,5.1c7,5.1,10.4,13.7,8.2,20.9c-1.9,6.5-9,11.3-17.4,11.9c-7.6,0.5-14.3-2.5-20.9-5.4
	c-1.6-0.5-2.5-2.3-2-3.9c0.1-0.3,0.2-0.5,0.4-0.7c1.1-2,2.7-2.2,4.8-1.5c3.8,1.5,7.6,2.9,11.5,4c8.2,2.1,15.8-1.4,17.3-7.5
	c1.4-5.8-4.1-13-11.7-15.1C281.9,537.4,279.1,536.9,276.2,536.6z"/>
<path class="st2" d="M126.7,565.3c1.9-1.6,3.9-2.3,5.8-0.3c8.1,8.2,18.1,9.3,28.7,7.9c21.6-3,43.2-6.1,64.9-9.2
	c6.3-0.9,12.7-1.7,19-2.5c0.8,0,1.7,0.1,2.5,0.1c2.5-0.1,3.9,1.3,3.8,3.7c-0.1,2.2-1.6,3.1-3.8,3.3c-15.9,1.1-31.6,3.9-47.3,6.1
	c-14.1,2-28.1,3.9-42.2,5.6c-10.4,1.5-20.9-1.6-28.8-8.5C127.4,569.9,125.9,568.1,126.7,565.3z"/>
<path class="st2" d="M138.6,432.7c2.9,1.8,2.8,4.1,1.7,7c-4.5,11.7-8.4,23.6-13.2,35.2c-7.2,17.3-8.6,35.1-6,53.4
	c0.9,6.4,1.6,12.8,2.4,19.2c0.3,2.4,0.5,4.8-2.1,6.2c-3.1,0.3-4.1-1.6-4.5-4.3c-4.2-27.5-7-54.8,5.4-81.4
	c4.6-9.8,7.7-20.2,11.3-30.4C134.6,435.2,135.4,432.8,138.6,432.7z"/>
<path d="M243.8,559c-3.2,1-5.1,0-6.2-3.3c-2-5.8-4.4-11.4-6.2-17.2c-1.1-3.5-3.2-5-6.5-6.1c-22.2-7.2-44.1-5.9-65.9,1.6
	c-1.1,0.4-2.2,0.8-3.3,1.3c-2.3,0.9-4.8,1.9-6.1-1.2s1.2-4.1,3.4-5c23.1-9.3,48.7-10.5,72.6-3.6c0.5-2.2-1.5-4.8,1.1-6.4
	c1.8-1.1,3.2-0.2,4.8,0.5c4.1,11.1,8.2,22.2,12.4,33.3C244.7,554.9,245.5,556.9,243.8,559z"/>
<path class="st2" d="M568.7,567c-3.8,0-7.2,0-10.5,1c-6.7,2-11.7,10.6-9.8,17.3c0.4,2.1,2.2,3.6,4.3,3.6c4.3,0.1,8.9,0.8,11.8-3.7
	c0.9-1.3,2.6-1.8,4-1c1.6,0.7,2.4,2.5,1.7,4.2c0,0,0,0,0,0c0,0,0,0.1,0,0.1c-0.7,2.1-2.2,4.3,0.9,5.5c2.7,1.1,4-1.2,5.2-2.9
	c3.3-4.8,7.7-8.7,12.8-11.3c2.2-1.1,4.7-2,6.2,0.8s-0.4,4.2-2.8,5.3c-4.5,2-7.8,5.7-10.8,9.7c-5.6,7.4-12.2,7.7-18,0.7
	c-1.2-1.4-1.9-1.2-3.3-1c-2.7,0.4-5.4,0.6-8.1,0.5c-6.4-0.4-10.2-4.4-10.7-10.7c-1.2-14.3,6.5-23.5,20.6-24.9
	c3.9-0.4,7.8-0.3,11.7,0.4c2.2,0.4,3.9,1.5,3.6,4c-0.3,2.8-2.4,2.8-4.6,2.7C571.3,567.2,569.8,567.1,568.7,567z"/>
<path class="st2" d="M376.4,391.6c-1.2-3.2-1.1-5.5,2.8-7.1c3.9-1.3,6.2-5.3,5.4-9.4c-0.8-4.8-4.6-7-8.4-8.8c-2.1-1-2.8,1.4-3.6,2.7
	c-1.2,1.7-1.9,3.8-0.3,5.7c1.5,1.7,2.2-0.1,3.2-0.8c1.6-1.1,3.3-1.1,4.6,0.3c1.6,1.8,1,3.8-0.5,5.5c-3.7,4.4-11.5,3.1-14.1-2.4
	c-2.3-5-0.8-9.6,2.2-13.8c2-2.8,0.6-10.6-2.2-12.3c-2-1.2-2.8,0.2-3.2,1.8c-0.4,2.2-0.3,4.5,0.3,6.6c0.8,2.6,0.9,5.4,0.6,8.1
	c-0.1,1.6-1.5,2.9-3.1,2.8c-2,0-3.6-1-3.6-2.8c0.2-4.5-1.6-8.7-1.5-13.1c0.1-5.6,3.2-9.9,7.6-10.7s8.6,1.4,10.6,6.7
	c2.1,5.6,5.6,9.2,10.5,12.4c10.3,6.8,10.4,20.2,0.5,26.8c-2.5,1.7-5.1,2.7-8.1,1.7L376.4,391.6z"/>
<path class="st2" d="M173.5,290.2c2.2-16,11.4-29.2,27.4-37c15.8-7.6,31.6-6.2,46.7,2.5c2.4,1.4,5.2,3.1,3.1,6.3
	c-1.9,2.9-4.4,1-6.6-0.3c-24.7-14.4-54.5-2.9-62.6,24.2c-1.6,5.5-2.4,10.8,4,14c1.9,0.9,1.8,2.9,1,4.5c-1.1,1.9-2.9,2-4.9,1.3
	C176.9,303.9,173.5,298.3,173.5,290.2z"/>
<path class="st2" d="M235.4,377.5c-4.7-1.9-6,1.5-6.8,5.8c-0.4,1.8-0.9,3.6-1.6,5.4c-0.5,1.7-2.3,2.6-3.9,2.1c0,0,0,0,0,0H223
	c-2-0.5-3.2-2.3-2.4-3.8c4.6-8.7,1.7-14-6.8-17.7c-1.8-0.8-2.3-3-0.9-4.8c1.8-2.3,3.8-1.6,5.8-0.1c6.8,5.6,15.9,7.6,24.4,5.6
	c17.5-3.7,26.9-23,19.5-39.4c-0.5-1.1-1-2.1-1.6-3.2c-1.2-2.1-1.1-3.9,1.1-5.2c2.4-1.4,3.9,0.1,5,1.9c3.3,5.6,5,12,4.9,18.4
	C271.6,363,256.6,377.7,235.4,377.5z"/>
<path class="st2" d="M237.8,446.9c-3.6,3.2-5.5,1.2-7.3-2.2c-12.2-22.8-24.4-45.6-36.6-68.4c-0.6-1-1.3-2-1.9-2.9
	c-0.8-2.4-1.5-4.8,1.6-5.9s4.2,1.4,5.3,3.5c9.3,17.3,18.5,34.7,27.8,52c0.9,1.7,1.9,3.4,3.5,6.4c0.5-5.3,0.8-9.1,1.1-12.9
	c0.2-1.9,0.3-3.8,2.4-4.7c3.6-1.4,4.8,0.2,5.1,3.7c0.6,6.9-0.2,13.8-0.9,20.6C237.5,439.8,240.3,443.4,237.8,446.9z"/>
<path class="st2" d="M587.7,365.1c5.6-0.3,10.9-2.3,15.4-5.7c2-1.5,4.1-2.9,6.1-0.2s0.2,5-2,5.8c-8.2,2.9-9.2,8.1-6,15.4
	c0.9,2.1,0.3,4.2-2.1,4.9c-1.6,0.6-3.5-0.2-4.1-1.8c-0.1-0.4-0.2-0.8-0.2-1.2c-0.5-8.9-5.5-10.2-13.6-10.9
	c-24.7-2.1-37.3-29.4-24.1-50.4c1.4-2.2,2.9-4.1,5.7-2.5s1.6,4,0.3,6.1c-3.8,6.1-5,13.5-3.4,20.5
	C562.1,357.2,572.8,365.1,587.7,365.1z"/>
<path class="st2" d="M685.5,531.5c-1.9-1.2-2.3-3-2.4-5.2c-1.7-33.7-7.4-67-16.9-99.4c-1.1-3.7-1.4-6.9,4-6.7c1.7,1,2,2.6,2.5,4.3
	c9.2,32.9,15.7,66.3,17.1,100.6C689.9,528.2,690.1,531.4,685.5,531.5z"/>
<path class="st2" d="M513.7,357.6c-0.1,4.7-1.8,8.2-3.8,11.5c-0.9,1.6-2.9,2.2-4.5,1.2l-0.4-0.2c-1.7-1-1.7-2.8-1-4.5
	s1.7-3.7,2.5-5.5c0.9-1.6,0.5-3.5-0.8-4.7c-1.6-1.3-3.3-0.5-4.5,0.9s-3.3,2.1-1.6,4.6c0.9,1.3,2,3,0.7,4.7c-2.5,3-4.6,2.1-6.4-0.7
	c-3.4-5.4-9.3-8.8-15.7-8.8c-2,0-4.1,0.4-5.9,1.3c-4.5,2.1-5,4.9-1.3,8.1c4.5,3.7,9.3,6.8,14.5,9.3c2.2,1.1,4.5,2.4,3,5.4
	s-3.9,1.9-6.2,0.8c-5.6-2.7-10.9-6.2-15.8-10.2c-7.7-6.5-6.2-16,3-19.9c6.5-2.9,13.9-2.5,20,1.1c3.3,1.9,5,1.2,7.5-1.2
	c2.9-3.1,7.5-3.9,11.3-2.1C512.2,350.5,513.3,354.2,513.7,357.6z"/>
<path class="st2" d="M204.1,301.2c11-0.1,20-4.6,27.2-12.8c2-2.3,3.4-4.6,1.2-7.6c-1.4-2-1.6-4.4,0.8-5.7c2.9-1.6,4.2,0.5,5.4,2.8
	c5.9,11.5,15.2,18.4,27.9,20.6c2.5,0.5,5.5,0.7,4.7,4.4c-0.7,3.4-3.4,2.6-5.7,2.3c-9.3-1.3-18-5.6-24.6-12.3c-2.1-2.1-3-2-4.9,0.2
	c-8.1,9.9-20.3,15.4-33.1,15.1c-2.8,0-6.5,0.6-6.6-3.6c0-4.5,3.8-3.3,6.5-3.4H204.1z"/>
<path class="st3" d="M607.1,546c6.8-4.6,13.8-9.2,20.5-13.9c2.1-1.5,4.1-2.3,5.7-0.1s0.5,4.1-1.6,5.5c-10.8,7.5-21.6,15.2-32.5,22.7
	c-1,0.7-2.4,1-5.1,2.1l15.8,14.4l2.3,2.7c1.2,1.2,1.1,3.2-0.1,4.4l-0.2,0.2c-1.1,1.4-3.1,1.6-4.5,0.4c0,0,0,0,0,0
	c-0.2-0.1-0.3-0.3-0.4-0.4c-9.2-9.5-18.3-19.1-27.5-28.7c-1.4-1.1-1.6-3.2-0.4-4.5c0.1-0.2,0.3-0.3,0.5-0.5c1.6-1.6,3.3-1.4,4.9,0.1
	c2.7,2.5,5.4,5.1,8.1,7.8C596,552.4,602.6,550.5,607.1,546z"/>
<path class="st2" d="M511.1,381.6c-5.2,3.4-10.4,6.9-15.7,10.2c-2.7,1.7-2.3,4.4-2.3,6.8c-0.2,12.7,2,25.4,6.3,37.3
	c1.7,4.7,0.6,6-4.6,5.6c-6.1-12.4-8.1-25.6-8.4-39.3c0-2.1,0.5-4.1-2.3-5.5c-2.5-1.2-2.4-3.9-0.2-5.4c8-5.7,16.1-11.1,24.3-16.6
	c1.4-1.1,3.4-0.9,4.4,0.5c0,0,0,0,0,0l0.1,0.1C514.8,378.2,512.9,380,511.1,381.6z"/>
<path class="st2" d="M378.6,393.8c0.7,4.7-1.5,5.8-5.6,4.8c-3.8-0.9-7.7-1.9-10.6-4.5c-3.3-3-4.5-1.1-6.3,1.5
	c-6.7,10.4-13.6,20.6-20.4,30.9c-2.2,3.4-4.3,4.1-7.2,0.9c-0.4-2.2,0.9-3.9,2-5.6c7-10.6,14-21.2,21-31.8c1.4-2.1,2.9-4,0.7-6.7
	c-1.1-1.3-0.9-3.3,0.4-4.4c0.2-0.2,0.5-0.3,0.7-0.4c2.2-1.2,3.8-0.2,5,1.8c3,5.2,7.9,9.1,13.6,10.8c1.4,0.4,2.8,1.1,4.4,0.4
	l-0.1-0.2C376.3,393,378.2,392.6,378.6,393.8z"/>
<path class="st2" d="M186.2,311.2c6.3-0.1,11.8,3.3,14,8.3c0.9,2.1,0.6,3.7-1.2,4.8s-3.4,0.5-4.8-1.2c-3.8-4.8-7.7-6.2-11.5-4.2
	c-3.6,1.9-5.2,6.6-3.8,11.1c1.7,5,6.8,8.1,12,7.4c2.8-0.5,5.5-1.6,7.9-3.2c1.8-1.1,3.3-0.5,4.4,1.1s0.7,3.1-0.7,4.5
	c-5.2,5.2-17,5.8-23.8,1.1c-6.8-4.8-9.2-13.7-5.8-21.3C175.1,314.4,180.4,311,186.2,311.2z"/>
<path class="st2" d="M614.8,574.4c-1.8-3.7-0.1-5.4,3.5-5.9c21-2.7,40.7-11.7,56.5-25.8c1.5-1.5,3.7-1.9,5.6-1.1
	c2,2.6,0.9,4.7-1.3,6.5c-16.8,14.6-37.5,24-59.5,27C618,575.4,616.2,575.8,614.8,574.4z"/>
<path class="st2" d="M350.1,221.9c0.1,1.8-1,2.8-2.3,3.7L296.2,261c-2,1.4-4,1.5-5.3-0.6s-0.5-3.9,1.5-5.2
	c17.3-11.9,34.6-23.9,52-35.7C346.9,217.8,349.9,219.2,350.1,221.9z"/>
<path class="st2" d="M544.8,244.6c-0.5,2.3-1.9,3.7-4.6,2.8c-1.2-0.5-2.4-1.3-3.5-2.1l-44.5-29.6c-1-0.6-2-1.3-3-2
	c-1.9-1.4-2.5-3.4-1.1-5.3c1.3-1.7,3.1-1.7,5-0.5c2.5,1.7,5.1,3.4,7.6,5.1l40.2,26.8C542.7,240.9,544.8,241.7,544.8,244.6z"/>
<path class="st2" d="M324.2,432.7c1.7,1.5,4.6,2.5,3,5.5c-1.6,2.9-4,1.7-6.2,0.8c-18.1-7.6-36.3-15.1-54.4-22.7
	c-3.8-1.6-5.4-3.6-2.2-7.2c2.3-0.5,4.3,0.6,6.3,1.5C288.5,417.9,306.3,425.3,324.2,432.7z"/>
<path class="st2" d="M541.6,445.7c-3.1,2.1-5.2,1.4-6.8-2c-8.1-16.7-16.3-33.3-24.4-49.9c-2.2-4.5-1.2-5.9,3.8-6.4
	c3.9,4.6,5.7,10.3,8.3,15.6c6.1,12.2,12.1,24.6,18.2,36.9C541.7,441.6,542,443.7,541.6,445.7z"/>
<path class="st2" d="M668.2,257.8c0,11.1-5,18.5-11.5,19.7c-2,0.4-4.2,0.7-5-2c-0.6-2.1,0.4-3.4,2.3-4.4c7.5-4,9.4-10,5.6-16.6
	c-3.5-6.3-11.5-8.6-17.8-5.1c-0.2,0.1-0.4,0.2-0.6,0.4c-0.4,0.2-0.9,0.5-1.3,0.8c-2,1.5-4,2.3-5.7-0.1s-0.3-4.1,1.7-5.5
	c6.6-4.6,13.8-5.7,21.1-2.1S668.1,252.5,668.2,257.8z"/>
<path d="M564.2,425.4c2.1,1.1,2.5,2.9,2.3,5.1c-2.1,17.4-1,34.9,0,52.3c0.1,2.6,0.5,5.7-3.1,5.7s-3.2-3.1-3.4-5.7
	c-1.2-14.7-1.5-29.5-1-44.2c0.3-3,0.8-5.9,1-8.9C560,427,561.3,425.5,564.2,425.4z"/>
<path class="st3" d="M643.3,577.9c1.7,0.1,3.3,0.9,4.3,2.2c10.3,10.3,20.6,20.6,30.9,30.9c1.8,1.8,2.9,3.6,0.7,5.6s-3.9,1-5.7-0.8
	c-10.4-10.4-20.9-20.8-31.4-31.2c-1.3-1.3-2-2.7-1.5-4.5C641,578.9,642.1,578.1,643.3,577.9z"/>
<path class="st2" d="M150,420.5c11,10.4,21.7,21,30.6,33.2c0.5,0.7,1,1.4,1.5,2c1.6,2,2,4.1-0.3,5.8s-3.9,0-5.1-1.7
	c-5-6.9-10.4-13.4-16.2-19.5c-5.1-5.4-10.3-10.8-16.4-15.1c-1.2-1.8-1.8-3.7,0.1-5.4C146.3,417.9,148.1,419.5,150,420.5z"/>
<path class="st2" d="M572.3,406.1c4-1.2,5.6,0.4,5.8,4.5c0.5,14.2,1.1,28.4,1.6,42.7c0.1,2.3,0.5,5.2-3,5.4
	c-3.7,0.1-3.5-2.8-3.6-5.4c-0.6-14-1.4-28.1-2-42.1C571.4,409.4,571,407.6,572.3,406.1z"/>
<path class="st2" d="M487,279.1c13.2,1.5,26.6,3,40.1,4.6c2.4,0.3,4.6,1,4.3,3.9s-2.3,3.4-4.9,3.1c-13.4-1.6-26.9-3.2-40.3-4.8
	c-2.5-0.3-4.4-1.1-4-4C482.6,279.4,484.3,278.5,487,279.1z"/>
<path class="st3" d="M234.4,352.3c2,4.4,5.1,5.7,8.7,6.2c2.6,0.3,5,1.1,4.4,4.1c-0.4,2.6-2.8,2.9-5.2,2.7
	c-7.9-0.5-14.9-6.9-15.9-14.6c-0.3-2.8,0.1-4.8,3.4-5c4.5-0.3,9.1-0.6,13.6-0.9c1.9-0.3,3.8,1,4.1,2.9c0,0.2,0,0.4,0.1,0.5
	c0.2,2.2-1.5,3.3-3.6,3.5C241.1,352,238.1,352.1,234.4,352.3z"/>
<path class="st4" d="M280.6,289.4c0,0.3,0,0.7,0,1c-0.6,3,0.2,7.5-4.5,7.1c-4.2-0.4-2.7-4.3-2.5-7c0.5-8.6-4.7-15.2-13.6-16.8
	c-2.8-0.5-5.5-1-4.6-4.4c0.8-3.2,3.6-2.8,6.3-2.3C272.9,269.2,280.7,278.2,280.6,289.4z"/>
<path class="st3" d="M562.9,278.7c-10.9,5.2-13.4,12.5-7.9,23.5c1.1,2.1,1.3,3.9-0.7,5.3s-3.8,0.2-5.2-1.5c-7.9-9.9-3-28.1,8.9-32.8
	c1.5-0.6,2.9-1.1,4.3,0.1c1.8,1.6,1.6,3.5,0.5,5.5L562.9,278.7z"/>
<path class="st1" d="M263.6,293.3c-9.5-0.2-16.9-7.2-17.5-16c-0.2-2.9,0.6-4.3,3.8-2.9c4,1.7,8.2,3.1,12.2,4.9
	c3.8,1.7,5.5,4.9,5.8,8.9C268.1,291.6,266.9,293.9,263.6,293.3z"/>
<path class="st3" d="M162.6,589.9c-0.1,2.4-0.8,3.4-1.6,4.2c-7.1,7.1-14.1,14.2-21.2,21.3c-1.8,1.8-3.8,3.5-6.1,1.3
	c-2.6-2.5-0.5-4.5,1.4-6.4c6.9-7,13.9-14,20.8-21c1.4-1.5,2.9-2.4,4.9-1.6C161.7,588,162.4,588.9,162.6,589.9z"/>
<path class="st3" d="M559.8,202.2c1.8,0.2,2.8,1.2,3.7,2.9c4.5,8.7,9.1,17.4,13.6,26.1c1.2,2.2,1.9,4.8-1,6.1s-4.2-1-5.3-3.2
	c-4.3-8.4-8.7-16.8-13-25.2C555.7,205.3,556.7,202.4,559.8,202.2z"/>
<path class="st3" d="M587.6,348.6c-4.2,0.8-8,1.8-11.9,0.6c-2.4-0.7-4.2-1.7-3.7-4.4s2.5-3.2,5.1-2.4c3.6,1.1,7,0.2,10.2-1.7
	c3.8-2.2,5.7-1.4,7,2.8c1.7,6-0.3,12.5-5.2,16.3c-1.9,1.4-4,2.5-5.8,0.3s-0.9-4,1.2-5.6C586.5,353.4,587.7,351,587.6,348.6z"/>
<path class="st3" d="M280.7,212.1c3.4-0.1,5.1,2.5,3.6,5.3c-4.6,8.5-9.4,16.8-14.1,25.2c-1,1.8-2.6,2.8-4.7,1.6
	c-1.9-1.1-2.6-2.7-1.5-4.7c4.8-8.6,9.6-17.1,14.4-25.6C279,212.9,279.8,212.1,280.7,212.1z"/>
<path class="st4" d="M329.4,292.3c-0.2,2.2-1.4,3.2-3.5,3.6c-7.8,1.5-15.5,3-23.3,4.6c-2.4,0.5-4.1-0.3-4.5-2.7
	c-0.4-2.1,0.8-3.5,2.9-4c8.1-1.6,16.2-3.3,24.3-4.8C327.6,288.6,329.1,289.8,329.4,292.3z"/>
<path class="st5" d="M236.9,403l1,5.2c0.2,3-2.4,2.7-4.1,3.4c-2.3-1-4.2,0.7-6.2,1.3c-2.3,0.7-4.1,0.4-5-1.9
	c-0.8-1.6-0.2-3.5,1.4-4.3c0.4-0.2,0.7-0.3,1.1-0.3c5.2-0.8,4.6-3.4,2.6-6.8c-0.8-1.5-1.5-3-2-4.6c-0.6-2-0.2-3.7,1.9-4.6
	s3.6,0.2,4.4,2.1C233.7,395.9,235.3,399.4,236.9,403z"/>
<path class="st6" d="M233.7,411.5c0.8-1.8,3.5-1.4,4.1-3.4c3.2,5,1.9,10.8,2.8,16.2c1,6.5,0.9,13.1,1.2,19.6c1.9,3.1,2.2,6.1-0.3,9
	c-1.9-1.5-3.3-3.6-3.9-6c-3.1-10.1,0-20.1,0.3-30.1c0.1-3.6-1.1-5-4.4-5L233.7,411.5z"/>
<path class="st7" d="M247.9,397.9c-2.2,4.2-3.9,4.5-7,1.4c-1-1-2-1.9-2.9-2.8c-1.8-2.2-3.7-4.4-5.5-6.6c-1.5-1.8-1.7-3.7,0.3-5.4
	s3.7-0.8,4.9,0.8C241.1,389.5,245.5,392.9,247.9,397.9z"/>
<path class="st4" d="M584.6,389.9c-2.6,1.7-3.8,5.1-7.2,5.9c-3.8-1.8-4-4.2-1.3-7.1s5.2-5.8,7.8-8.7c1.7-1.9,3.7-2.6,5.8-0.8
	s1,3.7-0.4,5.4S586.2,388.2,584.6,389.9z"/>
<path class="st7" d="M574.3,317.6c-0.1,1.3-0.2,2.7-0.5,4c-0.2,1.6-1.6,2.7-3.2,2.7c-1.6-0.1-3.2-1.2-3.2-2.8
	c0.1-3.4-1.8-5.1-4.3-6.7c-1.9-1.2-2.8-3.1-1.2-5.2s3.4-2,5.2-0.4C570,311.6,575.6,311.7,574.3,317.6z"/>
<path class="st7" d="M228.1,324.8c0,1.3,0.3,4.5-3.1,4.6c-3.9,0.1-3.5-3.3-3.5-6v-2.5c-0.1-2.4,1.1-4.1,3.4-4.1
	c2.2,0,3.1,1.7,3.2,3.8C228.1,321.5,228.1,322.5,228.1,324.8z"/>
<path class="st8" d="M577.5,325.6c2.5,0.3,3.9,1.8,3.3,3.8c-0.8,3-0.8,7.2-5.5,7.2c-1.6,0.1-2.9-1.1-3-2.6c0-0.4,0-0.8,0.2-1.2
	C573.4,329.9,573.7,326.2,577.5,325.6z"/>
<path class="st9" d="M250.1,337.6c0.3,2.8-0.9,4.4-3,4.2c-4.5-0.3-4.4-4.5-5.2-7.5c-0.6-2.2,1.4-3.7,3.2-3.5
	C249.4,331.3,249,335.3,250.1,337.6z"/>
<path class="st10" d="M249,322.3c-0.1-2.9,0.1-5.6,3.2-5.7s3.8,2.4,3.8,4.9s-0.4,5.1-3.5,5.3C249.2,327,248.7,324.6,249,322.3z"/>
<path d="M241.6,452.9l0.3-9c1.4-8.9,1.1-17.8,1.8-26.7c0.1-1.7-0.2-3.4,1.4-4.7c1.1-0.9,2.6-1,3.8-0.3c1.6,0.8,1.5,2.4,1.4,4
	c-0.7,12.3-1.3,24.7-1.9,37c-0.1,2.9-0.2,5.8-0.4,8.6c-0.1,2.1-1.1,3.6-3.5,3.5s-3-1.7-3-3.8C241.6,458.7,241.6,455.8,241.6,452.9z"
	/>
<path class="st2" d="M170.8,497.9V477c0-2.3,0.7-4,3.4-3.9s3.4,1.8,3.3,4.1c-0.3,13.4-0.6,26.8-0.9,40.2c-0.1,2.3-0.8,4-3.5,4
	c-2.9,0-3.1-2-3.1-4.2v-19.3H170.8z"/>
<path class="st2" d="M268,466c0,3.8,0.2,6.6-3.2,6.6c-3.1,0-3.4-2.5-3.6-5c-0.5-7.9-1.3-15.8-1.9-23.8c-0.2-2.4-1.2-5.5,2.5-6.1
	s3.9,2.6,4.1,5C266.8,450.9,267.4,459.1,268,466z"/>
<path d="M645.8,518.5c0.1,2.2-0.7,3.7-3,3.9c-2.7,0.3-3.5-1.7-3.9-3.8c-1.7-9.5-2.8-19.1-3.5-28.7c-0.8-9.8-1.7-19.5-2.7-29.3
	c-0.3-2.7-1.1-6,2.7-6.4s3.8,3.3,4.1,5.8c1.2,12.5,2.2,24.9,3.2,37.4C643.3,504.5,644.4,511.5,645.8,518.5z"/>
<path class="st2" d="M591.8,503.1c0.1,1.5,0.3,3,0.4,4.5c0,2.1-0.8,3.6-3.1,3.8s-3.4-1.4-3.5-3.4c-0.5-13-2.6-26-6.4-38.5
	c-0.7-2.1-0.1-3.8,2.2-4.4c2.5-0.7,3.7,0.9,4.4,3.1C589.3,479.5,591.3,491.2,591.8,503.1z"/>
</svg>
