<svg id="Layer_1" data-name="Layer 1" xmlns="http://www.w3.org/2000/svg" viewBox="0 0 800 800"><defs><style>.cls-1{fill:#fff;}.cls-2,.cls-7{fill:#fe6666;}.cls-2,.cls-3,.cls-4{stroke:#fff;stroke-width:3px;}.cls-2,.cls-3,.cls-4,.cls-9{stroke-miterlimit:10;}.cls-3,.cls-8{fill:#a7d967;}.cls-4,.cls-6{fill:#f6ad3b;}.cls-5{fill:#444;}.cls-9{fill:none;stroke:#000444;stroke-width:2px;}.cls-10{fill:#000444;}</style></defs><rect class="cls-1" width="800" height="800"/><path class="cls-2" d="M963.89,644.68,948.17,419.89c4.6-.32,11.12-.55,15.72-.55Z" transform="translate(-560.38 -139.85)"/><path class="cls-3" d="M963.89,644.68,772.8,525.27c39.37-63,101.26-100.19,175.37-105.38Z" transform="translate(-560.38 -139.85)"/><path class="cls-4" d="M963.89,644.68V419.34c124.45,0,225.34,100.89,225.34,225.34S1088.34,870,963.89,870,738.55,769.13,738.55,644.68c0-45.3,10.24-81,34.25-119.41Z" transform="translate(-560.38 -139.85)"/><circle class="cls-1" cx="403" cy="503" r="150"/><path class="cls-5" d="M886.77,664.4a11.59,11.59,0,0,1-6-1.68,14,14,0,0,1-4.59-4.26l4.8-3.66a9.44,9.44,0,0,0,2.49,2.67,5.55,5.55,0,0,0,3.27,1,6.33,6.33,0,0,0,6-3.75q1.92-3.75,2-11.07a6.86,6.86,0,0,1-2.88,2.37,8.84,8.84,0,0,1-3.78.87,11.91,11.91,0,0,1-6-1.53,10.92,10.92,0,0,1-4.2-4.32,13.59,13.59,0,0,1-1.53-6.63,15.6,15.6,0,0,1,1.44-6.87,11.34,11.34,0,0,1,4.08-4.68,11,11,0,0,1,6.12-1.71,14.66,14.66,0,0,1,5,.87,9.91,9.91,0,0,1,4.2,3.06,15.9,15.9,0,0,1,2.88,6.21,38.93,38.93,0,0,1,.93,10.32q-.24,11.82-3.87,17.31A11.74,11.74,0,0,1,886.77,664.4Zm1.44-23.28a5.36,5.36,0,0,0,4.38-1.89,7,7,0,0,0,1.44-4.89,8.72,8.72,0,0,0-1.59-5.25,4.85,4.85,0,0,0-4-1.83,4.77,4.77,0,0,0-4.05,2,8.44,8.44,0,0,0-1.47,5.16,7.61,7.61,0,0,0,1.47,4.86A4.63,4.63,0,0,0,888.21,641.12Z" transform="translate(-560.38 -139.85)"/><path class="cls-5" d="M909.81,673.94l-1.86-3.3a9.44,9.44,0,0,0,4.8-2.79,6.28,6.28,0,0,0,1.8-4.23q0-.36,0-.66a3.79,3.79,0,0,0-.09-.54,5.32,5.32,0,0,1-1.5,1.32,3.57,3.57,0,0,1-1.86.54,4.2,4.2,0,0,1-2.91-1.11,3.86,3.86,0,0,1-1.23-3,3.49,3.49,0,0,1,1.41-3,5.8,5.8,0,0,1,3.33-1.11,6.09,6.09,0,0,1,4.89,2.13,8.21,8.21,0,0,1,2,5.67,8.62,8.62,0,0,1-2.4,6.18A15.8,15.8,0,0,1,909.81,673.94Z" transform="translate(-560.38 -139.85)"/><path class="cls-5" d="M933.45,664.4a11.59,11.59,0,0,1-6-1.68,14,14,0,0,1-4.59-4.26l4.8-3.66a9.44,9.44,0,0,0,2.49,2.67,5.55,5.55,0,0,0,3.27,1,6.33,6.33,0,0,0,6-3.75q1.92-3.75,2-11.07a6.86,6.86,0,0,1-2.88,2.37,8.84,8.84,0,0,1-3.78.87,11.91,11.91,0,0,1-6-1.53,10.92,10.92,0,0,1-4.2-4.32,13.59,13.59,0,0,1-1.53-6.63,15.6,15.6,0,0,1,1.44-6.87,11.34,11.34,0,0,1,4.08-4.68,11,11,0,0,1,6.12-1.71,14.66,14.66,0,0,1,5,.87,9.91,9.91,0,0,1,4.2,3.06,15.9,15.9,0,0,1,2.88,6.21,38.93,38.93,0,0,1,.93,10.32q-.24,11.82-3.87,17.31A11.74,11.74,0,0,1,933.45,664.4Zm1.44-23.28a5.36,5.36,0,0,0,4.38-1.89,7,7,0,0,0,1.44-4.89,8.72,8.72,0,0,0-1.59-5.25,4.85,4.85,0,0,0-4-1.83,4.77,4.77,0,0,0-4,2,8.44,8.44,0,0,0-1.47,5.16,7.61,7.61,0,0,0,1.47,4.86A4.63,4.63,0,0,0,934.89,641.12Z" transform="translate(-560.38 -139.85)"/><path class="cls-5" d="M961.29,663.8V630l-7.32,4.8-3.42-5.46,12.24-7.56h4.92V663.8Z" transform="translate(-560.38 -139.85)"/><path class="cls-5" d="M986.73,664.4a11.59,11.59,0,0,1-6-1.68,14,14,0,0,1-4.59-4.26l4.8-3.66a9.44,9.44,0,0,0,2.49,2.67,5.53,5.53,0,0,0,3.27,1,6.33,6.33,0,0,0,6-3.75c1.28-2.5,1.95-6.19,2-11.07a7,7,0,0,1-2.88,2.37,8.84,8.84,0,0,1-3.78.87,11.88,11.88,0,0,1-6-1.53,10.92,10.92,0,0,1-4.2-4.32,13.59,13.59,0,0,1-1.53-6.63,15.6,15.6,0,0,1,1.44-6.87,11.27,11.27,0,0,1,4.08-4.68,11,11,0,0,1,6.12-1.71,14.7,14.7,0,0,1,5,.87,10,10,0,0,1,4.2,3.06,15.9,15.9,0,0,1,2.88,6.21,38.93,38.93,0,0,1,.93,10.32q-.24,11.82-3.87,17.31A11.74,11.74,0,0,1,986.73,664.4Zm1.44-23.28a5.36,5.36,0,0,0,4.38-1.89,7,7,0,0,0,1.44-4.89,8.72,8.72,0,0,0-1.59-5.25,4.86,4.86,0,0,0-4-1.83,4.77,4.77,0,0,0-4,2,8.37,8.37,0,0,0-1.47,5.16,7.55,7.55,0,0,0,1.47,4.86A4.63,4.63,0,0,0,988.17,641.12Z" transform="translate(-560.38 -139.85)"/><path class="cls-5" d="M1006.35,665.15a8.11,8.11,0,0,0-.68-1,4.92,4.92,0,0,0-.81-.89,14.41,14.41,0,0,0,4.33-2.93,11.18,11.18,0,0,0,2.62-4.29,19,19,0,0,0,.87-6.1v-2.3h-7.58v-2h21.26v2H1015v2.3c0,.27,0,.54,0,.81l0,.78h8.66c0,.68-.05,1.5-.11,2.43s-.13,1.9-.21,2.89-.2,1.94-.33,2.82a21.17,21.17,0,0,1-.43,2.25,3.72,3.72,0,0,1-1.4,2.34,5.06,5.06,0,0,1-2.8.66H1016c0-.32-.1-.72-.19-1.2a7.57,7.57,0,0,0-.27-1.13h2.45a2,2,0,0,0,2.35-1.68c.11-.42.21-.94.31-1.56s.18-1.29.27-2,.13-1.39.17-2,.06-1.18.06-1.61h-6.38a14.79,14.79,0,0,1-2.74,6.89A16.16,16.16,0,0,1,1006.35,665.15Z" transform="translate(-560.38 -139.85)"/><path class="cls-5" d="M1030.44,665.34V645H1049V663c0,1.53-.91,2.3-2.71,2.3h-2.52c0-.21-.06-.46-.11-.77s-.12-.6-.19-.9a4.24,4.24,0,0,0-.23-.71h2.52a1.27,1.27,0,0,0,.73-.16.83.83,0,0,0,.23-.68v-6.33h-14v9.55Zm2.3-11.69h5.81v-6.53h-5.81Zm8.07,0h5.88v-6.53h-5.88Z" transform="translate(-560.38 -139.85)"/><path class="cls-5" d="M1169.91,924.71l-.48-2.36.78-.1,1-.16V906.3h8.23v14l1-.27.77-.21v2c-.49.16-1.1.35-1.82.56s-1.5.42-2.35.63l-2.57.64q-1.29.31-2.46.57C1171.18,924.45,1170.5,924.59,1169.91,924.71Zm3.38-13.4h3.94v-3h-3.94Zm0,4.92h3.94v-3h-3.94Zm0,5.45c1.33-.25,2.64-.53,3.94-.81v-2.74h-3.94Zm5.19,5.19a6.39,6.39,0,0,0-.61-1,7.51,7.51,0,0,0-.71-.8,17.26,17.26,0,0,0,3.12-1.88,7.93,7.93,0,0,0,2-2.41,11.27,11.27,0,0,0,1.14-3.49,30.82,30.82,0,0,0,.36-5.13h-3.31v-2.13h3.31v-4.73H1186v4.73h4.87c0,.49,0,1,0,1.57s0,1.12,0,1.71c0,1.84,0,3.52-.09,5s-.15,2.76-.27,3.73a8.09,8.09,0,0,1-.71,2.61,3,3,0,0,1-1.28,1.33,4.4,4.4,0,0,1-2,.38H1185c0-.35-.12-.73-.22-1.15a7,7,0,0,0-.26-.91h1.72a2.38,2.38,0,0,0,1-.18,1.45,1.45,0,0,0,.66-.73,6.38,6.38,0,0,0,.43-1.61c.13-.8.23-2,.31-3.44s.13-3.13.14-4.89V912.2H1186a31.06,31.06,0,0,1-.47,5.52,13.59,13.59,0,0,1-1.37,4,10.45,10.45,0,0,1-2.32,2.9A17.44,17.44,0,0,1,1178.48,926.87Z" transform="translate(-560.38 -139.85)"/><path class="cls-5" d="M1202.81,926.43a6.92,6.92,0,0,0-.56-.88,4.94,4.94,0,0,0-.69-.82,16.5,16.5,0,0,0,3.16-1.91,18.07,18.07,0,0,0,2.63-2.46,25.88,25.88,0,0,1-1.36-4,35.74,35.74,0,0,1-.9-5.17h-7V914h5.64c0,1.26,0,2.51-.11,3.73a21.25,21.25,0,0,1-.37,3.11,3.48,3.48,0,0,1-1.12,2.21,3.89,3.89,0,0,1-2.36.6h-1.39c0-.29-.1-.66-.19-1.11a6.58,6.58,0,0,0-.29-1h1.54a1.85,1.85,0,0,0,1.27-.3,2.33,2.33,0,0,0,.45-1.12,13.8,13.8,0,0,0,.26-1.87c0-.75.08-1.5.08-2.25H1198a31.11,31.11,0,0,1-.44,4.47,14.92,14.92,0,0,1-1,3.29,11.5,11.5,0,0,1-1.53,2.56,3.48,3.48,0,0,0-.61-.36l-.8-.41a4.24,4.24,0,0,0-.53-.24,10.08,10.08,0,0,0,1.54-2.75,16.83,16.83,0,0,0,.84-3.68,44.2,44.2,0,0,0,.26-5.14v-4.51h9.12c0-.66-.06-1.34-.08-2s0-1.45,0-2.2H1207c0,1.5,0,2.92.14,4.25h4.53a17.71,17.71,0,0,0-1.44-1.43,12.25,12.25,0,0,0-1.44-1.14l1.35-1.44a12.34,12.34,0,0,1,1.22.91c.45.37.88.74,1.29,1.12a9,9,0,0,1,.94,1c-.11.08-.27.22-.5.42l-.62.59H1215v2.06h-7.66a32,32,0,0,0,.66,3.89,28,28,0,0,0,1,3.17,18.7,18.7,0,0,0,1.39-2.57,19.75,19.75,0,0,0,1-2.76l2.08.7a22.65,22.65,0,0,1-3.4,6.81,10.17,10.17,0,0,0,1.56,2.08,9.11,9.11,0,0,0,1.72,1.4,16.54,16.54,0,0,0,.54-1.71,13.9,13.9,0,0,0,.35-1.62,4,4,0,0,0,.55.3q.39.18.81.33l.63.23c-.09.48-.22,1-.37,1.54s-.31,1.06-.48,1.56a8.44,8.44,0,0,1-.52,1.24,1.3,1.3,0,0,1-.85.72,1.57,1.57,0,0,1-1.19-.21,11.38,11.38,0,0,1-2.2-1.55,12.06,12.06,0,0,1-2.09-2.46A18.53,18.53,0,0,1,1202.81,926.43Z" transform="translate(-560.38 -139.85)"/><path class="cls-5" d="M1218.39,914.94c-.11-.23-.29-.53-.52-.9a4.63,4.63,0,0,0-.75-.95,17.25,17.25,0,0,0,3.09-1.48,28,28,0,0,0,3.11-2.12,26.74,26.74,0,0,0,2.7-2.4,13.32,13.32,0,0,0,1.87-2.33l2.09.34a15.38,15.38,0,0,0,2.12,2.43,23.33,23.33,0,0,0,2.67,2.16,25.3,25.3,0,0,0,2.9,1.77,28.78,28.78,0,0,0,2.8,1.27,5,5,0,0,0-.53.65c-.19.27-.37.54-.54.8s-.29.48-.37.64c-.82-.37-1.69-.82-2.63-1.36a31.53,31.53,0,0,1-2.8-1.81,27.33,27.33,0,0,1-2.62-2.16,14.45,14.45,0,0,1-2.1-2.4,15.39,15.39,0,0,1-2,2.12,32.55,32.55,0,0,1-2.68,2.21,35.22,35.22,0,0,1-3,2A27,27,0,0,1,1218.39,914.94Zm.29,11.06v-1.92h9v-5.42h-7.36v-2h7.36v-2.48h-4.29v-2h10.89v2H1230v2.48h7.3v2H1230v5.42h8.83V926Zm5.3-2.06a9.61,9.61,0,0,0-.65-1.26c-.28-.49-.59-1-.91-1.44a6.71,6.71,0,0,0-.91-1.12l1.8-1.08a20,20,0,0,1,1.34,1.8c.43.66.83,1.31,1.18,2Zm9.6,0-1.82-.94c.36-.56.75-1.22,1.16-2a16.53,16.53,0,0,0,.95-2.09l2,.84c-.16.39-.37.83-.63,1.33s-.53,1-.81,1.5S1233.84,923.54,1233.58,923.94Z" transform="translate(-560.38 -139.85)"/><path class="cls-6" d="M1180.28,888.4a12.87,12.87,0,0,1-6.54-1.62,11.33,11.33,0,0,1-4.41-4.56,13.89,13.89,0,0,1-1.59-6.78,10.61,10.61,0,0,1,1.65-5.79,11.17,11.17,0,0,1,4-3.93,11.16,11.16,0,0,1-3.36-3.57,9.75,9.75,0,0,1-1.32-5.13,12.56,12.56,0,0,1,1.47-6.21,10.62,10.62,0,0,1,4.08-4.17,11.76,11.76,0,0,1,6-1.5,11.89,11.89,0,0,1,6,1.5,10.69,10.69,0,0,1,4.08,4.17,12.67,12.67,0,0,1,1.47,6.21,9.58,9.58,0,0,1-1.35,5.13,12.37,12.37,0,0,1-3.27,3.57,11,11,0,0,1,4,3.93,10.76,10.76,0,0,1,1.62,5.79,13.78,13.78,0,0,1-1.62,6.81,11.65,11.65,0,0,1-4.44,4.53A12.92,12.92,0,0,1,1180.28,888.4Zm0-6.12a6,6,0,0,0,4.59-1.71,7.44,7.44,0,0,0,1.59-5.19,7.77,7.77,0,0,0-1.59-5.13,5.66,5.66,0,0,0-4.59-1.89,5.59,5.59,0,0,0-4.53,1.89,7.72,7.72,0,0,0-1.59,5.13Q1174.16,882.28,1180.28,882.28Zm0-19a4.59,4.59,0,0,0,3.81-1.62,7.15,7.15,0,0,0,1.29-4.56,6,6,0,0,0-1.44-4.38,5.37,5.37,0,0,0-7.32,0,6,6,0,0,0-1.44,4.38,7.09,7.09,0,0,0,1.29,4.56A4.58,4.58,0,0,0,1180.28,863.26Z" transform="translate(-560.38 -139.85)"/><path class="cls-6" d="M1212.56,887.8v-9.18h-16.44V873.7l16.5-28.08h6V873h5.88v5.64h-5.88v9.18Zm-10-14.82h10V855.82Z" transform="translate(-560.38 -139.85)"/><path class="cls-6" d="M1232.89,888.46a4.43,4.43,0,0,1-3.21-1.32,4.27,4.27,0,0,1-1.35-3.18,4.36,4.36,0,0,1,1.35-3.24,4.56,4.56,0,0,1,6.42,0,4.36,4.36,0,0,1,1.35,3.24,4.27,4.27,0,0,1-1.35,3.18A4.43,4.43,0,0,1,1232.89,888.46Z" transform="translate(-560.38 -139.85)"/><path class="cls-6" d="M1251.49,887.8V854l-7.32,4.8-3.42-5.46,12.24-7.56h4.92V887.8Z" transform="translate(-560.38 -139.85)"/><path class="cls-6" d="M1270,879.21a3.29,3.29,0,0,1-2.63-1.15,4.64,4.64,0,0,1-1-3.12,4.53,4.53,0,0,1,1-3.08,3.6,3.6,0,0,1,5.26,0,4.52,4.52,0,0,1,1,3.08,4.63,4.63,0,0,1-1,3.12A3.31,3.31,0,0,1,1270,879.21Zm-1.15,9.07-1.08-.76L1280,870.45l1,.79Zm1.15-10.75a1.7,1.7,0,0,0,1.44-.67,3.2,3.2,0,0,0,.5-1.92,3.16,3.16,0,0,0-.5-1.9,1.72,1.72,0,0,0-1.44-.67,1.75,1.75,0,0,0-1.47.67,3.16,3.16,0,0,0-.5,1.9,3.2,3.2,0,0,0,.5,1.92A1.73,1.73,0,0,0,1270,877.53Zm8.88,10.54a3.34,3.34,0,0,1-2.62-1.14,5.23,5.23,0,0,1,0-6.18,3.57,3.57,0,0,1,5.25,0,5.32,5.32,0,0,1,0,6.18A3.33,3.33,0,0,1,1278.88,888.07Zm0-1.63a1.7,1.7,0,0,0,1.46-.68,3.09,3.09,0,0,0,.51-1.92,3.13,3.13,0,0,0-.51-1.92,1.72,1.72,0,0,0-1.46-.67,1.75,1.75,0,0,0-1.47.67,3.2,3.2,0,0,0-.5,1.92,3.16,3.16,0,0,0,.5,1.92A1.73,1.73,0,0,0,1278.88,886.44Z" transform="translate(-560.38 -139.85)"/><path class="cls-5" d="M1016,384.89a9.46,9.46,0,0,0-.19-1.1,4.88,4.88,0,0,0-.31-1h2.14a1.15,1.15,0,0,0,.72-.18.8.8,0,0,0,.21-.63v-6.12h-16.08V374h3.53a8.51,8.51,0,0,0-.65-1.53,16.62,16.62,0,0,0,3.61-.72,4.85,4.85,0,0,0,2.25-1.49h-4.78v-1.7h5.59a4,4,0,0,0,.14-.74c0-.26,0-.53,0-.8l2.07.07c0,.26,0,.51-.08.76s-.07.48-.12.71h6.12v1.7h-4.75a7.29,7.29,0,0,0,2.49,1.48,13.8,13.8,0,0,0,3.3.73,3.22,3.22,0,0,0-.4.71c-.15.32-.27.6-.35.82h3.63v1.83h-3.41v6.86a2,2,0,0,1-.64,1.68,3.06,3.06,0,0,1-2,.53Zm-12.86-15.17v-4.94h9v-1.9h2.32v1.9h9v4.85h-2.07v-3h-16.17v3.12Zm3,13v-5.56h8.88v5.56Zm1.2-8.76h11.86a11.74,11.74,0,0,1-3.34-1.27,7.72,7.72,0,0,1-2.5-2.25,6.15,6.15,0,0,1-2.26,2.24A11.35,11.35,0,0,1,1007.38,374Zm.89,7.08h4.7v-2.18h-4.7Z" transform="translate(-560.38 -139.85)"/><path class="cls-5" d="M1030.25,384.75v-13c-.48.64-1,1.25-1.46,1.83s-1,1.09-1.44,1.53a6.14,6.14,0,0,0-.75-.7,6.39,6.39,0,0,0-.86-.64,13.53,13.53,0,0,0,1.58-1.66q.84-1,1.68-2.22c.56-.8,1.09-1.63,1.58-2.47s.9-1.64,1.26-2.4a13.78,13.78,0,0,0,.76-2l2,.72a24.31,24.31,0,0,1-.94,2.3q-.57,1.2-1.26,2.4v16.35Zm9.22-.08a7.32,7.32,0,0,0-.19-1.15,6.84,6.84,0,0,0-.34-1h2.71a1.11,1.11,0,0,0,.72-.18.81.81,0,0,0,.22-.66V370.71h-9v-2.09h9v-5.38h2.23v5.38h3.55v2.09h-3.55v11.71a2.11,2.11,0,0,1-.64,1.71,3,3,0,0,1-2,.54Zm-.87-5.88a13.39,13.39,0,0,0-1-1.6c-.42-.63-.87-1.24-1.33-1.84a14.79,14.79,0,0,0-1.25-1.45l1.83-1.25a18.37,18.37,0,0,1,1.26,1.43c.45.57.9,1.15,1.33,1.75a14.78,14.78,0,0,1,1,1.67,5.2,5.2,0,0,0-.61.35c-.26.16-.52.34-.77.52Z" transform="translate(-560.38 -139.85)"/><path class="cls-5" d="M1050.94,372.94a8.32,8.32,0,0,0-.52-.9,4.63,4.63,0,0,0-.75-1,17.25,17.25,0,0,0,3.09-1.48,28,28,0,0,0,3.11-2.12,26.74,26.74,0,0,0,2.7-2.4,12.87,12.87,0,0,0,1.87-2.33l2.09.34a15,15,0,0,0,2.13,2.43,22.38,22.38,0,0,0,2.66,2.16,25.3,25.3,0,0,0,2.9,1.77,28.78,28.78,0,0,0,2.8,1.27,5,5,0,0,0-.53.65c-.19.27-.37.54-.54.8s-.29.48-.37.64c-.82-.37-1.69-.82-2.63-1.36a30,30,0,0,1-2.79-1.81,26.27,26.27,0,0,1-2.63-2.16,14.45,14.45,0,0,1-2.1-2.4,15.39,15.39,0,0,1-2,2.12,34.1,34.1,0,0,1-2.67,2.21c-1,.73-2,1.4-3,2A27,27,0,0,1,1050.94,372.94Zm.29,11.06v-1.92h9v-5.42h-7.36v-2h7.36v-2.48h-4.29v-2h10.9v2h-4.28v2.48h7.3v2h-7.3v5.42h8.83V384Zm5.3-2.06a9.61,9.61,0,0,0-.65-1.26c-.28-.49-.59-1-.91-1.44a6.71,6.71,0,0,0-.91-1.12l1.8-1.08a20,20,0,0,1,1.34,1.8,22.78,22.78,0,0,1,1.18,2Zm9.6,0-1.82-.94c.37-.56.75-1.22,1.16-2a15.22,15.22,0,0,0,1-2.09l2,.84c-.16.39-.37.83-.63,1.33s-.52,1-.81,1.5S1066.39,381.54,1066.13,381.94Z" transform="translate(-560.38 -139.85)"/><path class="cls-5" d="M1085.36,376.23a2.32,2.32,0,1,1,1.65-.69A2.22,2.22,0,0,1,1085.36,376.23Z" transform="translate(-560.38 -139.85)"/><path class="cls-5" d="M1098.46,383.45v-2.06h3.77v-10.9h2.28v10.9h3.72v-15h-8.86v-2.09h20v2.09h-8.76v6.1h6.52v2.16h-6.52v6.77h9.69v2.06Z" transform="translate(-560.38 -139.85)"/><path class="cls-5" d="M1123.13,372.91a5,5,0,0,0-.38-.6c-.18-.24-.36-.47-.55-.7a3.94,3.94,0,0,0-.51-.54,19.9,19.9,0,0,0,3.11-1.54,33.33,33.33,0,0,0,3.1-2.12,25.13,25.13,0,0,0,2.66-2.38,12.38,12.38,0,0,0,1.81-2.32l2,.29a15.18,15.18,0,0,0,1.95,2.2,26.34,26.34,0,0,0,2.61,2.17,30.45,30.45,0,0,0,3,1.93,21.43,21.43,0,0,0,3,1.45c-.19.24-.43.56-.7.95s-.51.77-.72,1.14a29.55,29.55,0,0,1-3.77-2,30.59,30.59,0,0,1-3.63-2.71,19.42,19.42,0,0,1-2.82-3,15.45,15.45,0,0,1-2,2.21,29.51,29.51,0,0,1-2.64,2.19c-1,.72-1.93,1.37-2.89,2A24.81,24.81,0,0,1,1123.13,372.91ZM1140.84,385a10.32,10.32,0,0,0-.82-1.29c-.35-.47-.72-.95-1.12-1.43-.72.15-1.55.3-2.5.46s-1.93.31-3,.46l-3.12.39-2.94.33-2.41.21-.44-2.21c.37,0,.81,0,1.31,0l1.65-.12q.4-.63.87-1.47c.31-.56.62-1.14.93-1.75s.56-1.17.79-1.68h-6.51v-2h19.59v2h-10.51c-.34.74-.73,1.52-1.18,2.36s-.88,1.61-1.3,2.3c1.3-.13,2.6-.28,3.89-.44s2.43-.32,3.39-.48a19.08,19.08,0,0,0-2.07-2l1.66-1.32a16.35,16.35,0,0,1,1.39,1.24c.53.52,1.07,1.08,1.62,1.69s1.06,1.2,1.54,1.79.85,1.09,1.14,1.52c-.13.08-.33.22-.59.41s-.52.38-.76.58A4.64,4.64,0,0,0,1140.84,385Zm-13.15-12.51v-2h11.38v2Z" transform="translate(-560.38 -139.85)"/><path class="cls-5" d="M1166.21,385c-.67-.21-1.43-.49-2.29-.84s-1.68-.74-2.48-1.15a15.72,15.72,0,0,1-2-1.23l1.06-1.15h-6.19l1,1.13a18.61,18.61,0,0,1-2,1.2c-.8.42-1.62.8-2.48,1.15s-1.64.64-2.36.87c-.07-.13-.18-.31-.33-.53s-.31-.45-.48-.67a3.1,3.1,0,0,0-.44-.51,16.63,16.63,0,0,0,2-.62c.79-.29,1.57-.61,2.34-1a16.33,16.33,0,0,0,2-1.05h-3.77V370H1165v10.63h-3.84a15.83,15.83,0,0,0,2,1c.79.35,1.57.66,2.36.94s1.44.48,2,.61a2.64,2.64,0,0,0-.44.5c-.17.24-.33.49-.48.74Zm-15.79-16.22v-5.26h13.85v5.26Zm1.66,4.22h10.63v-1.42h-10.63Zm0,3h10.63v-1.51h-10.63Zm0,3h10.63v-1.54h-10.63Zm.6-11.95H1162v-1.92h-9.33Z" transform="translate(-560.38 -139.85)"/><path class="cls-5" d="M1171.13,372.91a5,5,0,0,0-.38-.6c-.18-.24-.36-.47-.55-.7a3.94,3.94,0,0,0-.51-.54,19.9,19.9,0,0,0,3.11-1.54,33.33,33.33,0,0,0,3.1-2.12,25.13,25.13,0,0,0,2.66-2.38,12.38,12.38,0,0,0,1.81-2.32l2,.29a15.18,15.18,0,0,0,1.95,2.2,26.34,26.34,0,0,0,2.61,2.17,30.45,30.45,0,0,0,3,1.93,21.43,21.43,0,0,0,3,1.45c-.19.24-.43.56-.7.95s-.51.77-.72,1.14a29.55,29.55,0,0,1-3.77-2,30.59,30.59,0,0,1-3.63-2.71,19.42,19.42,0,0,1-2.82-3,15.45,15.45,0,0,1-2,2.21,29.51,29.51,0,0,1-2.64,2.19c-1,.72-1.93,1.37-2.89,2A24.81,24.81,0,0,1,1171.13,372.91ZM1188.84,385a10.32,10.32,0,0,0-.82-1.29c-.35-.47-.72-.95-1.12-1.43-.72.15-1.55.3-2.5.46s-1.93.31-3,.46l-3.12.39-2.94.33-2.41.21-.44-2.21c.37,0,.81,0,1.31,0l1.65-.12q.4-.63.87-1.47c.31-.56.62-1.14.93-1.75s.56-1.17.79-1.68h-6.51v-2h19.59v2h-10.51c-.34.74-.73,1.52-1.18,2.36s-.88,1.61-1.3,2.3c1.3-.13,2.6-.28,3.89-.44s2.43-.32,3.39-.48a19.08,19.08,0,0,0-2.07-2l1.66-1.32a16.35,16.35,0,0,1,1.39,1.24c.53.52,1.07,1.08,1.62,1.69s1.06,1.2,1.54,1.79.85,1.09,1.14,1.52c-.13.08-.33.22-.59.41s-.52.38-.76.58A4.64,4.64,0,0,0,1188.84,385Zm-13.15-12.51v-2h11.38v2Z" transform="translate(-560.38 -139.85)"/><path class="cls-5" d="M1196.64,385a3.88,3.88,0,0,0-.25-.59c-.12-.25-.25-.5-.38-.75a4.27,4.27,0,0,0-.35-.54,17.74,17.74,0,0,0,2-.45q1.13-.32,2.28-.72a21.92,21.92,0,0,0,2.06-.84h-3.24v-7a21,21,0,0,1-3.65,1.27,5.71,5.71,0,0,0-.37-.89,8.81,8.81,0,0,0-.47-.84,15.55,15.55,0,0,0,3.52-1,7,7,0,0,0,2.36-1.63h-4.32c.11-.34.22-.76.33-1.27s.2-1,.3-1.51.16-.9.19-1.2h5c0-.18,0-.36,0-.53s0-.36,0-.55v-.1h-6v-1.49h6v-1.39h2.18v1.39h3v-1.39h2.18v1.39h5.21v4h-5.21v1.22H1216a14.85,14.85,0,0,1-.28,2.44,3.6,3.6,0,0,1-.58,1.4,1.83,1.83,0,0,1-1,.66,6.71,6.71,0,0,1-1.55.23c-.05-.26-.13-.58-.24-1a7.47,7.47,0,0,0-.29-.88,5.45,5.45,0,0,0,1.07-.08.67.67,0,0,0,.48-.4,4,4,0,0,0,.23-1h-4.78v1.39H1212v8.74h-3.34a21.11,21.11,0,0,0,2.07.84c.76.27,1.53.51,2.29.72a18.49,18.49,0,0,0,2,.45,5.79,5.79,0,0,0-.35.54c-.13.25-.26.5-.38.75a5.28,5.28,0,0,0-.25.59c-.77-.18-1.58-.4-2.43-.68s-1.67-.58-2.48-.92a23,23,0,0,1-2.22-1.07l.84-1.22h-4.85l.84,1.22a19.86,19.86,0,0,1-2.21,1.07c-.81.34-1.64.65-2.48.92S1197.43,384.81,1196.64,385Zm1.52-15.46h2.92a2.72,2.72,0,0,0,.24-.58c.07-.2.13-.42.2-.64h-3.08c0,.12-.08.34-.14.64A4.39,4.39,0,0,1,1198.16,369.53Zm2.73,5.3h9v-1h-9Zm0,2.38h9v-1.08h-9Zm0,2.38h9v-1.08h-9Zm.48-7.23h5.57V371h-4.37a4.29,4.29,0,0,1-.55.72C1201.81,371.91,1201.6,372.14,1201.37,372.36Zm2-2.83h3.62v-1.22h-3.26A10.28,10.28,0,0,1,1203.32,369.53Zm.57-2.54h3v-1.18h-3v.1c0,.19,0,.37,0,.55S1203.91,366.81,1203.89,367Zm5.23,0h3.1v-1.18h-3.1Z" transform="translate(-560.38 -139.85)"/><path class="cls-5" d="M873,188.33c-.61-.26-1.33-.53-2.18-.82a10.54,10.54,0,0,0-2.23-.53,19.93,19.93,0,0,0,1.48-3.26c.48-1.31.91-2.67,1.28-4.08a35.61,35.61,0,0,0,.79-3.84l4.27.91a38,38,0,0,1-.79,3.94c-.37,1.47-.78,2.89-1.23,4.27A21,21,0,0,1,873,188.33Zm3.94,4.7V173.54l-3.72.46c-1.2.14-2.27.25-3.19.31l-.68-4.94,1.28,0c.46,0,.95,0,1.46-.07.58-.58,1.21-1.28,1.9-2.11s1.38-1.75,2.08-2.74q-1.57-1.24-3.48-2.59c-1.26-.9-2.47-1.68-3.62-2.35l2.69-4,.79.5c.27.18.57.36.89.55.45-.73.92-1.56,1.41-2.47s1-1.81,1.4-2.69.76-1.61,1-2.18l4.66,1.92c-.71,1.28-1.49,2.64-2.36,4.08s-1.68,2.72-2.44,3.84c.35.22.68.45,1,.69s.61.48.87.7q1.29-1.92,2.37-3.67t1.71-2.91l4.32,2.31q-1,1.73-2.55,4t-3.21,4.53q-1.68,2.31-3.27,4.32c.84-.06,1.67-.13,2.5-.21l2.35-.22a26.28,26.28,0,0,0-1.1-2.64l4.32-1.49q.62,1.2,1.32,2.91c.46,1.13.9,2.28,1.32,3.43s.75,2.16,1,3c-.64.2-1.43.46-2.36.8s-1.68.63-2.25.88c-.13-.38-.27-.83-.41-1.34s-.3-1-.46-1.58a9.93,9.93,0,0,0-1.17.16c-.4.08-.83.16-1.27.22V193Zm8.83-7q-.39-1-.93-2.76c-.37-1.14-.73-2.32-1.06-3.55s-.6-2.3-.79-3.19l4.41-1.2c.19.8.47,1.75.82,2.85s.73,2.19,1.13,3.27.76,2,1.08,2.66a16.53,16.53,0,0,0-2.4.84C887.13,185.36,886.38,185.72,885.74,186.07Zm1.44,5.66v-4.94h10.51V181h-7.2v-4.85h7.2v-5h5.52v5h8.07V181h-8.07v5.76h10.27v4.94Zm3.94-19a24.57,24.57,0,0,0-1.2-2.24,11.3,11.3,0,0,0-1.59-2.13,33,33,0,0,0,4.44-1.92,30.74,30.74,0,0,0,3.91-2.45,30.39,30.39,0,0,1-5-8.45h-3.45V151h21.69l1.68,1.73a50,50,0,0,1-3.29,6,37.08,37.08,0,0,1-4,5.16,25.69,25.69,0,0,0,4.42,2.21,30.77,30.77,0,0,0,4.85,1.44,10.86,10.86,0,0,0-1,1.37,18.08,18.08,0,0,0-1,1.8,13.66,13.66,0,0,0-.7,1.58,47.6,47.6,0,0,1-5.61-2.06,25.46,25.46,0,0,1-4.76-2.74,31,31,0,0,1-4.41,2.93A35.93,35.93,0,0,1,891.12,172.73Zm9.31-12a23.27,23.27,0,0,0,2.21-2.55,20.89,20.89,0,0,0,1.68-2.64h-7.49a27,27,0,0,0,1.65,2.79A19.82,19.82,0,0,0,900.43,160.73Z" transform="translate(-560.38 -139.85)"/><path class="cls-5" d="M918.29,167.93V156.65h9.35c-.51-.84-1.08-1.72-1.7-2.67a20.65,20.65,0,0,0-1.56-2.13l4.9-2.6a19.45,19.45,0,0,1,1.51,1.95q.88,1.28,1.68,2.52a16.83,16.83,0,0,1,1.08,1.87l-1,.46c-.36.17-.76.37-1.17.6h5v-7.44h5.81v7.44h5.32c-1-.42-1.76-.76-2.4-1a33.14,33.14,0,0,0,1.92-3.19,32.42,32.42,0,0,0,1.54-3.24l5.19,2.2c-.33.68-.76,1.51-1.3,2.5s-1.09,1.9-1.63,2.74h9.6v11.28H955v-6.68H923.81v6.68Zm18.14,25.29V180.5h-7.54v10.61h-5.71V176h13.25v-2.11h-9V163.22h23.86v10.66h-9V176h13.63v10.32a4.9,4.9,0,0,1-1.35,3.84q-1.34,1.2-4.41,1.2h-3.75a19.9,19.9,0,0,0-.45-2.81,14.49,14.49,0,0,0-.79-2.57h3.26a2.14,2.14,0,0,0,1.34-.31,1.59,1.59,0,0,0,.39-1.27V180.5h-7.87v12.72Zm-3.7-23.28h13.2v-2.78h-13.2Z" transform="translate(-560.38 -139.85)"/><path class="cls-5" d="M977.28,193V180.84l-3.68,1.25c-1.32.44-2.65.87-4,1.27s-2.55.74-3.67,1l-1.44-5.71c.41-.07.89-.17,1.44-.31l1.73-.46V155.4H973v21c.76-.25,1.52-.49,2.25-.69l2.07-.6V149.54h5.42V188a35,35,0,0,0,5.78-4.22,38,38,0,0,0,4.83-5.24,40.55,40.55,0,0,1-4.18-9.38,49,49,0,0,1-1.92-10.92h-2.83V153h23.23a60.84,60.84,0,0,1-2.42,13.92,49.5,49.5,0,0,1-5.11,11.47,34.43,34.43,0,0,0,10.51,9.26,15.08,15.08,0,0,0-2.21,2.19,18.94,18.94,0,0,0-1.82,2.47,47.72,47.72,0,0,1-10-9.07,42.55,42.55,0,0,1-4.8,5,43.32,43.32,0,0,1-5.57,4.15,25.93,25.93,0,0,0-1.63-2.09,16.91,16.91,0,0,0-1.87-1.9V193Zm19.44-19.87a42.06,42.06,0,0,0,4.65-14.93h-8.73a34.54,34.54,0,0,0,1.24,7.75A37.27,37.27,0,0,0,996.72,173.16Z" transform="translate(-560.38 -139.85)"/><path class="cls-5" d="M1013.9,192.07v-5h6.86V175.65c-.8.55-1.62,1.08-2.47,1.59s-1.72,1-2.61,1.44a15.91,15.91,0,0,0-1.49-2.45,13.6,13.6,0,0,0-1.87-2.11,34.06,34.06,0,0,0,7.94-5.07,29,29,0,0,0,5.64-6.4h-11.23V157.8h11.9c-.61-1-1.29-2.11-2.06-3.27a35.28,35.28,0,0,0-2.11-2.88l4.89-2.73c.55.64,1.15,1.41,1.8,2.33s1.29,1.84,1.9,2.78,1.1,1.78,1.49,2.52a8.81,8.81,0,0,0-1.08.53l-1.28.72h7.64c.48-.83,1-1.79,1.53-2.86s1.06-2.13,1.54-3.17a28,28,0,0,0,1.1-2.66l5.76,1.44c-.48,1.09-1,2.28-1.7,3.58s-1.32,2.52-2,3.67h12.19v4.85h-11.38a26.89,26.89,0,0,0,5.62,6.4,31.41,31.41,0,0,0,8.06,4.83,17.44,17.44,0,0,0-1.94,2.25,17.09,17.09,0,0,0-1.61,2.55c-.9-.45-1.75-.92-2.57-1.42s-1.61-1-2.37-1.51v11.33h6.81v5Zm11.42-20.16h20a41.86,41.86,0,0,1-3.82-4.39,36.65,36.65,0,0,1-3.09-4.87h-6.14A36.29,36.29,0,0,1,1025.32,171.91Zm.92,15.17h3V176.76h-3Zm7.63,0h3V176.76h-3Zm7.68,0h3V176.76h-3Z" transform="translate(-560.38 -139.85)"/><path class="cls-7" d="M1014.06,346.4q-4.81,0-7.5-2.4a13.29,13.29,0,0,1-3.82-7.2,66.17,66.17,0,0,1,0-24,13.32,13.32,0,0,1,3.82-7.23q2.69-2.4,7.5-2.4t7.46,2.4a13.56,13.56,0,0,1,3.79,7.23,66.17,66.17,0,0,1,0,24,13.54,13.54,0,0,1-3.79,7.2Q1018.85,346.4,1014.06,346.4Zm0-6.12a4.51,4.51,0,0,0,3.5-1.41,9.55,9.55,0,0,0,1.89-4.77,55.63,55.63,0,0,0,.61-9.3,56.27,56.27,0,0,0-.61-9.36,9.63,9.63,0,0,0-1.89-4.77,4.51,4.51,0,0,0-3.5-1.41,4.62,4.62,0,0,0-3.55,1.41,9.27,9.27,0,0,0-1.89,4.77,59.6,59.6,0,0,0-.56,9.36,58.92,58.92,0,0,0,.56,9.3,9.2,9.2,0,0,0,1.89,4.77A4.62,4.62,0,0,0,1014.06,340.28Z" transform="translate(-560.38 -139.85)"/><path class="cls-7" d="M1036.8,346.46a4.46,4.46,0,0,1-3.22-1.32,4.26,4.26,0,0,1-1.34-3.18,4.35,4.35,0,0,1,1.34-3.24,4.58,4.58,0,0,1,6.43,0,4.35,4.35,0,0,1,1.34,3.24,4.26,4.26,0,0,1-1.34,3.18A4.47,4.47,0,0,1,1036.8,346.46Z" transform="translate(-560.38 -139.85)"/><path class="cls-7" d="M1056.29,346.4a11.52,11.52,0,0,1-6-1.68,13.84,13.84,0,0,1-4.59-4.26l4.8-3.66a9.3,9.3,0,0,0,2.49,2.67,5.49,5.49,0,0,0,3.26,1,6.33,6.33,0,0,0,6-3.75q1.92-3.75,2-11.07a6.86,6.86,0,0,1-2.88,2.37,8.83,8.83,0,0,1-3.77.87,11.92,11.92,0,0,1-6-1.53,10.89,10.89,0,0,1-4.19-4.32,13.59,13.59,0,0,1-1.54-6.63,15.57,15.57,0,0,1,1.44-6.87,11.34,11.34,0,0,1,4.08-4.68,11,11,0,0,1,6.13-1.71,14.64,14.64,0,0,1,5,.87,9.91,9.91,0,0,1,4.2,3.06,15.9,15.9,0,0,1,2.88,6.21,39.31,39.31,0,0,1,.94,10.32q-.25,11.82-3.88,17.31A11.74,11.74,0,0,1,1056.29,346.4Zm1.45-23.28a5.39,5.39,0,0,0,4.38-1.89,7.05,7.05,0,0,0,1.44-4.89,8.85,8.85,0,0,0-1.59-5.25,4.87,4.87,0,0,0-4-1.83,4.74,4.74,0,0,0-4,2,8.38,8.38,0,0,0-1.48,5.16,7.55,7.55,0,0,0,1.48,4.86A4.62,4.62,0,0,0,1057.74,323.12Z" transform="translate(-560.38 -139.85)"/><path class="cls-7" d="M1078.1,337.21a3.29,3.29,0,0,1-2.63-1.15,4.64,4.64,0,0,1-1-3.12,4.53,4.53,0,0,1,1-3.08,3.6,3.6,0,0,1,5.26,0,4.52,4.52,0,0,1,1,3.08,4.63,4.63,0,0,1-1,3.12A3.31,3.31,0,0,1,1078.1,337.21Zm-1.15,9.07-1.08-.76,12.24-17.07,1.05.79Zm1.15-10.75a1.7,1.7,0,0,0,1.44-.67,3.2,3.2,0,0,0,.5-1.92,3.16,3.16,0,0,0-.5-1.9,1.72,1.72,0,0,0-1.44-.67,1.75,1.75,0,0,0-1.47.67,3.16,3.16,0,0,0-.5,1.9,3.2,3.2,0,0,0,.5,1.92A1.73,1.73,0,0,0,1078.1,335.53Zm8.88,10.54a3.34,3.34,0,0,1-2.62-1.14,5.23,5.23,0,0,1,0-6.18,3.57,3.57,0,0,1,5.25,0,5.32,5.32,0,0,1,0,6.18A3.33,3.33,0,0,1,1087,346.07Zm0-1.63a1.7,1.7,0,0,0,1.46-.68,3.09,3.09,0,0,0,.51-1.92,3.13,3.13,0,0,0-.51-1.92,1.72,1.72,0,0,0-1.46-.67,1.75,1.75,0,0,0-1.47.67,3.2,3.2,0,0,0-.5,1.92,3.16,3.16,0,0,0,.5,1.92A1.73,1.73,0,0,0,1087,344.44Z" transform="translate(-560.38 -139.85)"/><path class="cls-5" d="M639.54,382.42a7.6,7.6,0,0,0-.2-1,5.89,5.89,0,0,0-.31-.95h2.31a1.23,1.23,0,0,0,.72-.17.8.8,0,0,0,.21-.65v-1.39h-8.09v-1.63h8.09v-1.39h-10v-1.51h10v-1.32h-8.11v-1.52h8.11V369.6H636v-4.34h6.31v-1.15H633v-1.64h9.26V360.6h2.21v1.87h9.26v1.64h-9.26v1.15h6.26v4.34h-6.26v1.27h7.34v2.84h2.57v1.51h-2.57v3h-7.34v1.92a2.12,2.12,0,0,1-.65,1.72,3.05,3.05,0,0,1-2,.54ZM638,368.11h4.27v-1.36H638Zm6.48,0h4.22v-1.36h-4.22Zm0,5.6h5.21v-1.32h-5.21Zm0,2.9h5.21v-1.39h-5.21Z" transform="translate(-560.38 -139.85)"/><path class="cls-5" d="M666.3,382.51v-5.2a19.12,19.12,0,0,1-2.5,1.93,28.22,28.22,0,0,1-2.94,1.67,24.44,24.44,0,0,1-3,1.22,3,3,0,0,0-.29-.53c-.14-.22-.29-.45-.45-.68a4.09,4.09,0,0,0-.41-.52,18.54,18.54,0,0,0,2.83-1.07,26.6,26.6,0,0,0,2.89-1.53,25,25,0,0,0,2.44-1.67h-8.09V374.4h9.51v-1.49h-7.16v-1.65h7.16v-1.42h-8.16v-1.7h4.77q-.21-.48-.45-1a8.73,8.73,0,0,0-.48-.88h-5.21v-1.73h4c-.21-.42-.46-.92-.74-1.51a8.18,8.18,0,0,0-.84-1.42l1.87-.89c.19.31.4.67.62,1.08s.44.82.64,1.21.35.71.44.95l-1.34.58h2.71V360.6h2v3.94h2.16V360.6h2v3.94h2.76l-1.58-.63c.2-.27.43-.6.67-1s.46-.77.67-1.16a10.65,10.65,0,0,0,.48-1l2,.64q-.24.47-.6,1.05l-.72,1.15c-.24.38-.46.69-.65,1h4.39v1.73h-5.23a9.27,9.27,0,0,1-.41.94l-.45.93h4.58v1.7h-8v1.42h7.08v1.65h-7.08v1.49h9.5v1.73h-8.13a24.92,24.92,0,0,0,2.43,1.64A31.4,31.4,0,0,0,675,379.3a20.51,20.51,0,0,0,2.81,1.08,4,4,0,0,0-.4.51c-.15.24-.29.47-.42.7s-.22.41-.28.54a25.56,25.56,0,0,1-3-1.22,26.79,26.79,0,0,1-2.91-1.67,22.43,22.43,0,0,1-2.5-1.91v5.18Zm-1.08-14.37h4.22c.14-.27.3-.58.46-.91s.3-.66.43-1h-6c.16.32.31.64.46,1S665.12,367.88,665.22,368.14Z" transform="translate(-560.38 -139.85)"/><path class="cls-5" d="M686.65,382.35v-6.7c-.58.21-1.23.43-2,.67l-2.16.69c-.71.21-1.35.39-1.93.54l-.6-2.16.79-.2,1-.26v-11.3h2.06v10.72l1.49-.46,1.32-.42V360.63h2.09v21.72Zm3.72-.34c-.16-.22-.39-.51-.69-.86a4,4,0,0,0-.78-.77,18,18,0,0,0,3.17-2.33,19.25,19.25,0,0,0,2.59-2.9,20.61,20.61,0,0,1-2.19-4.84,24.08,24.08,0,0,1-1-5.6h-1.73v-2H701.1a29.79,29.79,0,0,1-1.29,6.77,25.06,25.06,0,0,1-2.58,5.64,18.81,18.81,0,0,0,5.55,5,4.46,4.46,0,0,0-.54.5,7.69,7.69,0,0,0-.6.7q-.28.36-.45.6a27.25,27.25,0,0,1-2.87-2.33,23,23,0,0,1-2.41-2.64,21.14,21.14,0,0,1-2.57,2.77A21.81,21.81,0,0,1,690.37,382Zm5.59-8.88a21.67,21.67,0,0,0,1.76-4,24.81,24.81,0,0,0,1-4.38h-5.14a17.91,17.91,0,0,0,.72,4.4A19.83,19.83,0,0,0,696,373.13Z" transform="translate(-560.38 -139.85)"/><path class="cls-5" d="M704.77,381.67v-1.94h3.5v-6.55c-.45.35-.91.68-1.4,1a16.42,16.42,0,0,1-1.53.88,4.64,4.64,0,0,0-.57-.92,6,6,0,0,0-.72-.83,17.5,17.5,0,0,0,4.15-2.81,15.25,15.25,0,0,0,2.9-3.53h-5.92V365h6.33c-.19-.35-.42-.73-.69-1.15l-.84-1.24c-.29-.4-.56-.74-.8-1l1.92-1.05a13.69,13.69,0,0,1,.88,1.19c.31.45.62.91.91,1.38s.55.87.76,1.22l-.54.29-.69.38h4.23c.25-.41.52-.89.79-1.44s.53-1.08.78-1.62a10.83,10.83,0,0,0,.56-1.38l2.24.58c-.26.57-.56,1.21-.92,1.92s-.71,1.35-1.08,1.94h6.58V367h-6.05a14.88,14.88,0,0,0,2.92,3.53,17.55,17.55,0,0,0,4.16,2.74,6.68,6.68,0,0,0-.74.86,6.39,6.39,0,0,0-.63,1c-.49-.27-1-.56-1.46-.85a15.11,15.11,0,0,1-1.37-.95v6.48h3.48v1.94Zm4.77-9.55h11.55a18.9,18.9,0,0,1-4-5.16h-3.55a17.64,17.64,0,0,1-1.75,2.74A18.37,18.37,0,0,1,709.54,372.12Zm.82,7.61h2.11V374h-2.11Zm3.94,0h2.11V374H714.3Zm3.93,0h2.11V374h-2.11Z" transform="translate(-560.38 -139.85)"/><path class="cls-5" d="M652.74,411.79a16.39,16.39,0,0,1-3.72-5.07,15.42,15.42,0,0,1,0-12.84,16.31,16.31,0,0,1,3.72-5.08l1,1a16.61,16.61,0,0,0-3.41,4.77,14.25,14.25,0,0,0,0,11.54,16.57,16.57,0,0,0,3.41,4.76Z" transform="translate(-560.38 -139.85)"/><path class="cls-5" d="M657.46,411.24a8,8,0,0,0-.43-1,4.68,4.68,0,0,0-.6-1,12.35,12.35,0,0,0,4-1.15,5.37,5.37,0,0,0,2.32-2.37,9.35,9.35,0,0,0,.79-4l2.21.27a9.91,9.91,0,0,1-2.15,6.26A10.27,10.27,0,0,1,657.46,411.24ZM659,397.39v-1.8h7.08v-2.06H656.7v-1.85h9.38v-2.23h2.3v2.23h9.46v1.85h-9.46v2.06h7.16v1.8Zm-1.73,6.17V399h20v4.56H675v-2.73H659.58v2.78Zm13.35,7.08a3.05,3.05,0,0,1-1.85-.42,1.67,1.67,0,0,1-.53-1.38v-7.13h2.23v6.12a.76.76,0,0,0,.19.56,1.22,1.22,0,0,0,.75.16h2.76a2.31,2.31,0,0,0,1.07-.21,1.45,1.45,0,0,0,.6-.85,9.58,9.58,0,0,0,.3-1.84,6,6,0,0,0,1,.44c.43.16.79.27,1.09.35a9.63,9.63,0,0,1-.62,2.7,2.24,2.24,0,0,1-1.09,1.2,4.51,4.51,0,0,1-1.79.3Z" transform="translate(-560.38 -139.85)"/><path class="cls-5" d="M680.53,409.66v-2.19h8.93V390.15h2.37v7.39h8.62v2.23h-8.62v7.7h10.3v2.19Z" transform="translate(-560.38 -139.85)"/><path class="cls-5" d="M715.33,402.63a2.33,2.33,0,1,1,0-4.66,2.22,2.22,0,0,1,1.65.67,2.34,2.34,0,0,1,0,3.3A2.2,2.2,0,0,1,715.33,402.63Z" transform="translate(-560.38 -139.85)"/><path class="cls-5" d="M738.3,411.31v-5.2a19.12,19.12,0,0,1-2.5,1.93,28.22,28.22,0,0,1-2.94,1.67,24.44,24.44,0,0,1-3,1.22,3,3,0,0,0-.29-.53c-.14-.22-.29-.45-.45-.68a4.09,4.09,0,0,0-.41-.52,18.54,18.54,0,0,0,2.83-1.07,26.6,26.6,0,0,0,2.89-1.53,25,25,0,0,0,2.44-1.67h-8.09V403.2h9.51v-1.49h-7.16v-1.65h7.16v-1.42h-8.16v-1.7h4.77q-.21-.48-.45-1a8.73,8.73,0,0,0-.48-.88h-5.21v-1.73h4c-.21-.42-.46-.92-.74-1.51a8.18,8.18,0,0,0-.84-1.42l1.87-.89c.19.31.4.67.62,1.08s.44.82.64,1.21.35.71.44.95l-1.34.58h2.71V389.4h2v3.94h2.16V389.4h2v3.94h2.76l-1.58-.63c.2-.27.43-.6.67-1s.46-.77.67-1.16a10.65,10.65,0,0,0,.48-1l2,.64q-.24.46-.6,1.05c-.24.39-.48.78-.72,1.15s-.46.69-.65.95h4.39v1.73h-5.23a9.27,9.27,0,0,1-.41.94l-.45.93h4.58v1.7h-8v1.42h7.08v1.65h-7.08v1.49h9.5v1.73h-8.13a24.92,24.92,0,0,0,2.43,1.64A31.4,31.4,0,0,0,747,408.1a20.51,20.51,0,0,0,2.81,1.08,4,4,0,0,0-.4.51c-.15.24-.29.47-.42.7s-.22.41-.28.54a25.56,25.56,0,0,1-3-1.22,26.79,26.79,0,0,1-2.91-1.67,22.43,22.43,0,0,1-2.5-1.91v5.18Zm-1.08-14.37h4.22c.14-.27.3-.58.46-.91s.3-.66.43-1h-6c.16.32.31.64.46,1S737.12,396.68,737.22,396.94Z" transform="translate(-560.38 -139.85)"/><path class="cls-5" d="M754.64,411.22q0-.41-.18-1.05a5.37,5.37,0,0,0-.28-1h1.68a1.25,1.25,0,0,0,.7-.15.75.75,0,0,0,.22-.62v-5.59c-.52.8-1.06,1.57-1.65,2.31a22.87,22.87,0,0,1-1.71,1.94,5.11,5.11,0,0,0-.74-.73,4.21,4.21,0,0,0-.82-.59,16.5,16.5,0,0,0,1.84-2,25.91,25.91,0,0,0,1.74-2.45A16.14,16.14,0,0,0,756.7,399h-4.27v-1.8h5.88q-.57-.48-1.29-1c-.48-.35-1-.67-1.43-1s-.89-.56-1.26-.76l1.15-1.44c.29.16.61.34,1,.56l1.06.68c.32-.35.68-.75,1.08-1.21s.71-.81.93-1.07h-6.36v-1.75h8.67l.86.7c-.26.37-.61.81-1.06,1.34s-.91,1.06-1.39,1.6l-1.27,1.4.66.49c.22.17.4.33.56.47l-.32.4c-.15.18-.3.37-.44.56h2.76l.81.63c-.08.22-.19.51-.33.86l-.48,1.15a15,15,0,0,0,2.52-1,11.67,11.67,0,0,0,2.06-1.36,12.83,12.83,0,0,1-1.16-1.38,13.11,13.11,0,0,1-1-1.57c-.3.4-.62.77-.94,1.13a10.36,10.36,0,0,1-1,.93c-.2-.19-.45-.4-.74-.63a3.3,3.3,0,0,0-.77-.5,8.94,8.94,0,0,0,1.27-1.27,17.82,17.82,0,0,0,1.25-1.65,18.51,18.51,0,0,0,1-1.76,11.74,11.74,0,0,0,.68-1.58l1.92.53a17.69,17.69,0,0,1-.91,2h7.44v1.75h-2a15.79,15.79,0,0,1-1,2.07,13,13,0,0,1-1.25,1.82,16.16,16.16,0,0,0,2.35,1.29,20.45,20.45,0,0,0,2.59.94,2.82,2.82,0,0,0-.37.51c-.13.24-.26.47-.37.71a5.29,5.29,0,0,0-.24.6,16.89,16.89,0,0,1-2.84-1,15.48,15.48,0,0,1-2.54-1.54,13.34,13.34,0,0,1-2.06,1.44l2.09.12c0,.38,0,.75-.07,1.1l-.12,1.06h5.08c0,1-.07,2.12-.18,3.23a24,24,0,0,1-.39,2.79,3.15,3.15,0,0,1-1.12,2.12,4.12,4.12,0,0,1-2.27.52h-1.51a10.45,10.45,0,0,0-.19-1.08,5.21,5.21,0,0,0-.29-1h1.63a2.13,2.13,0,0,0,1.24-.26,2,2,0,0,0,.52-1.11c.09-.45.17-1,.24-1.57s.1-1.19.12-1.76h-3.22a10.82,10.82,0,0,1-1.13,2.9,7.52,7.52,0,0,1-2,2.26,11.46,11.46,0,0,1-3.21,1.63,3.83,3.83,0,0,0-.31-.58c-.14-.24-.29-.47-.44-.71a2.37,2.37,0,0,0-.42-.51,8,8,0,0,0,3.62-1.89,6.93,6.93,0,0,0,1.8-3.1h-3.81v-1.9H766a16.58,16.58,0,0,0,.15-2.28c-.48.27-1,.52-1.54.76s-1.12.46-1.73.68a7.5,7.5,0,0,0-.35-.77c-.15-.3-.3-.57-.44-.81-.27.62-.56,1.24-.85,1.86s-.54,1.09-.73,1.42a7.06,7.06,0,0,0-.82-.4,5.23,5.23,0,0,0-.89-.32v6.44c0,1.4-.81,2.11-2.45,2.11Zm4.15-8.57c.19-.32.41-.72.66-1.21s.48-1,.7-1.43.36-.8.44-1h-1.8Zm9.34-6.53a9.67,9.67,0,0,0,.86-1.26,9.49,9.49,0,0,0,.67-1.4h-3.57a11,11,0,0,0,.92,1.41A11.2,11.2,0,0,0,768.13,396.12Z" transform="translate(-560.38 -139.85)"/><path class="cls-5" d="M795.44,411.27a34.53,34.53,0,0,0-3.2-1.37c-1.2-.45-2.42-.87-3.69-1.27a13.07,13.07,0,0,1-4.32,1.86,28.38,28.38,0,0,1-5.83.7,5.12,5.12,0,0,0-.16-.61c-.07-.25-.14-.49-.22-.73a5.15,5.15,0,0,0-.22-.55,25.64,25.64,0,0,0,4.64-.34,12.44,12.44,0,0,0,3.52-1.13c-.93-.25-1.82-.48-2.68-.69s-1.65-.38-2.38-.51l.9-1.15c.34-.45.69-.92,1-1.41h-6.29v-1.85h7.56c.32-.47.61-.91.88-1.33s.48-.8.66-1.12l.57.22v-3.36a23.15,23.15,0,0,1-2.6,1.82,32.4,32.4,0,0,1-3,1.63,29.51,29.51,0,0,1-3.11,1.27,9.1,9.1,0,0,0-.49-.9,4.76,4.76,0,0,0-.62-.82,28,28,0,0,0,2.92-1.07,31.7,31.7,0,0,0,2.86-1.42,27.06,27.06,0,0,0,2.5-1.59H777v-1.78h9.24V392c-1.23.06-2.42.11-3.58.14s-2.22,0-3.18,0a7.15,7.15,0,0,0-.16-.92,7.4,7.4,0,0,0-.25-.9c1.23,0,2.55.06,4,0s2.82-.09,4.22-.18,2.71-.21,3.92-.35,2.22-.29,3-.45l1.18,1.64c-1,.19-2.13.35-3.33.49s-2.4.25-3.63.35v1.94h9.33v1.78h-7.56a26.67,26.67,0,0,0,8.09,3.93,3.46,3.46,0,0,0-.39.52,5.75,5.75,0,0,0-.42.71l-.32.57a31.55,31.55,0,0,1-4.65-2.07,24,24,0,0,1-4.08-2.75v3.62h-1.92l1.13.43c-.15.24-.31.51-.5.8s-.38.59-.61.91H798.1v1.85h-5.73a13,13,0,0,1-2.11,3.09c1.07.34,2.15.71,3.25,1.11s2.15.82,3.18,1.27a4.48,4.48,0,0,0-.64.8ZM788,406.49a11.14,11.14,0,0,0,1-1.13,9.89,9.89,0,0,0,.9-1.29h-4.7l-.59.8c-.18.25-.35.46-.49.64C785.33,405.76,786.61,406.09,788,406.49Z" transform="translate(-560.38 -139.85)"/><path class="cls-5" d="M800.43,395.47v-1.75h9.05v1.75Zm1.11,15.1v-6.74h7.12v6.74Zm0-18.43v-1.8h6.82v1.8Zm0,6.72v-1.78h6.82v1.78Zm0,3.36v-1.78h6.82v1.78Zm1.95,6.6h3.12V405.6h-3.12Zm12.19,1.7a3.11,3.11,0,0,1-1.81-.39,1.61,1.61,0,0,1-.52-1.36V401l-4.25.43-.21-2,4.46-.46v-5c-.56.13-1.12.25-1.68.35s-1.11.2-1.65.28a9.81,9.81,0,0,0-.39-1,4.7,4.7,0,0,0-.48-.94c.83-.09,1.72-.24,2.67-.43s1.88-.41,2.8-.66,1.8-.52,2.62-.82a15.18,15.18,0,0,0,2.09-.9l1.51,1.59a22.83,22.83,0,0,1-2.41,1c-.92.35-1.89.66-2.92,1v5.33l6.53-.67.22,2-6.75.7v7.08a.7.7,0,0,0,.19.53,1.15,1.15,0,0,0,.72.17h1.71a2.17,2.17,0,0,0,1.05-.21,1.29,1.29,0,0,0,.58-.81,9.08,9.08,0,0,0,.29-1.79,5.93,5.93,0,0,0,1,.41c.41.14.77.25,1.05.33a9.18,9.18,0,0,1-.61,2.63,2.12,2.12,0,0,1-1.07,1.16,4.22,4.22,0,0,1-1.72.29Z" transform="translate(-560.38 -139.85)"/><path class="cls-5" d="M830.65,411.15v-6.7c-.58.21-1.23.43-2,.67l-2.16.69c-.71.21-1.35.39-1.93.54l-.6-2.16.79-.2,1-.26v-11.3h2.06v10.72l1.49-.46,1.32-.42V389.43h2.09v21.72Zm3.72-.34c-.16-.22-.39-.51-.69-.86a4,4,0,0,0-.78-.77,18,18,0,0,0,3.17-2.33,19.25,19.25,0,0,0,2.59-2.9,20.61,20.61,0,0,1-2.19-4.84,24.08,24.08,0,0,1-1-5.6h-1.73v-2H845.1a29.79,29.79,0,0,1-1.29,6.77,25.06,25.06,0,0,1-2.58,5.64,18.81,18.81,0,0,0,5.55,5,4.46,4.46,0,0,0-.54.5,7.69,7.69,0,0,0-.6.7q-.28.36-.45.6a27.25,27.25,0,0,1-2.87-2.33,23,23,0,0,1-2.41-2.64,21.14,21.14,0,0,1-2.57,2.77A21.81,21.81,0,0,1,834.37,410.81Zm5.59-8.88a21.67,21.67,0,0,0,1.76-4,24.81,24.81,0,0,0,1-4.38h-5.14a17.91,17.91,0,0,0,.72,4.4A19.83,19.83,0,0,0,840,401.93Z" transform="translate(-560.38 -139.85)"/><path class="cls-5" d="M869,411.24a23.31,23.31,0,0,1-6-5.36,18.71,18.71,0,0,1-3.4-7.38,17.57,17.57,0,0,1-2.06,5.1,20.08,20.08,0,0,1-3.5,4.35,19.76,19.76,0,0,1-4.61,3.24,8.43,8.43,0,0,0-.66-1,8.34,8.34,0,0,0-.78-.87,18.26,18.26,0,0,0,5-3.46,16.72,16.72,0,0,0,3.25-4.55,18,18,0,0,0,1.62-5.29l1.37.24q-.12-.93-.18-1.92c0-.66-.06-1.33-.06-2H853.3v-2.08h8a28.1,28.1,0,0,0,.58,8.06,15.75,15.75,0,0,0,3,6.24,19.58,19.58,0,0,0,5.85,4.78,3.91,3.91,0,0,0-.56.51c-.22.23-.42.47-.62.72S869.15,411.05,869,411.24Z" transform="translate(-560.38 -139.85)"/><path class="cls-5" d="M873.92,411.79l-1-1a16.23,16.23,0,0,0,3.42-4.76,14.36,14.36,0,0,0,0-11.54,16.27,16.27,0,0,0-3.42-4.77l1-1a16.64,16.64,0,0,1,3.72,5.08,15.52,15.52,0,0,1,0,12.84A16.72,16.72,0,0,1,873.92,411.79Z" transform="translate(-560.38 -139.85)"/><path class="cls-8" d="M639.77,346.8V313l-7.32,4.8L629,312.3l12.24-7.56h4.92V346.8Z" transform="translate(-560.38 -139.85)"/><path class="cls-8" d="M670.49,346.8v-9.18H654.05V332.7l16.5-28.08h6V332h5.88v5.64h-5.88v9.18Zm-10-14.82h10V314.82Z" transform="translate(-560.38 -139.85)"/><path class="cls-8" d="M690.82,347.46a4.43,4.43,0,0,1-3.21-1.32,4.27,4.27,0,0,1-1.35-3.18,4.36,4.36,0,0,1,1.35-3.24,4.56,4.56,0,0,1,6.42,0,4.36,4.36,0,0,1,1.35,3.24,4.27,4.27,0,0,1-1.35,3.18A4.43,4.43,0,0,1,690.82,347.46Z" transform="translate(-560.38 -139.85)"/><path class="cls-8" d="M710.32,347.4a11.59,11.59,0,0,1-6-1.68,14,14,0,0,1-4.59-4.26l4.8-3.66a9.44,9.44,0,0,0,2.49,2.67,5.55,5.55,0,0,0,3.27,1,6.33,6.33,0,0,0,6-3.75q1.92-3.75,2-11.07a6.86,6.86,0,0,1-2.88,2.37,8.84,8.84,0,0,1-3.78.87,11.91,11.91,0,0,1-6-1.53,10.92,10.92,0,0,1-4.2-4.32,13.59,13.59,0,0,1-1.53-6.63,15.57,15.57,0,0,1,1.44-6.87,11.34,11.34,0,0,1,4.08-4.68,11,11,0,0,1,6.12-1.71,14.66,14.66,0,0,1,5,.87,9.91,9.91,0,0,1,4.2,3.06,15.9,15.9,0,0,1,2.88,6.21,38.93,38.93,0,0,1,.93,10.32q-.24,11.82-3.87,17.31A11.74,11.74,0,0,1,710.32,347.4Zm1.44-23.28a5.36,5.36,0,0,0,4.38-1.89,7,7,0,0,0,1.44-4.89,8.72,8.72,0,0,0-1.59-5.25,4.85,4.85,0,0,0-4-1.83,4.77,4.77,0,0,0-4,2,8.44,8.44,0,0,0-1.47,5.16,7.61,7.61,0,0,0,1.47,4.86A4.63,4.63,0,0,0,711.76,324.12Z" transform="translate(-560.38 -139.85)"/><path class="cls-8" d="M732.13,338.21a3.29,3.29,0,0,1-2.63-1.15,4.64,4.64,0,0,1-1-3.12,4.53,4.53,0,0,1,1-3.08,3.6,3.6,0,0,1,5.26,0,4.52,4.52,0,0,1,1,3.08,4.63,4.63,0,0,1-1,3.12A3.31,3.31,0,0,1,732.13,338.21ZM731,347.28l-1.08-.76,12.24-17.07,1.05.79Zm1.15-10.75a1.7,1.7,0,0,0,1.44-.67,3.2,3.2,0,0,0,.5-1.92,3.16,3.16,0,0,0-.5-1.9,1.72,1.72,0,0,0-1.44-.67,1.75,1.75,0,0,0-1.47.67,3.16,3.16,0,0,0-.5,1.9,3.2,3.2,0,0,0,.5,1.92A1.73,1.73,0,0,0,732.13,336.53ZM741,347.07a3.34,3.34,0,0,1-2.62-1.14,5.23,5.23,0,0,1,0-6.18,3.57,3.57,0,0,1,5.25,0,5.32,5.32,0,0,1,0,6.18A3.33,3.33,0,0,1,741,347.07Zm0-1.63a1.7,1.7,0,0,0,1.46-.68,3.09,3.09,0,0,0,.51-1.92,3.13,3.13,0,0,0-.51-1.92,1.72,1.72,0,0,0-1.46-.67,1.75,1.75,0,0,0-1.47.67,3.2,3.2,0,0,0-.5,1.92,3.16,3.16,0,0,0,.5,1.92A1.73,1.73,0,0,0,741,345.44Z" transform="translate(-560.38 -139.85)"/><line class="cls-9" x1="522.56" y1="655.49" x2="591" y2="722"/><path class="cls-10" d="M1080.46,798.16a3.76,3.76,0,1,1,5.32-.07A3.76,3.76,0,0,1,1080.46,798.16Z" transform="translate(-560.38 -139.85)"/><line class="cls-9" x1="398.32" y1="296.68" x2="432" y2="212"/><path class="cls-10" d="M962.27,437.74a3.76,3.76,0,1,1-2.11-4.88A3.78,3.78,0,0,1,962.27,437.74Z" transform="translate(-560.38 -139.85)"/><line class="cls-9" x1="301.88" y1="345.26" x2="194" y2="285"/><path class="cls-10" d="M863.94,481.73a3.76,3.76,0,1,1-5.12,1.45A3.76,3.76,0,0,1,863.94,481.73Z" transform="translate(-560.38 -139.85)"/></svg>