<svg id="Layer_1" data-name="Layer 1" xmlns="http://www.w3.org/2000/svg" viewBox="0 0 800 800"><defs><style>.cls-1{fill:#fff;}.cls-2{fill:#444;}.cls-3,.cls-6{fill:#2079e2;}.cls-11,.cls-4{fill:#666;}.cls-4,.cls-5,.cls-6{stroke:#fff;stroke-width:3px;}.cls-4,.cls-5,.cls-6,.cls-8{stroke-miterlimit:10;}.cls-10,.cls-5{fill:#ffa3a3;}.cls-7,.cls-8{fill:none;}.cls-8{stroke:#000444;stroke-width:2px;}.cls-9{fill:#000444;}</style></defs><rect class="cls-1" width="800" height="800"/><path class="cls-2" d="M876,188.33c-.61-.26-1.33-.53-2.18-.82a10.54,10.54,0,0,0-2.23-.53,19.93,19.93,0,0,0,1.48-3.26c.48-1.31.91-2.67,1.28-4.08a35.61,35.61,0,0,0,.79-3.84l4.27.91a38,38,0,0,1-.79,3.94c-.37,1.47-.78,2.89-1.23,4.27A21,21,0,0,1,876,188.33Zm3.94,4.7V173.54l-3.72.46c-1.2.14-2.27.25-3.19.31l-.68-4.94,1.28,0c.46,0,.95,0,1.46-.07.58-.58,1.21-1.28,1.9-2.11s1.38-1.75,2.08-2.74q-1.57-1.24-3.48-2.59c-1.26-.9-2.47-1.68-3.62-2.35l2.69-4,.79.5c.27.18.57.36.89.55.45-.73.92-1.56,1.41-2.47s1-1.81,1.4-2.69.76-1.61,1-2.18l4.66,1.92c-.71,1.28-1.49,2.64-2.36,4.08s-1.68,2.72-2.44,3.84c.35.22.68.45,1,.69s.61.48.87.7q1.29-1.92,2.37-3.67t1.71-2.91l4.32,2.31q-1,1.73-2.55,4t-3.21,4.53q-1.68,2.31-3.27,4.32c.84-.06,1.67-.13,2.5-.21l2.35-.22a26.28,26.28,0,0,0-1.1-2.64l4.32-1.49q.62,1.2,1.32,2.91c.46,1.13.9,2.28,1.32,3.43s.75,2.16,1,3c-.64.2-1.43.46-2.36.8s-1.68.63-2.25.88c-.13-.38-.27-.83-.41-1.34s-.3-1-.46-1.58a9.93,9.93,0,0,0-1.17.16c-.4.08-.83.16-1.27.22V193Zm8.83-7c-.26-.7-.57-1.62-.94-2.76s-.72-2.32-1-3.55-.6-2.3-.79-3.19l4.41-1.2c.19.8.47,1.75.82,2.85s.73,2.19,1.13,3.27.76,2,1.08,2.66a16.53,16.53,0,0,0-2.4.84C890.13,185.36,889.38,185.72,888.74,186.07Zm1.44,5.66v-4.94h10.51V181h-7.2v-4.85h7.2v-5h5.52v5h8.07V181h-8.07v5.76h10.27v4.94Zm3.94-19a24.57,24.57,0,0,0-1.2-2.24,11.3,11.3,0,0,0-1.59-2.13,33,33,0,0,0,4.44-1.92,30.74,30.74,0,0,0,3.91-2.45,30.39,30.39,0,0,1-5-8.45h-3.45V151h21.69l1.68,1.73a50,50,0,0,1-3.29,6,37.87,37.87,0,0,1-4,5.16,25.69,25.69,0,0,0,4.42,2.21,30.77,30.77,0,0,0,4.85,1.44,10.86,10.86,0,0,0-1,1.37,18.08,18.08,0,0,0-1,1.8,13.66,13.66,0,0,0-.7,1.58,47.6,47.6,0,0,1-5.61-2.06,25.46,25.46,0,0,1-4.76-2.74,31,31,0,0,1-4.41,2.93A35.93,35.93,0,0,1,894.12,172.73Zm9.31-12a23.27,23.27,0,0,0,2.21-2.55,20.89,20.89,0,0,0,1.68-2.64h-7.49a27,27,0,0,0,1.65,2.79A19.82,19.82,0,0,0,903.43,160.73Z" transform="translate(-560.38 -139.85)"/><path class="cls-2" d="M921.29,167.93V156.65h9.35c-.51-.84-1.08-1.72-1.7-2.67a20.65,20.65,0,0,0-1.56-2.13l4.9-2.6a19.45,19.45,0,0,1,1.51,1.95q.88,1.28,1.68,2.52a16.83,16.83,0,0,1,1.08,1.87l-1,.46c-.36.17-.76.37-1.17.6h5v-7.44h5.81v7.44h5.32c-1-.42-1.76-.76-2.4-1a33.14,33.14,0,0,0,1.92-3.19,32.42,32.42,0,0,0,1.54-3.24l5.18,2.2c-.32.68-.75,1.51-1.29,2.5s-1.09,1.9-1.63,2.74h9.6v11.28H958v-6.68H926.8v6.68Zm18.14,25.29V180.5h-7.54v10.61h-5.71V176h13.25v-2.11h-9V163.22h23.86v10.66h-9V176h13.63v10.32a4.9,4.9,0,0,1-1.35,3.84q-1.34,1.2-4.41,1.2h-3.75a19.9,19.9,0,0,0-.45-2.81,14.49,14.49,0,0,0-.79-2.57h3.26a2.14,2.14,0,0,0,1.34-.31,1.59,1.59,0,0,0,.39-1.27V180.5h-7.87v12.72Zm-3.7-23.28h13.2v-2.78h-13.2Z" transform="translate(-560.38 -139.85)"/><path class="cls-2" d="M1010.08,193.41a65.35,65.35,0,0,1-10.51-2.76,43,43,0,0,1-9-4.39,39.8,39.8,0,0,1-8.64,4.18,86.39,86.39,0,0,1-10.85,2.93,26.1,26.1,0,0,0-1.08-2.76,18.6,18.6,0,0,0-1.42-2.67,60,60,0,0,0,9.55-2.21,40.39,40.39,0,0,0,7.64-3.31,31.89,31.89,0,0,1-4.28-5.06,37.59,37.59,0,0,1-3.4-6.22h-5.19v-5.33h14.45v-4.75H969v-5h18.43V149.3h6V156h18.43v5H993.33v4.75h10.23l2.06,2.07a60.37,60.37,0,0,1-4.66,8.18,37.42,37.42,0,0,1-5.37,6.31,42.6,42.6,0,0,0,8.18,3.39,52.48,52.48,0,0,0,9,1.85,15.56,15.56,0,0,0-1,1.8,23.29,23.29,0,0,0-1,2.18C1010.47,192.33,1010.24,192.93,1010.08,193.41ZM990.6,179.06a30.68,30.68,0,0,0,6.67-7.92h-13.2a20.31,20.31,0,0,0,2.78,4.25A27.71,27.71,0,0,0,990.6,179.06Z" transform="translate(-560.38 -139.85)"/><path class="cls-2" d="M1018.58,191.11V173.88h5.9v11.61h10.85V171.14h-15.21V153.48h6.14v12.14h9.07V149.88h6v15.74h9V153.48h6.19v17.66h-15.17v14.35h10.85V173.88h6v17.23Z" transform="translate(-560.38 -139.85)"/><path class="cls-2" d="M1177.94,926.87c0-.16-.13-.38-.24-.65s-.23-.55-.36-.82a4.53,4.53,0,0,0-.34-.62,28.09,28.09,0,0,0,5.14-1.3,18.69,18.69,0,0,0,4-2,18,18,0,0,1-4.15-6.09h-2.88v-2.07h7.56v-2.88h-9.41v-2h9.41V905h2.28v3.5h9.41v2h-9.41v2.88h5.19l.79.82a34.7,34.7,0,0,1-2.39,4.13,19.68,19.68,0,0,1-2.7,3.19,21.45,21.45,0,0,0,4.24,2,29.33,29.33,0,0,0,4.78,1.2c-.09.16-.22.38-.37.67s-.29.58-.41.86-.2.52-.25.68a36.58,36.58,0,0,1-5.33-1.53A20.05,20.05,0,0,1,1188,923a20.17,20.17,0,0,1-4.39,2.27A38.13,38.13,0,0,1,1177.94,926.87Zm10-6.72A16.16,16.16,0,0,0,1190,918a22.05,22.05,0,0,0,1.71-2.57h-7.44a12.41,12.41,0,0,0,1.56,2.57A15.93,15.93,0,0,0,1187.92,920.15Z" transform="translate(-560.38 -139.85)"/><path class="cls-2" d="M1202.61,926.77c0-.19,0-.43-.09-.71s-.11-.55-.17-.83a3.61,3.61,0,0,0-.19-.62h1.7a1.18,1.18,0,0,0,.7-.17.76.76,0,0,0,.21-.62v-5.14l-2.15.71c-.64.22-1.1.36-1.38.44l-.55-2.2c.42-.1,1-.25,1.73-.46s1.52-.44,2.35-.7V911.7H1201v-2h3.77V905h2.14v4.68h3v2h-3v4.1l1.8-.61,1.27-.44v2.06c-.3.13-.73.3-1.27.5s-1.15.43-1.8.65v6.65a2,2,0,0,1-.62,1.64,2.91,2.91,0,0,1-1.9.52Zm18.22-.5q-.19-.66-.51-1.44c-.2-.53-.44-1.09-.69-1.68-.74.19-1.61.39-2.62.6s-2,.41-3.13.61-2.11.38-3.09.54-1.83.28-2.51.36l-.51-2.14c.34,0,.73-.07,1.18-.13l1.42-.18c.27-.86.55-1.86.83-3s.58-2.3.86-3.56.54-2.52.79-3.79.47-2.49.67-3.66.36-2.23.49-3.17l2.26.31c-.23,1.44-.48,2.92-.77,4.43s-.6,3-.92,4.46-.67,2.85-1,4.14-.68,2.47-1,3.51c1.12-.18,2.24-.37,3.35-.57s2.08-.38,2.89-.56c-.44-.94-.9-1.86-1.36-2.74a23.45,23.45,0,0,0-1.33-2.23l1.83-.91c.46.67.93,1.44,1.42,2.29s.94,1.74,1.39,2.65.86,1.81,1.24,2.68.7,1.66.94,2.36c-.14,0-.36.1-.65.21l-.85.32A6,6,0,0,0,1220.83,926.27Z" transform="translate(-560.38 -139.85)"/><path class="cls-2" d="M1233.62,922.38a3.28,3.28,0,0,1-2,.49,2.61,2.61,0,0,1-1.8-1.38,17.71,17.71,0,0,1-1.27-2.65,28.39,28.39,0,0,1-1-3.19,29.17,29.17,0,0,1-.64-3.36,21.81,21.81,0,0,1-.19-3.14l2.25,0a18.66,18.66,0,0,0,.1,2.64,23.2,23.2,0,0,0,.47,2.83,23.46,23.46,0,0,0,.77,2.69,12,12,0,0,0,1,2.21,1.39,1.39,0,0,0,.84.74,1.13,1.13,0,0,0,.87-.24,7.25,7.25,0,0,0,1.26-1.12,8.54,8.54,0,0,0,1-1.33,4.38,4.38,0,0,0,.57,1,8.43,8.43,0,0,0,.7.86,10.16,10.16,0,0,1-1.35,1.64A8.61,8.61,0,0,1,1233.62,922.38Zm9.46-4.32a16.84,16.84,0,0,0-.7-1.66c-.32-.67-.69-1.37-1.1-2.09s-.84-1.39-1.26-2a13,13,0,0,0-1.14-1.5l1.77-1.13a16.81,16.81,0,0,1,1.24,1.61c.45.65.91,1.35,1.35,2.1s.85,1.45,1.19,2.12a13,13,0,0,1,.76,1.7,5.55,5.55,0,0,0-1.15.35A4.65,4.65,0,0,0,1243.08,918.06Z" transform="translate(-560.38 -139.85)"/><path class="cls-2" d="M1248.76,913.16v-1.85h4.69v-2h-3.7v-1.78h3.7v-2.59h2v2.59h3.65v1.78h-3.65v2h4.59v1.85Zm4.69,13.59v-4.47h-4v-1.85h4V918.3h-4.4v-1.85h2.62c-.14-.43-.31-.88-.51-1.36a10.93,10.93,0,0,0-.52-1.14l1.82-.52c.19.4.4.9.62,1.5a15,15,0,0,1,.51,1.52h1.68c.19-.46.39-1,.6-1.6a12.67,12.67,0,0,0,.43-1.45l1.87.46c-.11.37-.26.79-.44,1.26s-.37.91-.57,1.33h2.64v1.85h-4.32v2.13h3.92v1.85h-3.92v4.47Zm7.17,0V905.63h8.76v4.56a2.67,2.67,0,0,1-.62,1.94,2.57,2.57,0,0,1-1.9.62H1265c0-.32-.09-.68-.17-1.09a6.33,6.33,0,0,0-.28-.95h1.89a1.17,1.17,0,0,0,.7-.16.78.78,0,0,0,.22-.63v-2.35h-4.64v6.19h7.13a16.9,16.9,0,0,1-2.06,7.87,12.26,12.26,0,0,0,1.56,1.67,15.68,15.68,0,0,0,1.82,1.43,7,7,0,0,0-.68.74,8,8,0,0,0-.66.87,14.52,14.52,0,0,1-3.17-2.93,13.28,13.28,0,0,1-1.31,1.5,12.33,12.33,0,0,1-1.55,1.31l-.47-.52a7.6,7.6,0,0,0-.61-.56v1.61Zm2.06-2.26a11.9,11.9,0,0,0,2.72-2.81,17.49,17.49,0,0,1-2.14-6h-.58Zm3.85-4.75a13.45,13.45,0,0,0,1.12-4.08h-2.52a14.62,14.62,0,0,0,.54,2.12A12.66,12.66,0,0,0,1266.53,919.74Z" transform="translate(-560.38 -139.85)"/><path class="cls-2" d="M1283.61,926.79c-.19-.12-.46-.28-.8-.46a5.36,5.36,0,0,0-.83-.38,13.3,13.3,0,0,0,1.6-2.82,13.74,13.74,0,0,0,.84-3.26,33,33,0,0,0,.25-4.28v-4.52a28.55,28.55,0,0,1-.66,3.82,13.06,13.06,0,0,1-1.24,3.31,3.79,3.79,0,0,0-.38-.21,5.11,5.11,0,0,0-.48-.22V926h-8.69V910.64h2.59v-2.88h-3.12V906h9.87v1.73h-3.44v2.88h2.79v5.91a19.83,19.83,0,0,0,.85-2.81c.23-1,.4-2,.52-3l1.39.21v-5.49h1.68v5.76l.94-.39c.22.55.46,1.21.71,2s.49,1.54.7,2.28v-9h1.61v4.92l.89-.36c.22.54.46,1.21.72,2s.48,1.57.69,2.32v-9.62h1.68v21.38h-1.68V917l-.51.26a1.54,1.54,0,0,0-.42.25c-.08-.39-.2-.85-.35-1.41s-.32-1.13-.49-1.74-.36-1.17-.53-1.7v13h-1.61V917l-.53.26a1.81,1.81,0,0,0-.43.25c-.08-.39-.2-.86-.35-1.42s-.32-1.14-.5-1.75-.37-1.17-.54-1.68v3c0,1.4,0,2.64-.13,3.7a21.48,21.48,0,0,1-.43,2.88,12.24,12.24,0,0,1-.84,2.39A17.11,17.11,0,0,1,1283.61,926.79Zm-8.78-6.43h5.47v-2.09h-.89a2.11,2.11,0,0,1-1.19-.25,1.07,1.07,0,0,1-.34-.92v-4.73h-.8a23,23,0,0,1-.14,2.9,8,8,0,0,1-.46,1.92,9.71,9.71,0,0,1-.81,1.61,2.38,2.38,0,0,0-.37-.24,4.84,4.84,0,0,0-.47-.21Zm0-2.83a6.93,6.93,0,0,0,.75-2.06,15.85,15.85,0,0,0,.23-3.1h-1Zm0,6.7h5.47v-2.31h-5.47Zm2.25-13.59h.8v-2.88h-.8Zm2.74,6h.48v-4.27h-1.18v3.72c0,.24.05.39.15.46A1.16,1.16,0,0,0,1279.82,916.64Z" transform="translate(-560.38 -139.85)"/><path class="cls-2" d="M1301.61,926.72v-8.66a29.89,29.89,0,0,1-1.75,2.53,18.35,18.35,0,0,1-1.8,2,7,7,0,0,0-.72-.71,4.37,4.37,0,0,0-.79-.58,15.11,15.11,0,0,0,1.74-1.8,23.5,23.5,0,0,0,1.71-2.34,19.18,19.18,0,0,0,1.37-2.46h-4.17v-1.92h4.41v-7.78h2v7.78h3.77v1.92h-3.77v.52a13.67,13.67,0,0,0,1,1.25c.42.47.87.92,1.34,1.37s.9.83,1.28,1.15l0-.17c.52-.06,1.16-.15,1.9-.27s1.54-.26,2.39-.42l2.52-.48V905h2.07v12.24l1.68-.4a11,11,0,0,0,1.22-.35l.1,2-1.31.34c-.52.13-1.09.25-1.69.38v7.44h-2.07v-7c-1.17.24-2.31.47-3.44.68s-2.09.39-2.89.52l-.36-1.56c-.2.19-.42.43-.68.72a4.37,4.37,0,0,0-.5.65c-.4-.37-.82-.8-1.27-1.28s-.88-1-1.3-1.53v8.78ZM1299,911.91a11,11,0,0,0-.44-1.36c-.2-.53-.41-1-.64-1.55a7.24,7.24,0,0,0-.67-1.26L1299,907a10.57,10.57,0,0,1,.67,1.29c.24.55.47,1.09.68,1.62a12.38,12.38,0,0,1,.47,1.34,2.24,2.24,0,0,0-.58.15l-.69.27A4,4,0,0,0,1299,911.91Zm6.87,0a5.28,5.28,0,0,0-.49-.25l-.65-.3a1.7,1.7,0,0,0-.52-.17,12.1,12.1,0,0,0,.65-1.27c.24-.53.47-1.08.67-1.64a13.47,13.47,0,0,0,.46-1.44l1.8.56c-.11.38-.29.87-.52,1.47s-.47,1.18-.73,1.74A13.41,13.41,0,0,1,1305.91,911.94Zm5.69,4.53q-.75-.69-1.65-1.44a11.67,11.67,0,0,0-1.81-1.24l1.25-1.47a18.74,18.74,0,0,1,1.88,1.29,19.84,19.84,0,0,1,1.67,1.38c-.1.09-.24.24-.42.43l-.53.57Zm.67-5.13q-.72-.71-1.62-1.44a13.78,13.78,0,0,0-1.79-1.27l1.32-1.44a17,17,0,0,1,1.85,1.32c.64.51,1.18,1,1.63,1.39-.11.09-.26.24-.46.43s-.37.38-.55.58Z" transform="translate(-560.38 -139.85)"/><path class="cls-3" d="M1190.3,888.16a13.85,13.85,0,0,1-7-1.86,13.7,13.7,0,0,1-5.1-5l5.4-3.42a10.25,10.25,0,0,0,2.85,3,6.63,6.63,0,0,0,3.86,1.14,6.27,6.27,0,0,0,5.07-2,8.35,8.35,0,0,0,1.72-5.61q0-3.9-1.47-5.67a5.06,5.06,0,0,0-4.11-1.77,6.11,6.11,0,0,0-3,.72,4.15,4.15,0,0,0-1.92,2.16h-5.94V845.8H1202v5.88h-14.94v11a9.39,9.39,0,0,1,2.22-1.17,6.71,6.71,0,0,1,2.4-.45,12.06,12.06,0,0,1,6,1.5A11,11,0,0,1,1202,867a15.39,15.39,0,0,1,1.59,7.38c0,4.36-1.23,7.74-3.66,10.14A13.12,13.12,0,0,1,1190.3,888.16Z" transform="translate(-560.38 -139.85)"/><path class="cls-3" d="M1218.2,888.4a12.15,12.15,0,0,1-7.35-2.25,12.55,12.55,0,0,1-4.47-6.63l5.88-2a11.52,11.52,0,0,0,1,2,6.36,6.36,0,0,0,1.86,2,5.11,5.11,0,0,0,3,.84,7.35,7.35,0,0,0,4.86-1.5q1.8-1.5,1.8-5a7.17,7.17,0,0,0-1.8-5.1,6.72,6.72,0,0,0-5.15-1.92h-3v-5.88h3a5.38,5.38,0,0,0,4.43-1.77,6.67,6.67,0,0,0,1.44-4.35c0-2-.57-3.41-1.71-4.23a6.46,6.46,0,0,0-3.87-1.23,4.13,4.13,0,0,0-2.64.87,7.88,7.88,0,0,0-1.77,2,10.54,10.54,0,0,0-1,1.95l-5.81-2.34a13.68,13.68,0,0,1,4.58-6.33,11.05,11.05,0,0,1,6.75-2.25,13.74,13.74,0,0,1,6.39,1.41,10.51,10.51,0,0,1,4.26,3.93,11.22,11.22,0,0,1,1.53,5.94,9.93,9.93,0,0,1-1.65,5.61,9.81,9.81,0,0,1-4.17,3.63,10.29,10.29,0,0,1,4.89,3.9,11.09,11.09,0,0,1,1.89,6.42,12.06,12.06,0,0,1-3.45,9.06Q1224.44,888.4,1218.2,888.4Z" transform="translate(-560.38 -139.85)"/><path class="cls-3" d="M1241.84,888.46a4.45,4.45,0,0,1-3.21-1.32,4.26,4.26,0,0,1-1.34-3.18,4.35,4.35,0,0,1,1.34-3.24,4.56,4.56,0,0,1,6.42,0,4.36,4.36,0,0,1,1.35,3.24,4.27,4.27,0,0,1-1.35,3.18A4.43,4.43,0,0,1,1241.84,888.46Z" transform="translate(-560.38 -139.85)"/><path class="cls-3" d="M1266.62,887.8v-9.18h-16.44V873.7l16.5-28.08h6V873h5.88v5.64h-5.88v9.18Zm-10-14.82h10V855.82Z" transform="translate(-560.38 -139.85)"/><path class="cls-3" d="M1284.05,879.21a3.29,3.29,0,0,1-2.63-1.15,4.59,4.59,0,0,1-1-3.12,4.48,4.48,0,0,1,1-3.08,3.6,3.6,0,0,1,5.26,0,4.52,4.52,0,0,1,1,3.08,4.63,4.63,0,0,1-1,3.12A3.32,3.32,0,0,1,1284.05,879.21Zm-1.16,9.07-1.08-.76,12.24-17.07,1.06.79Zm1.16-10.75a1.7,1.7,0,0,0,1.44-.67,3.2,3.2,0,0,0,.5-1.92,3.16,3.16,0,0,0-.5-1.9,1.72,1.72,0,0,0-1.44-.67,1.75,1.75,0,0,0-1.47.67,3.16,3.16,0,0,0-.5,1.9,3.2,3.2,0,0,0,.5,1.92A1.73,1.73,0,0,0,1284.05,877.53Zm8.88,10.54a3.34,3.34,0,0,1-2.62-1.14,5.23,5.23,0,0,1,0-6.18,3.31,3.31,0,0,1,2.62-1.15,3.27,3.27,0,0,1,2.62,1.15,5.27,5.27,0,0,1,0,6.18A3.29,3.29,0,0,1,1292.93,888.07Zm0-1.63a1.72,1.72,0,0,0,1.46-.68,3.1,3.1,0,0,0,.5-1.92,3.14,3.14,0,0,0-.5-1.92,1.73,1.73,0,0,0-1.46-.67,1.75,1.75,0,0,0-1.47.67,3.2,3.2,0,0,0-.5,1.92,3.16,3.16,0,0,0,.5,1.92A1.73,1.73,0,0,0,1292.93,886.44Z" transform="translate(-560.38 -139.85)"/><path class="cls-4" d="M966.89,644.68,777.91,522c42.29-65.13,111.32-102.61,189-102.61Z" transform="translate(-560.38 -139.85)"/><path class="cls-5" d="M966.89,644.68,920,865.09C798.31,839.22,720.6,719.56,746.48,597.83c6.23-29.34,15.09-50.72,31.43-75.88Z" transform="translate(-560.38 -139.85)"/><path class="cls-6" d="M966.89,644.68V419.34c124.45,0,225.34,100.89,225.34,225.34S1091.34,870,966.89,870A212.7,212.7,0,0,1,920,865.09Z" transform="translate(-560.38 -139.85)"/><circle class="cls-1" cx="406" cy="503" r="150"/><path class="cls-2" d="M885.78,664.4a11.59,11.59,0,0,1-6-1.68,14,14,0,0,1-4.59-4.26l4.8-3.66a9.44,9.44,0,0,0,2.49,2.67,5.55,5.55,0,0,0,3.27,1,6.33,6.33,0,0,0,6-3.75q1.92-3.75,2-11.07a6.86,6.86,0,0,1-2.88,2.37,8.84,8.84,0,0,1-3.78.87,11.91,11.91,0,0,1-6-1.53,10.92,10.92,0,0,1-4.2-4.32,13.59,13.59,0,0,1-1.53-6.63,15.6,15.6,0,0,1,1.44-6.87,11.34,11.34,0,0,1,4.08-4.68,11,11,0,0,1,6.12-1.71,14.66,14.66,0,0,1,5,.87,9.91,9.91,0,0,1,4.2,3.06,15.9,15.9,0,0,1,2.88,6.21,38.93,38.93,0,0,1,.93,10.32q-.24,11.82-3.87,17.31A11.74,11.74,0,0,1,885.78,664.4Zm1.44-23.28a5.36,5.36,0,0,0,4.38-1.89,7,7,0,0,0,1.44-4.89,8.72,8.72,0,0,0-1.59-5.25,4.85,4.85,0,0,0-4-1.83,4.77,4.77,0,0,0-4.05,2,8.44,8.44,0,0,0-1.47,5.16,7.61,7.61,0,0,0,1.47,4.86A4.63,4.63,0,0,0,887.22,641.12Z" transform="translate(-560.38 -139.85)"/><path class="cls-2" d="M908.82,673.94l-1.86-3.3a9.44,9.44,0,0,0,4.8-2.79,6.28,6.28,0,0,0,1.8-4.23q0-.36,0-.66a3.79,3.79,0,0,0-.09-.54,5.32,5.32,0,0,1-1.5,1.32,3.57,3.57,0,0,1-1.86.54,4.2,4.2,0,0,1-2.91-1.11,3.86,3.86,0,0,1-1.23-3,3.49,3.49,0,0,1,1.41-3,5.8,5.8,0,0,1,3.33-1.11,6.09,6.09,0,0,1,4.89,2.13,8.21,8.21,0,0,1,1.95,5.67,8.62,8.62,0,0,1-2.4,6.18A15.8,15.8,0,0,1,908.82,673.94Z" transform="translate(-560.38 -139.85)"/><path class="cls-2" d="M936.36,664.4a14.25,14.25,0,0,1-5-.87,10,10,0,0,1-4.23-3.06,15.33,15.33,0,0,1-2.88-6.18,39.62,39.62,0,0,1-.9-10.29q.18-11.88,3.84-17.37a12.22,12.22,0,0,1,16.44-3.78,13.89,13.89,0,0,1,4.56,4.23l-4.8,3.72a8.82,8.82,0,0,0-2.49-2.7,5.85,5.85,0,0,0-3.33-1,6.35,6.35,0,0,0-6,3.72c-1.3,2.49-2,6.16-2.07,11a6.91,6.91,0,0,1,2.91-2.37,9,9,0,0,1,3.81-.87,11.75,11.75,0,0,1,6,1.53,11,11,0,0,1,4.17,4.32,13.59,13.59,0,0,1,1.53,6.63,15.62,15.62,0,0,1-1.44,6.84,11.38,11.38,0,0,1-4,4.71A11,11,0,0,1,936.36,664.4Zm-.42-6.12a4.83,4.83,0,0,0,4.11-2,8.42,8.42,0,0,0,1.47-5.16,7.48,7.48,0,0,0-1.47-4.83,4.72,4.72,0,0,0-3.87-1.83,5.33,5.33,0,0,0-4.32,1.86,6.86,6.86,0,0,0-1.44,4.86,8.85,8.85,0,0,0,1.56,5.25A4.74,4.74,0,0,0,935.94,658.28Z" transform="translate(-560.38 -139.85)"/><path class="cls-2" d="M965.7,664.4a12.9,12.9,0,0,1-6.54-1.62,11.39,11.39,0,0,1-4.41-4.56,14,14,0,0,1-1.59-6.78,10.61,10.61,0,0,1,1.65-5.79,11.17,11.17,0,0,1,4.05-3.93,11.27,11.27,0,0,1-3.36-3.57,9.75,9.75,0,0,1-1.32-5.13,12.67,12.67,0,0,1,1.47-6.21,10.62,10.62,0,0,1,4.08-4.17,11.76,11.76,0,0,1,6-1.5,11.89,11.89,0,0,1,6,1.5,10.62,10.62,0,0,1,4.08,4.17,12.67,12.67,0,0,1,1.47,6.21,9.58,9.58,0,0,1-1.35,5.13,12.23,12.23,0,0,1-3.27,3.57,10.94,10.94,0,0,1,4,3.93,10.76,10.76,0,0,1,1.62,5.79,13.78,13.78,0,0,1-1.62,6.81,11.65,11.65,0,0,1-4.44,4.53A12.9,12.9,0,0,1,965.7,664.4Zm0-6.12a6,6,0,0,0,4.59-1.71,7.4,7.4,0,0,0,1.59-5.19,7.72,7.72,0,0,0-1.59-5.13,5.66,5.66,0,0,0-4.59-1.89,5.59,5.59,0,0,0-4.53,1.89,7.72,7.72,0,0,0-1.59,5.13Q959.58,658.28,965.7,658.28Zm0-19a4.58,4.58,0,0,0,3.81-1.62,7.15,7.15,0,0,0,1.29-4.56,6,6,0,0,0-1.44-4.38,5.37,5.37,0,0,0-7.32,0,6,6,0,0,0-1.44,4.38,7.15,7.15,0,0,0,1.29,4.56A4.58,4.58,0,0,0,965.7,639.26Z" transform="translate(-560.38 -139.85)"/><path class="cls-2" d="M996.6,664.4a14.25,14.25,0,0,1-5-.87,10,10,0,0,1-4.23-3.06,15.33,15.33,0,0,1-2.88-6.18,39.62,39.62,0,0,1-.9-10.29q.18-11.88,3.84-17.37a12.22,12.22,0,0,1,16.44-3.78,13.89,13.89,0,0,1,4.56,4.23l-4.8,3.72a8.82,8.82,0,0,0-2.49-2.7,5.85,5.85,0,0,0-3.33-1,6.35,6.35,0,0,0-6,3.72c-1.3,2.49-2,6.16-2.07,11a6.91,6.91,0,0,1,2.91-2.37,9,9,0,0,1,3.81-.87,11.75,11.75,0,0,1,6,1.53,11,11,0,0,1,4.17,4.32,13.59,13.59,0,0,1,1.53,6.63,15.62,15.62,0,0,1-1.44,6.84,11.38,11.38,0,0,1-4,4.71A11,11,0,0,1,996.6,664.4Zm-.42-6.12a4.83,4.83,0,0,0,4.11-2,8.42,8.42,0,0,0,1.47-5.16,7.48,7.48,0,0,0-1.47-4.83,4.72,4.72,0,0,0-3.87-1.83,5.33,5.33,0,0,0-4.32,1.86,6.86,6.86,0,0,0-1.44,4.86,8.85,8.85,0,0,0,1.56,5.25A4.74,4.74,0,0,0,996.18,658.28Z" transform="translate(-560.38 -139.85)"/><path class="cls-2" d="M1013.34,665.15a8.11,8.11,0,0,0-.68-1,4.92,4.92,0,0,0-.81-.89,14.28,14.28,0,0,0,4.33-2.93,11,11,0,0,0,2.61-4.29,18.67,18.67,0,0,0,.88-6.1v-2.3h-7.58v-2h21.26v2H1022v2.3c0,.27,0,.54,0,.81l0,.78h8.66c0,.68,0,1.5-.11,2.43s-.12,1.9-.21,2.89-.2,1.94-.33,2.82a21.17,21.17,0,0,1-.43,2.25,3.72,3.72,0,0,1-1.4,2.34,5.06,5.06,0,0,1-2.8.66h-2.37q-.06-.48-.18-1.2a7.39,7.39,0,0,0-.28-1.13h2.45a2,2,0,0,0,2.35-1.68c.11-.42.21-.94.31-1.56s.19-1.29.27-2,.13-1.39.18-2,.06-1.18.06-1.61h-6.39a14.79,14.79,0,0,1-2.74,6.89A16.16,16.16,0,0,1,1013.34,665.15Z" transform="translate(-560.38 -139.85)"/><path class="cls-2" d="M1037.43,665.34V645H1056V663c0,1.53-.91,2.3-2.71,2.3h-2.52c0-.21,0-.46-.11-.77s-.12-.6-.19-.9a4.24,4.24,0,0,0-.23-.71h2.52a1.27,1.27,0,0,0,.73-.16.83.83,0,0,0,.23-.68v-6.33h-13.94v9.55Zm2.31-11.69h5.8v-6.53h-5.8Zm8.06,0h5.88v-6.53h-5.88Z" transform="translate(-560.38 -139.85)"/><path class="cls-7" d="M1083.38,792.85" transform="translate(-560.38 -139.85)"/><path class="cls-7" d="M960.38,439.85" transform="translate(-560.38 -139.85)"/><path class="cls-7" d="M868.38,486.85" transform="translate(-560.38 -139.85)"/><line class="cls-8" x1="535.56" y1="655.49" x2="604" y2="722"/><path class="cls-9" d="M1093.46,798.16a3.76,3.76,0,1,1,5.32-.07A3.76,3.76,0,0,1,1093.46,798.16Z" transform="translate(-560.38 -139.85)"/><path class="cls-2" d="M616.65,839.91v-5.2a19,19,0,0,1-2.49,1.93,30.44,30.44,0,0,1-2.94,1.67,25.11,25.11,0,0,1-3,1.22,3.83,3.83,0,0,0-.29-.53l-.46-.68a4.2,4.2,0,0,0-.4-.52,18.94,18.94,0,0,0,2.83-1.07,27.56,27.56,0,0,0,2.89-1.53,25,25,0,0,0,2.44-1.67h-8.09V831.8h9.5v-1.49H609.5v-1.65h7.15v-1.42h-8.16v-1.7h4.78l-.46-1a8.73,8.73,0,0,0-.48-.88h-5.21v-1.73h4l-.75-1.51a8.18,8.18,0,0,0-.84-1.42l1.87-.89c.2.31.4.67.63,1.08l.63,1.21c.2.4.35.71.45,1l-1.35.58h2.72V818h2v3.94h2.16V818h2v3.94h2.76l-1.59-.63c.21-.27.43-.6.67-1s.47-.77.68-1.16.36-.74.48-1l2,.64c-.16.31-.35.66-.59,1.05l-.72,1.15c-.24.38-.46.69-.65,1h4.39v1.73H623c-.12.3-.25.62-.41.94s-.31.64-.46.93h4.59v1.7h-8v1.42h7.07v1.65h-7.07v1.49h9.5v1.73h-8.14a26.43,26.43,0,0,0,2.44,1.64,31.4,31.4,0,0,0,2.87,1.53,20.51,20.51,0,0,0,2.81,1.08,2.74,2.74,0,0,0-.4.51c-.15.24-.29.47-.42.7s-.22.41-.29.54a24.75,24.75,0,0,1-3-1.22,26.93,26.93,0,0,1-2.92-1.67,21.4,21.4,0,0,1-2.49-1.91v5.18Zm-1.08-14.37h4.22c.15-.27.3-.58.46-.91s.3-.66.43-1h-5.95c.16.32.32.64.47,1S615.48,825.28,615.57,825.54Z" transform="translate(-560.38 -139.85)"/><path class="cls-2" d="M633,839.82q-.06-.41-.18-1.05a5.37,5.37,0,0,0-.28-1h1.68a1.28,1.28,0,0,0,.7-.15.74.74,0,0,0,.21-.62v-5.59c-.51.8-1.06,1.57-1.64,2.31a24.78,24.78,0,0,1-1.72,1.94A5,5,0,0,0,631,835a4.23,4.23,0,0,0-.83-.59,15.76,15.76,0,0,0,1.85-2c.62-.79,1.2-1.6,1.74-2.45a16.14,16.14,0,0,0,1.26-2.33h-4.27v-1.8h5.88c-.39-.32-.82-.65-1.3-1s-1-.67-1.43-1-.89-.56-1.26-.76l1.16-1.44c.28.16.6.34.95.56s.71.44,1.06.68c.32-.35.68-.75,1.08-1.21l.94-1.07h-6.36v-1.75h8.66l.87.7c-.26.37-.61.81-1.06,1.34s-.91,1.06-1.39,1.6l-1.27,1.4.66.49.56.47-.32.4c-.16.18-.3.37-.45.56h2.76l.82.63c-.08.22-.19.51-.34.86s-.3.74-.48,1.15a15,15,0,0,0,2.52-1,11.4,11.4,0,0,0,2.07-1.36,12.92,12.92,0,0,1-1.17-1.38,14.49,14.49,0,0,1-1-1.57c-.3.4-.61.77-.93,1.13a10.36,10.36,0,0,1-1,.93c-.21-.19-.46-.4-.74-.63a3.52,3.52,0,0,0-.77-.5,9.49,9.49,0,0,0,1.27-1.27,19.79,19.79,0,0,0,1.25-1.65,16.48,16.48,0,0,0,1-1.76,10.58,10.58,0,0,0,.68-1.58l1.93.53a17.86,17.86,0,0,1-.92,2h7.44v1.75h-2a15.83,15.83,0,0,1-1,2.07A13,13,0,0,1,648,826a15.65,15.65,0,0,0,2.35,1.29,19.9,19.9,0,0,0,2.59.94,2.41,2.41,0,0,0-.37.51c-.14.24-.26.47-.37.71a4.11,4.11,0,0,0-.25.6,17.22,17.22,0,0,1-2.84-1,15.38,15.38,0,0,1-2.53-1.54,13.34,13.34,0,0,1-2.06,1.44l2.08.12c0,.38,0,.75-.07,1.1s-.07.71-.12,1.06h5.09c0,1-.08,2.12-.18,3.23a26.12,26.12,0,0,1-.4,2.79,3.19,3.19,0,0,1-1.11,2.12,4.15,4.15,0,0,1-2.27.52H646c0-.27-.1-.63-.19-1.08a6.1,6.1,0,0,0-.29-1h1.63a1.38,1.38,0,0,0,1.75-1.37,13.47,13.47,0,0,0,.24-1.57c.07-.6.11-1.19.12-1.76h-3.21a11.16,11.16,0,0,1-1.13,2.9,7.69,7.69,0,0,1-2,2.26,11.39,11.39,0,0,1-3.2,1.63,5,5,0,0,0-.31-.58l-.45-.71a2.37,2.37,0,0,0-.42-.51,8,8,0,0,0,3.63-1.89A7,7,0,0,0,644,833h-3.82v-1.9h4.18a18.37,18.37,0,0,0,.14-2.28,17,17,0,0,1-1.54.76c-.54.23-1.11.46-1.72.68-.08-.21-.2-.46-.35-.77s-.3-.57-.44-.81c-.28.62-.56,1.24-.86,1.86s-.54,1.09-.73,1.42a6.75,6.75,0,0,0-.81-.4,5.55,5.55,0,0,0-.89-.32v6.44c0,1.4-.82,2.11-2.45,2.11Zm4.15-8.57c.19-.32.41-.72.66-1.21s.48-1,.69-1.43.37-.8.45-1h-1.8Zm9.33-6.53a10.85,10.85,0,0,0,.87-1.26,10.62,10.62,0,0,0,.67-1.4h-3.58a10.1,10.1,0,0,0,.93,1.41A10.21,10.21,0,0,0,646.48,824.72Z" transform="translate(-560.38 -139.85)"/><path class="cls-2" d="M673.79,839.87a34.53,34.53,0,0,0-3.2-1.37c-1.19-.45-2.42-.87-3.68-1.27a13.26,13.26,0,0,1-4.32,1.86,28.47,28.47,0,0,1-5.83.7c0-.16-.09-.36-.16-.61s-.15-.49-.23-.73a5.52,5.52,0,0,0-.21-.55,25.71,25.71,0,0,0,4.64-.34,12.55,12.55,0,0,0,3.52-1.13c-.93-.25-1.83-.48-2.68-.69s-1.65-.38-2.39-.51c.26-.32.56-.7.9-1.15s.69-.92,1.05-1.41h-6.29v-1.85h7.56c.32-.47.61-.91.87-1.33s.49-.8.66-1.12l.58.22v-3.36a25.14,25.14,0,0,1-2.6,1.82,31.35,31.35,0,0,1-3,1.63,28.66,28.66,0,0,1-3.11,1.27,7.37,7.37,0,0,0-.49-.9,4.32,4.32,0,0,0-.61-.82,28.86,28.86,0,0,0,2.92-1.07,31.51,31.51,0,0,0,2.85-1.42,27.27,27.27,0,0,0,2.51-1.59h-7.68v-1.78h9.24v-1.82c-1.23.06-2.43.11-3.59.14s-2.22,0-3.18,0a8.91,8.91,0,0,0-.15-.92,7.11,7.11,0,0,0-.26-.9c1.23.05,2.56.06,4,0s2.83-.09,4.23-.18,2.7-.22,3.91-.35,2.22-.29,3-.45l1.17,1.64c-1,.19-2.13.35-3.32.49s-2.4.25-3.64.35v1.94h9.34v1.78h-7.56a25.63,25.63,0,0,0,3.84,2.29,26,26,0,0,0,4.25,1.64,3.4,3.4,0,0,0-.4.52c-.15.23-.29.47-.42.71l-.31.57a32.13,32.13,0,0,1-4.66-2.07,24,24,0,0,1-4.08-2.75v3.62h-1.92l1.13.43c-.14.24-.31.51-.49.8l-.61.91h11.59v1.85h-5.74a12.73,12.73,0,0,1-2.11,3.09c1.07.34,2.16.71,3.25,1.11s2.16.82,3.18,1.27a5,5,0,0,0-.63.8Zm-7.43-4.78a14.06,14.06,0,0,0,1-1.13,9.89,9.89,0,0,0,.9-1.29h-4.7l-.59.8-.49.64C663.68,834.36,665,834.69,666.36,835.09Z" transform="translate(-560.38 -139.85)"/><path class="cls-2" d="M678.79,824.07v-1.75h9.05v1.75Zm1.1,15.1v-6.74H687v6.74Zm.05-18.43v-1.8h6.82v1.8Zm0,6.72v-1.78h6.82v1.78Zm0,3.36V829h6.82v1.78Zm1.94,6.6H685V834.2h-3.12Zm12.2,1.7a3.15,3.15,0,0,1-1.82-.39,1.63,1.63,0,0,1-.51-1.36v-7.82l-4.25.43-.22-2,4.47-.46v-5c-.56.13-1.12.25-1.68.35s-1.12.2-1.66.28c-.08-.26-.21-.6-.38-1a6.08,6.08,0,0,0-.48-.94c.83-.09,1.72-.24,2.66-.43s1.88-.41,2.81-.66,1.8-.52,2.62-.82a15,15,0,0,0,2.08-.9l1.52,1.59a23.06,23.06,0,0,1-2.42,1c-.92.35-1.89.66-2.91,1v5.33l6.53-.67.21,2-6.74.7v7.08a.66.66,0,0,0,.19.53,1.15,1.15,0,0,0,.72.17h1.7a2.24,2.24,0,0,0,1.06-.21,1.29,1.29,0,0,0,.58-.81,9.21,9.21,0,0,0,.28-1.79,6.85,6.85,0,0,0,1,.41c.42.14.77.25,1.06.33a9.54,9.54,0,0,1-.61,2.63,2.15,2.15,0,0,1-1.07,1.16,4.28,4.28,0,0,1-1.73.29Z" transform="translate(-560.38 -139.85)"/><path class="cls-2" d="M703.82,839.87c-.05-.16-.13-.38-.24-.65s-.23-.55-.36-.82a4.53,4.53,0,0,0-.34-.62,28.09,28.09,0,0,0,5.14-1.3,18.69,18.69,0,0,0,4-2,18.38,18.38,0,0,1-2.3-2.7,17.63,17.63,0,0,1-1.85-3.39H705v-2.07h7.56v-2.88h-9.41v-2h9.41V818h2.28v3.5h9.41v2h-9.41v2.88H720l.79.82a34.7,34.7,0,0,1-2.39,4.13,19.68,19.68,0,0,1-2.7,3.19,21.45,21.45,0,0,0,4.24,2,29.33,29.33,0,0,0,4.78,1.2c-.09.16-.22.38-.37.67s-.29.58-.41.86-.2.52-.25.68a36.58,36.58,0,0,1-5.33-1.53,19.84,19.84,0,0,1-4.51-2.34,20.17,20.17,0,0,1-4.39,2.27A38.13,38.13,0,0,1,703.82,839.87Zm10-6.72a16.16,16.16,0,0,0,2.06-2.16,22.05,22.05,0,0,0,1.71-2.57h-7.44a12.41,12.41,0,0,0,1.56,2.57A15.93,15.93,0,0,0,713.8,833.15Z" transform="translate(-560.38 -139.85)"/><path class="cls-2" d="M728,838.71v-8.44h2.25v6.28h6.24v-8h-7.7v-8.48h2.33v6.36h5.37v-8.23h2.28v8.23h5.33v-6.36h2.35v8.48h-7.68v8H745v-6.28h2.28v8.44Z" transform="translate(-560.38 -139.85)"/><path class="cls-10" d="M620.59,801.4a12.15,12.15,0,0,1-7.35-2.25,12.48,12.48,0,0,1-4.46-6.63l5.87-2a10.94,10.94,0,0,0,1,2,6.21,6.21,0,0,0,1.85,2,5.13,5.13,0,0,0,3,.84,7.35,7.35,0,0,0,4.86-1.5c1.21-1,1.8-2.68,1.8-5a7.13,7.13,0,0,0-1.8-5.1,6.73,6.73,0,0,0-5.16-1.92h-3v-5.88h3a5.42,5.42,0,0,0,4.45-1.77,6.72,6.72,0,0,0,1.43-4.35c0-2-.57-3.41-1.71-4.23a6.46,6.46,0,0,0-3.87-1.23,4.13,4.13,0,0,0-2.64.87,8.08,8.08,0,0,0-1.77,2,10.54,10.54,0,0,0-1,1.95l-5.82-2.34a13.76,13.76,0,0,1,4.59-6.33,11.05,11.05,0,0,1,6.75-2.25,13.74,13.74,0,0,1,6.39,1.41,10.51,10.51,0,0,1,4.26,3.93,11.23,11.23,0,0,1,1.54,5.94,9.94,9.94,0,0,1-1.66,5.61,9.81,9.81,0,0,1-4.17,3.63,10.29,10.29,0,0,1,4.89,3.9,11.09,11.09,0,0,1,1.89,6.42,12.1,12.1,0,0,1-3.44,9.06Q626.83,801.4,620.59,801.4Z" transform="translate(-560.38 -139.85)"/><path class="cls-10" d="M647.35,800.8V767l-7.32,4.8-3.42-5.46,12.24-7.56h4.92V800.8Z" transform="translate(-560.38 -139.85)"/><path class="cls-10" d="M668.77,801.46a4.43,4.43,0,0,1-3.21-1.32,4.27,4.27,0,0,1-1.35-3.18,4.36,4.36,0,0,1,1.35-3.24,4.56,4.56,0,0,1,6.42,0,4.36,4.36,0,0,1,1.35,3.24,4.27,4.27,0,0,1-1.35,3.18A4.43,4.43,0,0,1,668.77,801.46Z" transform="translate(-560.38 -139.85)"/><path class="cls-10" d="M691.63,801.4q-4.8,0-7.5-2.4a13.35,13.35,0,0,1-3.81-7.2,65.58,65.58,0,0,1,0-24,13.41,13.41,0,0,1,3.81-7.23q2.7-2.4,7.5-2.4t7.47,2.4a13.52,13.52,0,0,1,3.78,7.23,65.58,65.58,0,0,1,0,24,13.46,13.46,0,0,1-3.78,7.2Q696.43,801.4,691.63,801.4Zm0-6.12a4.52,4.52,0,0,0,3.51-1.41A9.55,9.55,0,0,0,697,789.1a55.82,55.82,0,0,0,.6-9.3,56.47,56.47,0,0,0-.6-9.36,9.63,9.63,0,0,0-1.89-4.77,4.52,4.52,0,0,0-3.51-1.41,4.62,4.62,0,0,0-3.54,1.41,9.27,9.27,0,0,0-1.89,4.77,59.39,59.39,0,0,0-.57,9.36,58.71,58.71,0,0,0,.57,9.3,9.2,9.2,0,0,0,1.89,4.77A4.62,4.62,0,0,0,691.63,795.28Z" transform="translate(-560.38 -139.85)"/><path class="cls-10" d="M711.46,792.21a3.29,3.29,0,0,1-2.63-1.15,4.64,4.64,0,0,1-1-3.12,4.53,4.53,0,0,1,1-3.08,3.6,3.6,0,0,1,5.26,0,4.52,4.52,0,0,1,1,3.08,4.63,4.63,0,0,1-1,3.12A3.31,3.31,0,0,1,711.46,792.21Zm-1.15,9.07-1.08-.76,12.24-17.07,1,.79Zm1.15-10.75a1.7,1.7,0,0,0,1.44-.67,3.2,3.2,0,0,0,.5-1.92,3.16,3.16,0,0,0-.5-1.9,1.72,1.72,0,0,0-1.44-.67A1.75,1.75,0,0,0,710,786a3.16,3.16,0,0,0-.5,1.9,3.2,3.2,0,0,0,.5,1.92A1.73,1.73,0,0,0,711.46,790.53Zm8.88,10.54a3.34,3.34,0,0,1-2.62-1.14,5.23,5.23,0,0,1,0-6.18,3.57,3.57,0,0,1,5.25,0,5.32,5.32,0,0,1,0,6.18A3.33,3.33,0,0,1,720.34,801.07Zm0-1.63a1.7,1.7,0,0,0,1.46-.68,3.09,3.09,0,0,0,.51-1.92,3.13,3.13,0,0,0-.51-1.92,1.72,1.72,0,0,0-1.46-.67,1.75,1.75,0,0,0-1.47.67,3.2,3.2,0,0,0-.5,1.92,3.16,3.16,0,0,0,.5,1.92A1.73,1.73,0,0,0,720.34,799.44Z" transform="translate(-560.38 -139.85)"/><line class="cls-8" x1="232.2" y1="591.22" x2="177" y2="635"/><path class="cls-9" d="M790.1,728.24a3.76,3.76,0,1,1-.61,5.28A3.75,3.75,0,0,1,790.1,728.24Z" transform="translate(-560.38 -139.85)"/><path class="cls-2" d="M672.59,418a11.26,11.26,0,0,1-4.13-.52,6.44,6.44,0,0,1-2.88-1.86,4.37,4.37,0,0,1-1.06-2.94,5.26,5.26,0,0,1,.63-2.57,6.15,6.15,0,0,1,1.72-2c-1.1.24-2.19.5-3.28.78s-2.08.56-3,.84a20.17,20.17,0,0,0-2.12.78l-.84-2.09.79-.16c.35-.07.86-.19,1.51-.35a6.37,6.37,0,0,0,2.15-1.06,18.13,18.13,0,0,0,2.33-2,30.28,30.28,0,0,0,2.15-2.42,21.06,21.06,0,0,0,1.61-2.33c-.6.14-1.29.29-2.08.44s-1.56.28-2.29.39-1.34.17-1.8.2l-.65-2a20.32,20.32,0,0,0,2-.12c.77-.08,1.57-.18,2.37-.3s1.55-.25,2.21-.39a8.46,8.46,0,0,0,1.53-.46l1.84,1.18a12.76,12.76,0,0,1-1,1.77c-.43.67-.94,1.37-1.52,2.1s-1.23,1.44-1.92,2.14a19.37,19.37,0,0,1-2.2,1.88c.94-.21,1.9-.42,2.87-.65l2.78-.63,2.37-.53c.68-.15,1.22-.26,1.6-.32l.36,2.16c-.59,0-1.41.12-2.47.26a7.48,7.48,0,0,0-2.75.94,5.94,5.94,0,0,0-2,1.84,4.77,4.77,0,0,0-.74,2.64,2.36,2.36,0,0,0,.89,1.88,5.41,5.41,0,0,0,2.37,1.05,12.23,12.23,0,0,0,3.32.19,4.43,4.43,0,0,0-.51,1.13A6.55,6.55,0,0,0,672.59,418Z" transform="translate(-560.38 -139.85)"/><path class="cls-2" d="M692.41,416.92a4.79,4.79,0,0,0-.51-1.09,4.7,4.7,0,0,0-.78-1,10.11,10.11,0,0,0,3.67-1.24,7,7,0,0,0,2.34-2.24,5.83,5.83,0,0,0,.9-2.85,6.37,6.37,0,0,0-.4-2.65,6.5,6.5,0,0,0-1.33-2.13,6.7,6.7,0,0,0-2-1.45,6.45,6.45,0,0,0-2.43-.61,31,31,0,0,1-.7,4.7,23.34,23.34,0,0,1-1.42,4.42,12.67,12.67,0,0,1-2.15,3.41,3.36,3.36,0,0,1-1.69,1.08,3.07,3.07,0,0,1-1.79-.22,4.24,4.24,0,0,1-1.63-1.26,6.18,6.18,0,0,1-1.11-2.1,7.6,7.6,0,0,1-.31-2.64,9.9,9.9,0,0,1,1-3.89,9.67,9.67,0,0,1,2.36-3.06,10.36,10.36,0,0,1,3.41-1.94,10.7,10.7,0,0,1,4.1-.54,9.12,9.12,0,0,1,3.27.79,9,9,0,0,1,2.71,1.9,8.49,8.49,0,0,1,1.81,2.8,8.6,8.6,0,0,1,.54,3.56A8,8,0,0,1,698,414,10.91,10.91,0,0,1,692.41,416.92Zm-7.68-4.1a1.09,1.09,0,0,0,.63.15,1,1,0,0,0,.69-.37,9.08,9.08,0,0,0,1.69-2.69A20.76,20.76,0,0,0,689,406.1a24.8,24.8,0,0,0,.65-4.3,7.77,7.77,0,0,0-5.49,4,7.68,7.68,0,0,0-.94,3.36,4.75,4.75,0,0,0,.38,2.29A3.08,3.08,0,0,0,684.73,412.82Z" transform="translate(-560.38 -139.85)"/><path class="cls-2" d="M706.91,418.82V405.91c-.35.56-.72,1.08-1.09,1.58s-.75.95-1.12,1.37a6.71,6.71,0,0,0-.82-.65c-.32-.22-.61-.42-.88-.58a15.52,15.52,0,0,0,1.83-2.29,29.73,29.73,0,0,0,1.73-2.93c.54-1,1-2,1.4-3a16.12,16.12,0,0,0,.84-2.48l2.09.53a21.07,21.07,0,0,1-.83,2.38c-.32.8-.69,1.6-1.09,2.4v16.56Zm7.51-.58a2.91,2.91,0,0,1-1.78-.42,1.66,1.66,0,0,1-.52-1.38v-8.93l-2.36.72-.52-2.06,2.88-.89v-6.53h2.13v5.88l2.52-.76v-6.82h2.07v6.17l4-1.23,1.08.44v8a2,2,0,0,1-.5,1.41,2.59,2.59,0,0,1-1.56.72l-.81.07-.83.08a5.76,5.76,0,0,0-.27-1.2,8.16,8.16,0,0,0-.33-.84H721a.94.94,0,0,0,.62-.17.74.74,0,0,0,.19-.58v-5.4l-2.92.89v8.38h-2.07V406.1l-2.52.77v8.61a.78.78,0,0,0,.19.57,1.14,1.14,0,0,0,.75.18h6.31a2.57,2.57,0,0,0,1.1-.2,1.33,1.33,0,0,0,.63-.85,10.08,10.08,0,0,0,.33-2,6.93,6.93,0,0,0,1,.42,11.41,11.41,0,0,0,1.14.35,9.92,9.92,0,0,1-.64,2.85A2.25,2.25,0,0,1,724,418a4.82,4.82,0,0,1-1.74.27Z" transform="translate(-560.38 -139.85)"/><path class="cls-11" d="M666,379.8V346l-7.32,4.8-3.42-5.46,12.24-7.56h4.92V379.8Z" transform="translate(-560.38 -139.85)"/><path class="cls-11" d="M693,380.16a13.89,13.89,0,0,1-7-1.86,13.75,13.75,0,0,1-5.09-5l5.4-3.42a10.25,10.25,0,0,0,2.85,3A6.59,6.59,0,0,0,693,374a6.27,6.27,0,0,0,5.07-2,8.35,8.35,0,0,0,1.72-5.61q0-3.9-1.47-5.67a5.06,5.06,0,0,0-4.11-1.77,6.11,6.11,0,0,0-3,.72,4.15,4.15,0,0,0-1.92,2.16h-5.94V337.8h21.36v5.88H689.74v11a9.52,9.52,0,0,1,2.21-1.17,6.81,6.81,0,0,1,2.41-.45,12.06,12.06,0,0,1,6,1.5,11,11,0,0,1,4.27,4.44,15.5,15.5,0,0,1,1.59,7.38c0,4.36-1.23,7.74-3.66,10.14A13.12,13.12,0,0,1,693,380.16Z" transform="translate(-560.38 -139.85)"/><path class="cls-11" d="M715.59,380.46a4.45,4.45,0,0,1-3.21-1.32A4.26,4.26,0,0,1,711,376a4.35,4.35,0,0,1,1.34-3.24,4.56,4.56,0,0,1,6.42,0,4.36,4.36,0,0,1,1.35,3.24,4.27,4.27,0,0,1-1.35,3.18A4.43,4.43,0,0,1,715.59,380.46Z" transform="translate(-560.38 -139.85)"/><path class="cls-11" d="M739,380.4a14.25,14.25,0,0,1-5-.87,10,10,0,0,1-4.23-3.06,15.33,15.33,0,0,1-2.88-6.18A39.62,39.62,0,0,1,726,360q.18-11.88,3.84-17.37a12.22,12.22,0,0,1,16.44-3.78,13.89,13.89,0,0,1,4.56,4.23l-4.8,3.72a8.82,8.82,0,0,0-2.49-2.7,5.77,5.77,0,0,0-3.33-1,6.35,6.35,0,0,0-6,3.72c-1.3,2.49-2,6.16-2.07,11a6.91,6.91,0,0,1,2.91-2.37,9,9,0,0,1,3.81-.87,11.75,11.75,0,0,1,6,1.53,11,11,0,0,1,4.17,4.32,13.59,13.59,0,0,1,1.53,6.63,15.62,15.62,0,0,1-1.44,6.84,11.38,11.38,0,0,1-4.05,4.71A11,11,0,0,1,739,380.4Zm-.42-6.12a4.83,4.83,0,0,0,4.11-2,8.42,8.42,0,0,0,1.47-5.16,7.48,7.48,0,0,0-1.47-4.83,4.72,4.72,0,0,0-3.87-1.83,5.33,5.33,0,0,0-4.32,1.86,6.86,6.86,0,0,0-1.44,4.86,8.85,8.85,0,0,0,1.56,5.25A4.74,4.74,0,0,0,738.57,374.28Z" transform="translate(-560.38 -139.85)"/><path class="cls-11" d="M757.92,371.21a3.29,3.29,0,0,1-2.63-1.15,4.59,4.59,0,0,1-1-3.12,4.48,4.48,0,0,1,1-3.08,3.59,3.59,0,0,1,5.25,0,4.48,4.48,0,0,1,1,3.08,4.59,4.59,0,0,1-1,3.12A3.27,3.27,0,0,1,757.92,371.21Zm-1.15,9.07-1.08-.76,12.24-17.07,1.05.79Zm1.15-10.75a1.7,1.7,0,0,0,1.44-.67,3.2,3.2,0,0,0,.5-1.92,3.16,3.16,0,0,0-.5-1.9,1.72,1.72,0,0,0-1.44-.67,1.75,1.75,0,0,0-1.47.67,3.16,3.16,0,0,0-.5,1.9,3.2,3.2,0,0,0,.5,1.92A1.73,1.73,0,0,0,757.92,369.53Zm8.88,10.54a3.32,3.32,0,0,1-2.62-1.14,5.23,5.23,0,0,1,0-6.18,3.57,3.57,0,0,1,5.25,0,5.32,5.32,0,0,1,0,6.18A3.34,3.34,0,0,1,766.8,380.07Zm0-1.63a1.7,1.7,0,0,0,1.46-.68,3.09,3.09,0,0,0,.51-1.92,3.13,3.13,0,0,0-.51-1.92,1.72,1.72,0,0,0-1.46-.67,1.75,1.75,0,0,0-1.47.67,3.2,3.2,0,0,0-.5,1.92,3.16,3.16,0,0,0,.5,1.92A1.73,1.73,0,0,0,766.8,378.44Z" transform="translate(-560.38 -139.85)"/><line class="cls-8" x1="321.7" y1="330.27" x2="234" y2="226"/><path class="cls-9" d="M884.84,467.55a3.76,3.76,0,1,1-5.3-.46A3.76,3.76,0,0,1,884.84,467.55Z" transform="translate(-560.38 -139.85)"/></svg>